<svg width="69" height="62" viewBox="0 0 69 62" fill="none" xmlns="http://www.w3.org/2000/svg">
<path d="M20.8868 4.27031C17.0839 3.84777 13.5233 3.59432 9.65813 3.98084C8.01602 4.14505 6.01219 3.78738 4.70653 5.09304C3.22411 6.57547 2.37916 9.93993 2.25359 11.9491C2.05513 15.1245 1.96411 18.1661 1.96411 21.3343C1.96411 24.5134 1.96411 27.6926 1.96411 30.8718C1.96411 36.3746 3.60956 41.741 3.60956 47.2197C3.60956 49.7926 3.44873 52.2184 3.60956 54.7918C3.79629 57.7793 6.37089 58.8954 8.97252 59.1035C14.9929 59.5851 21.0758 59.1187 27.0877 59.1187C33.8884 59.1187 41.3239 56.7386 48.0215 58.6921C50.5942 59.4425 53.1219 59.393 55.7765 59.393C57.3969 59.393 61.1817 60.5087 62.4345 59.2559C63.5425 58.1479 63.6556 54.665 63.9428 53.0854C64.326 50.9778 65.314 48.8993 65.314 46.7321C65.314 45.2187 65.3135 43.7649 65.5273 42.2681C65.9933 39.0066 66.411 35.4041 66.411 32.1059C66.411 29.0266 67.2337 26.0137 67.2337 22.9188C67.2337 20.0549 67.4291 17.3 67.249 14.4173C67.1105 12.2014 66.5321 10.015 66.411 7.83546C66.3689 7.07726 65.8987 3.86877 65.1617 3.44759C63.8236 2.68295 62.4238 2.89672 60.9262 2.56392C56.8315 1.65399 52.4517 1.52789 48.2501 1.52789C46.1813 1.52789 44.2035 1.80214 42.1406 1.80214C40.3494 1.80214 38.3178 1.53592 36.5796 2.01543C35.1215 2.41765 33.4593 2.55815 31.9936 2.88387C31.2657 3.04563 30.5013 2.87107 29.754 3.05146C28.4648 3.36264 26.9398 3.67257 25.6099 3.72183C24.4924 3.76322 23.4985 3.99607 22.3951 3.99607C21.7812 3.99607 20.5022 2.84552 20.0641 3.72183" stroke="#D8A1FF" stroke-width="3" stroke-linecap="round"/>
<path d="M37.3827 19.1358C36.6257 19.1358 35.9131 18.6829 35.1693 18.5837C33.8319 18.4054 32.5999 18.3625 31.2639 18.6297C29.7053 18.9415 28.628 19.8197 27.2715 20.5569C25.8558 21.3263 24.7212 22.4284 23.6268 23.5933C22.4876 24.806 21.1692 26.0918 20.5955 27.6981C20.0171 29.3177 19.9708 30.9373 20.4575 32.5799C21.3617 35.6317 23.585 38.7359 26.2645 40.4879C30.5759 43.3069 36.8695 44.8544 41.738 42.5787C43.9078 41.5644 46.1224 39.7299 47.0032 37.4464C48.0052 34.8486 47.0942 32.5947 46.492 30.0138C45.7104 26.6639 44.4257 23.5483 41.5438 21.4566C41.1194 21.1486 40.7053 20.8063 40.2556 20.5365C39.9993 20.3827 39.7158 20.3527 39.499 20.148C39.2727 19.9342 38.4671 19.7878 38.947 19.5959" stroke="#D8A1FF" stroke-width="3" stroke-linecap="round"/>
<path d="M6.36698 7.45017C6.09997 7.48355 6.24224 8.50038 6.86282 7.45017C7.17372 6.92405 6.01287 7.28751 5.82001 7.55752C5.53509 7.95642 5.07596 10.0054 5.71266 10.1799C6.57936 10.4173 8.61936 7.12625 7.74206 6.85209C6.67522 6.51869 5.79432 10.7274 5.73822 11.3352C5.69559 11.797 5.62777 12.8003 6.3772 12.5722C7.49168 12.233 8.13824 10.8413 8.6264 9.90385C9.02048 9.14705 9.93428 7.65741 9.39318 6.78563C8.93407 6.04596 7.87146 7.32033 7.59381 7.60352C6.39654 8.82474 5.28032 10.2586 4.65963 11.8668C4.16989 13.1357 3.7877 14.9968 4.35803 16.3039C5.72708 19.4413 12.3754 10.1835 13.0124 9.20353C13.844 7.92409 15.0416 6.0857 14.9906 4.4802C14.9443 3.02021 13.4699 3.92907 12.8488 4.43419C11.0241 5.91808 9.09162 7.58524 7.74206 9.52046C6.30193 11.5855 4.80607 14.2423 4.68007 16.8253C4.63375 17.7749 4.89015 19.1324 5.65132 19.7901C6.93126 20.8961 8.86485 19.6702 9.86346 18.8189C12.2356 16.7967 14.0458 13.9499 15.558 11.2636C16.337 9.87984 17.9222 7.35189 16.8718 5.71215C16.0394 4.41282 14.4553 4.88576 13.2628 5.36966C10.9139 6.32285 8.85341 8.12999 7.2871 10.0879C5.45622 12.3765 4.06445 15.0546 3.4379 17.9294C3.10435 19.4598 2.63577 21.909 4.02576 23.0924C8.17177 26.6221 10.8722 18.5092 11.7293 15.7927C12.0639 14.732 12.3489 13.6483 12.5114 12.5467C12.5811 12.0743 12.8317 10.856 12.3274 10.4968C11.9988 10.2628 11.3407 10.7293 11.1005 10.8955C10.1678 11.5408 9.46023 12.56 8.90244 13.5281C7.41466 16.1104 6.64686 19.1788 6.15228 22.0956C5.92427 23.4402 5.75847 24.8017 5.69222 26.1646C5.65515 26.9271 5.60822 27.8223 5.95803 28.5313C6.39727 29.4217 6.99078 26.5289 7.01107 26.4099C7.37459 24.2784 7.96824 21.9983 7.98231 19.831C7.98928 18.7577 7.49684 19.6312 7.35867 20.1071C6.54169 22.9211 5.97973 25.8872 5.54908 28.7767C5.24584 30.8114 4.86291 32.9394 4.96634 35.008C5.01273 35.9359 5.24876 36.08 5.26282 35.1052C5.31296 31.6286 5.40036 28.166 5.57975 24.6924C5.63522 23.6184 5.70373 22.5427 5.67177 21.4668C5.6691 21.3769 5.71364 20.6065 5.57975 20.5109C5.3493 20.3463 5.40333 21.0507 5.34972 21.3288C5.17716 22.2239 4.9435 23.1015 4.75164 23.992C4.13818 26.8394 3.78405 29.9116 4.0871 32.8151C4.29523 34.809 4.56569 36.9888 5.24237 38.8879C5.51805 39.6616 5.29596 37.2447 5.26282 36.424C5.10579 32.5351 5.02031 28.6567 5.26282 24.769C5.32991 23.6935 5.43931 22.6169 5.44685 21.5384C5.45047 21.0205 5.38664 20.9992 5.25771 21.523C4.65485 23.9721 4.39248 26.5342 4.0871 29.0323C3.60404 32.984 3.24536 37.2681 3.94397 41.2189C4.03051 41.7083 4.87683 44.6305 5.62065 42.9569C6.05987 41.9687 6.16999 40.7678 6.32097 39.7109C6.69025 37.1259 6.95576 34.5312 7.39957 31.9563C7.66772 30.4005 8.03666 28.8578 8.25835 27.2943C8.26146 27.2723 8.40656 25.7812 8.23279 25.9039C7.88101 26.1522 7.68253 26.8575 7.55292 27.2227C6.87812 29.1244 6.40095 31.1298 6.03982 33.1115C5.6798 35.0872 5.39633 37.1047 5.30372 39.1128C5.2628 40 5.1366 41.3032 5.57975 42.1288C5.98083 42.876 6.77162 41.3299 6.86793 41.1576C7.97708 39.1724 8.7081 36.9678 9.63343 34.8956C11.8851 29.853 14.7129 25.1809 18.0117 20.7614C18.0513 20.7084 18.3753 20.292 18.4104 20.1377C18.4271 20.0646 18.2474 20.1055 18.1855 20.1479C17.0333 20.9394 16.1365 22.3391 15.2718 23.4042C13.0384 26.155 11.0071 29.0784 8.69797 31.7671C8.32153 32.2054 8.12004 32.2558 8.45771 31.6649C9.53714 29.7759 10.9119 27.9938 12.2047 26.2515C15.0306 22.4429 18.137 18.6501 21.6513 15.4553C21.9529 15.1811 22.4362 14.7483 22.7913 14.4789C23.0983 14.246 22.8867 14.4682 22.7606 14.6067C21.5053 15.9855 20.2172 17.3231 19.0341 18.7678C16.4905 21.8736 13.8571 25.1853 11.9389 28.7256C11.8154 28.9535 11.3185 29.9835 11.99 29.2777C13.4322 27.7618 14.6716 26.0282 16.0283 24.4368C17.6642 22.5179 19.3407 20.6226 21.1862 18.9007C22.4153 17.7538 23.8285 16.4165 25.4034 15.7416C26.175 15.4109 25.6446 16.0958 25.4239 16.3652C24.1773 17.8864 22.8184 19.3193 21.544 20.8176C19.2171 23.5532 16.6196 26.3543 14.8731 29.5179C14.8357 29.5856 14.4049 30.5304 14.9242 30.0853C16.1701 29.0174 16.9961 27.2053 17.9299 25.8834C19.5319 23.6157 21.3549 21.5277 23.4916 19.7492C23.767 19.52 24.2118 19.0433 24.5855 18.962C24.6823 18.941 24.4599 19.1154 24.3913 19.1869C23.9821 19.6135 23.5852 20.0509 23.19 20.4904C21.6756 22.1748 20.2444 23.9338 18.758 25.6432C18.6115 25.8117 18.1647 26.2912 18.2571 26.0879C18.7583 24.9852 19.6134 23.932 20.2814 22.9288C22.583 19.4716 25.2308 16.3579 28.0565 13.3237C28.5612 12.7816 29.4328 12.093 29.7178 11.3709C29.8822 10.9544 28.099 11.9996 28.082 12.0099C24.2177 14.3579 20.7236 17.3053 17.3983 20.3524C16.1253 21.5189 14.93 22.7543 13.728 23.992C13.5815 24.1429 12.2302 25.5737 13.0328 24.4623C15.9953 20.3604 19.5785 16.6449 23.144 13.0732C23.3906 12.8262 29.7929 6.89641 29.7331 6.83164C29.5169 6.59738 27.7995 7.88553 27.7497 7.92046C25.8956 9.22339 24.2084 10.7429 22.597 12.332C20.7492 14.1543 18.9601 16.061 17.337 18.0879C16.6598 18.9334 16.1715 19.591 15.5785 20.4904C15.154 21.1343 13.951 23.0651 14.5255 22.5505C15.3318 21.8281 15.8811 20.8617 16.5293 19.9946C19.322 16.2586 17.2705 18.9606 20.0973 15.2201C21.8587 12.8895 24.0113 10.5429 25.3114 7.90001C25.5773 7.3596 25.4374 7.02082 24.8104 7.03611C23.4846 7.06845 22.2041 8.1181 21.2219 8.88148C16.4967 12.5544 12.7371 17.4337 9.89414 22.6732C9.27538 23.8136 7.86762 25.9393 8.07433 27.3863C8.27362 28.7813 10.6757 26.901 10.983 26.6349C12.417 25.3925 13.6339 23.8545 14.8117 22.3767C16.9139 19.7392 18.9371 17.0242 20.8539 14.2489C21.9057 12.7259 23.0128 11.1777 23.8392 9.51535C24.1566 8.87696 24.9612 7.28186 24.2021 6.63739C23.5968 6.12339 22.5003 6.67588 21.9529 6.96966C19.9014 8.07078 18.0742 9.69962 16.4015 11.2943C11.7442 15.7343 7.42669 21.2301 5.2526 27.3658C4.84643 28.5121 4.22314 30.2492 4.6494 31.486C5.0725 32.7136 6.90163 31.0341 7.27177 30.6732C8.8585 29.1261 10.2224 27.3064 11.5657 25.5511C13.7187 22.7379 15.7964 19.8655 17.9197 17.0297C19.1949 15.3267 20.5081 13.6418 21.7127 11.8872C21.9242 11.5791 23.2356 10.0127 22.7453 9.48468C22.239 8.93948 20.7907 9.73126 20.3734 9.95496C18.0824 11.1829 16.0592 13.0811 14.3465 15.0106C12.7276 16.8344 11.3252 18.8736 10.2469 21.063C9.90316 21.7608 8.50311 24.2974 9.54653 25.0451C10.2629 25.5584 11.2613 24.6062 11.7037 24.1863C13.4831 22.4977 14.9739 20.4551 16.3555 18.4406C17.6244 16.5903 18.839 14.6771 19.7549 12.6233C20.0252 12.0172 20.7614 10.6456 20.2405 9.95496C18.951 8.24564 14.7666 13.0966 14.1472 13.8093C13.1797 14.9225 12.3467 16.1451 11.7344 17.4898C11.47 18.0705 10.6644 19.6643 11.3408 20.2655C11.892 20.7555 12.8788 19.8349 13.2475 19.5345C14.9541 18.1439 16.3696 16.3389 17.6948 14.5965C18.848 13.0802 19.8817 11.4602 20.7823 9.78116C21.1055 9.17862 21.6508 8.22501 21.3549 7.49107C20.7146 5.90312 15.7353 10.7705 15.3127 11.2636C14.071 12.7122 13.125 14.3872 12.5983 16.2272C12.4771 16.6505 11.6715 19.9646 13.2475 19.2994C14.3684 18.8262 15.3067 17.6442 16.059 16.7435C17.3356 15.215 18.4716 13.5432 19.4941 11.8361C20.1897 10.6749 22.0988 7.95509 20.6392 6.66295C18.848 5.07729 15.7216 7.8296 14.5152 8.88148C12.9606 10.2371 11.5139 11.7846 10.3644 13.5026C9.69156 14.5082 8.58633 16.4078 9.07624 17.6994C9.35736 18.4405 10.3914 18.237 10.9165 17.9703C12.6312 17.0995 14.0808 15.2803 15.1184 13.7173C15.818 12.6635 18.4817 8.27176 16.1306 7.3786C15.2785 7.0549 14.1968 7.65229 13.5031 8.07381C11.9419 9.0224 10.6156 10.3715 9.42385 11.739C8.48953 12.8111 7.58497 13.9483 7.02129 15.2662C6.68088 16.062 6.1204 17.612 6.97017 18.3179C7.63869 18.8733 8.51173 18.4856 9.13759 18.093C10.7004 17.1125 12.0815 15.73 13.1504 14.2336C13.8094 13.3109 16.0986 9.52002 13.9683 8.80992C12.0048 8.15543 9.59991 11.31 8.77976 12.6438C7.952 13.99 6.94489 17.4443 9.36762 17.8936C10.5826 18.119 11.839 17.3155 12.8079 16.7026C14.7225 15.4913 16.4547 13.978 18.1651 12.5007C19.1475 11.6521 22.0037 9.00389 21.0584 9.89362C19.478 11.3811 17.9456 13.6282 17.1632 15.6342C16.993 16.0704 16.6103 17.2512 17.2296 17.5665C17.9784 17.9477 19.2988 16.5893 19.7395 16.1914C20.7379 15.29 21.6495 14.2923 22.5306 13.2777C23.2473 12.4522 24.4463 11.352 24.6878 10.231C24.942 9.05051 22.8151 11.8194 22.183 12.8483C21.2311 14.3975 19.5314 17.1502 20.4705 19.0847C21.2693 20.7302 24.6194 17.8231 25.2807 17.2649C27.4767 15.4113 29.7085 13.591 31.8903 11.7237C32.495 11.2062 33.0659 10.6554 33.6283 10.093C33.698 10.0233 34.558 9.22189 33.9402 9.57669C32.4812 10.4145 31.0809 11.555 29.9632 12.8074C29.8399 12.9455 27.4546 15.5139 28.5728 15.7313C29.0448 15.8231 29.7055 15.1846 30.0092 14.9339C31.172 13.9738 32.1876 12.8266 33.02 11.5703C33.5321 10.7975 36.0569 7.21417 33.6232 7.04634C32.565 6.97335 31.3061 7.70455 30.4079 8.14027C28.8749 8.88393 27.5075 9.77597 26.3031 10.9876C24.9478 12.3509 22.7076 14.7793 23.7063 16.9173C24.5901 18.8093 26.8079 17.7088 28.0462 16.861C28.8678 16.2986 29.6523 15.5781 30.2699 14.7959C30.393 14.6399 31.2113 13.5196 30.4948 13.5128C27.9321 13.4886 22.5759 19.9336 24.8258 18.7064C25.5501 18.3113 26.1923 17.7333 26.845 17.2342C26.8516 17.2291 27.7876 16.4163 27.7804 16.4163C27.3939 16.4163 26.819 16.7827 26.4973 16.9582C25.2742 17.6254 24.1695 18.5516 23.0724 19.4016C18.7626 22.741 16.1465 27.3683 14.4641 32.493C14.1959 33.3101 13.8178 34.314 13.9376 35.1972C14.0274 35.8596 14.506 35.0491 14.597 34.87C15.9475 32.213 16.7903 29.064 17.3318 26.1441C17.3632 25.9753 17.5891 24.88 17.1478 25.6227C16.6093 26.529 16.2736 27.5586 15.9568 28.5569C14.5732 32.9161 13.4124 37.3539 12.7568 41.8834C12.6712 42.4748 12.63 43.0837 12.5318 43.6726C12.385 44.5534 12.5061 41.8867 12.4858 40.994C12.4405 38.9971 12.4405 36.9996 12.3887 35.0029C12.3694 34.2587 12.6403 31.4839 11.7651 30.9952C10.4295 30.2496 8.63055 38.122 8.4935 38.7959C8.06951 40.8805 7.87743 43.0162 7.7165 45.1346C7.70652 45.2659 7.33229 48.3479 7.74717 48.4368C7.88523 48.4664 7.85918 48.1733 7.87497 48.033C7.92109 47.623 7.9207 47.2074 7.91586 46.7959C7.88868 44.4854 7.68165 42.1727 7.51203 39.8694C7.47566 39.3756 7.59485 37.3752 7.03151 36.9965C6.90345 36.9105 6.76717 37.1889 6.71458 37.3339C6.40042 38.2004 6.35406 39.2164 6.30052 40.1199C6.17205 42.2878 6.27496 44.458 6.48966 46.617C6.67609 48.4916 6.76111 50.6168 7.34845 52.424C8.22628 55.125 6.82179 46.7599 6.29541 43.9691C6.11477 43.0113 6.03801 41.6388 5.49797 40.7793C5.00407 39.9932 4.87232 41.7523 4.86921 41.8425C4.812 43.5017 5.01339 45.1828 5.24749 46.8215C5.56478 49.0425 5.91178 51.4564 6.82704 53.5282C7.01825 53.961 7.53508 54.95 8.19701 54.6017C8.80121 54.2837 8.83888 53.1058 8.86155 52.5569C8.92095 51.1185 8.65452 49.67 8.34014 48.2732C8.11562 47.2756 7.85975 45.6938 7.01107 44.9914C5.67365 43.8846 5.57081 47.1505 5.66154 47.67C5.83451 48.6604 6.11539 49.6729 6.61234 50.5531C6.94959 51.1504 7.48568 52.0996 8.12544 52.4291C8.41502 52.5783 8.26228 51.7641 8.16634 51.4528C7.92261 50.662 7.23163 48.2262 6.10627 48.2477C4.92244 48.2702 5.25449 51.3322 5.30372 51.918C5.41633 53.2581 5.66709 54.7606 6.66346 55.7569C8.21887 57.3123 8.77626 54.5853 8.68263 53.4617C8.60848 52.5719 8.28886 51.685 7.96698 50.8598C7.7118 50.2056 7.3186 49.0248 6.53056 48.7946C4.99041 48.3448 5.89152 51.9667 5.99892 52.3831C6.28325 53.4857 8.07335 58.4136 9.89925 56.7282C10.8684 55.8336 11.0864 54.1954 11.121 52.9608C11.1548 51.7524 11.1329 49.0929 9.95548 48.2834C9.45686 47.9406 8.83018 48.5056 8.58551 48.8866C7.8778 49.9889 8.00951 51.5007 8.13567 52.7307C8.33673 54.6911 9.02579 56.8505 10.8603 57.8937C13.3817 59.3274 13.2833 55.0488 13.1862 53.7224C12.921 50.1016 12.2841 45.2384 9.60788 42.4917C7.31173 40.1352 7.09844 44.7762 7.18487 46.0751C7.45474 50.1309 8.39532 53.9532 10.8245 57.2803C11.4373 58.1196 12.3568 59.2977 13.5542 59.1921C15.3139 59.0368 15.9278 56.9325 16.1101 55.5013C16.4319 52.9761 16.1916 50.3482 16.0692 47.8183C15.9132 44.5948 15.7306 41.3408 15.0162 38.1825C14.6906 36.743 12.8059 30.618 10.5229 33.362C8.40794 35.904 8.80151 40.0155 9.15292 43.0438C9.39464 45.1269 9.94096 47.0933 10.7171 49.04C11.4879 50.9731 12.4345 53.016 14.3619 54.0496C17.6828 55.8305 17.962 49.8411 18.0679 47.9972C18.2061 45.5911 18.1393 43.1564 17.9759 40.7537C17.8035 38.2182 17.5294 35.6025 16.3759 33.2956C15.8647 32.273 14.8463 30.3157 13.4111 30.4329C11.8935 30.5569 10.9657 32.6129 10.5076 33.7863C9.77268 35.6683 9.5151 37.7064 9.56698 39.716C9.65099 42.9701 10.2188 46.142 11.7651 49.0298C12.4628 50.3329 13.2816 51.5888 14.4897 52.47C15.1913 52.9819 16.5664 53.9855 17.521 53.6815C18.5139 53.3654 18.9006 51.8354 19.1056 50.9825C19.705 48.4892 19.7405 45.5446 19.2692 43.0489C18.7253 40.1687 17.9089 37.5542 16.8053 34.824C16.3429 33.68 15.1164 30.4091 13.6207 29.4361C12.2709 28.5582 11.8071 32.1459 11.7395 32.6975C11.1826 37.2459 12.2944 41.5447 14.2187 45.6457C14.476 46.1941 17.536 52.5538 18.7171 51.2483C19.5158 50.3656 19.2801 48.3547 19.2692 47.3071C19.2368 44.1811 18.8027 41.0751 18.2775 37.9984C18.1496 37.2488 17.5449 31.3543 15.6296 31.8234C14.8351 32.0179 14.7483 33.313 14.7095 33.909C14.5603 36.1968 14.8456 38.5229 15.3638 40.7486C15.6936 42.1649 16.0899 43.5951 16.6878 44.925C16.925 45.4527 17.3123 46.0643 17.1427 45.0425C16.9034 43.6005 16.486 42.1673 16.0692 40.7691C15.7782 39.7926 15.4286 37.788 14.2852 37.3697C12.2758 36.6346 12.9838 44.0989 13.0993 44.8483C13.4386 47.0509 13.9944 49.3796 15.0571 51.3556C15.2911 51.7908 15.6762 52.5063 16.2379 52.6847C17.1234 52.9661 17.4889 51.4379 17.5925 50.9416C18.1485 48.2781 17.7293 45.384 17.5005 42.7116C17.222 39.4579 16.9316 36.2 16.5344 32.9582C16.2856 30.9274 15.7692 28.9028 15.6807 26.8547C15.6339 25.7712 15.9294 24.7203 16.5088 23.808C16.5766 23.7013 17.5849 22.1279 17.7306 22.1927C17.9008 22.2683 17.8104 22.5586 17.8175 22.7448C17.8573 23.7975 17.8598 25.5997 17.8635 26.5071C17.8738 29.0631 17.718 31.6804 18.0322 34.2259C18.3275 36.6195 18.7881 39.0233 19.6219 41.2905C19.6397 41.3388 20.9312 44.4701 21.1555 44.0355C21.4489 43.467 21.0929 42.1785 21.0277 41.6227C20.8027 39.7055 20.5922 37.7821 20.312 35.8719C20.048 34.0718 19.8321 32.0029 19.075 30.3205C18.8814 29.8903 18.8517 30.4903 18.8398 30.6323C18.7473 31.7432 18.7952 32.8745 18.9216 33.9806C19.1971 36.3906 19.6335 38.8102 20.3632 41.1269C20.6551 42.0539 20.9923 42.9693 21.3651 43.8668C21.5569 44.3288 21.7551 45.1463 22.1165 45.5077C22.2087 45.5999 22.0921 45.2478 22.0705 45.1192C21.9275 44.2689 21.9071 44.1321 21.7638 43.1512C21.4626 41.0891 21.3176 38.8923 20.6494 36.9045C20.5354 36.5653 20.2157 35.9178 19.9849 36.5978C19.447 38.1821 19.4706 40.1664 19.5095 41.817C19.5561 43.7945 19.92 45.7799 20.266 47.7211C20.5265 49.1824 20.7198 50.8165 21.3242 52.194C21.3317 52.2112 21.8426 53.2909 22.0245 52.8432C22.3423 52.0608 21.7486 50.4412 21.6002 49.6943C21.1977 47.6681 20.794 45.6282 20.2609 43.6317C20.0341 42.7823 19.6141 40.2258 18.2929 40.2425C17.4381 40.2534 17.2059 41.3797 17.0609 42.0112C16.595 44.0415 16.6696 46.2057 16.8973 48.263C17.107 50.1574 17.5624 52.0264 18.3593 53.7633C18.6672 54.4343 19.1987 55.6542 20.1076 55.7058C20.8987 55.7508 21.468 55.0554 21.6718 54.3665C22.2055 52.5627 21.5381 50.4067 20.9357 48.7128C20.3649 47.1081 18.1112 42.8358 16.0386 45.2163C13.9677 47.5949 14.8489 51.1259 15.8903 53.7633C16.5102 55.3331 18.4355 57.9678 20.4807 57.1934C23.5918 56.0154 21.6061 51.2978 20.7108 49.3876C20.0958 48.0755 19.2886 46.3992 17.9606 45.6457C16.734 44.9498 15.2729 45.173 14.1472 45.9371C11.677 47.6139 11.1134 50.4764 12.7056 52.9557C14.2604 55.3765 17.8096 57.081 20.6699 56.6975C24.5406 56.1786 26.7804 52.56 26.1242 48.81C25.7444 46.6395 24.3886 43.0788 21.5287 43.9282C18.7945 44.7402 18.8355 47.7241 19.5862 49.9448C20.0705 51.3778 20.7713 52.8267 21.7536 53.9882C22.6121 55.0034 23.9154 56.2441 25.2705 56.5186C26.4322 56.7539 27.374 55.82 27.7037 54.7908C28.4089 52.5902 27.4556 49.6967 26.7529 47.6189C26.1964 45.9732 25.4442 44.3217 24.013 43.2534C22.6252 42.2174 20.6211 41.5175 18.8807 41.7812C14.6448 42.423 13.9953 47.1834 15.3638 50.5633C16.6267 53.6824 19.5697 56.316 23.1133 56.1863C24.4447 56.1376 25.7123 55.4559 26.5485 54.4279C27.9349 52.7232 27.6003 50.3423 27.2232 48.3499C26.8187 46.2127 26.1934 43.9684 24.9894 42.1288C24.1426 40.8351 22.1983 38.752 20.4041 39.6445C17.9582 40.8611 18.0064 44.5857 18.3593 46.8112C18.9209 50.3529 20.8458 54.3512 23.3791 56.9275C24.1579 57.7195 25.5366 58.5465 26.6149 57.7505C28.1371 56.627 27.2769 53.7708 26.9319 52.3525C26.2694 49.6289 25.2294 47.1099 23.3894 44.9659C22.9171 44.4155 22.0654 43.4225 21.2475 43.1972C20.2446 42.9209 19.7695 44.2336 19.6475 44.9505C19.3258 46.8403 20.2321 48.9842 21.0379 50.6349C21.6514 51.8915 22.6129 53.6137 24.1459 53.8911C26.7119 54.3554 24.2022 48.8106 23.8699 47.9461C23.3952 46.7113 22.8332 45.4166 22.0092 44.3678C21.5618 43.7984 21.1214 43.9075 21.0481 44.6438C20.9319 45.812 21.6978 47.1823 22.1523 48.1914C22.8112 49.6544 23.5698 51.8157 25.0507 52.6796C28.0097 54.4057 26.388 47.4847 26.1497 46.5761C25.8127 45.2906 25.432 43.926 24.7287 42.7831C24.0731 41.7179 24.399 43.5252 24.4475 43.7492C25.082 46.6791 26.5734 50.0208 28.7108 52.1582C29.1727 52.6202 29.9123 53.0538 30.1881 52.1633C30.8026 50.1792 29.6609 47.4238 29.0839 45.5639C28.7218 44.3965 28.339 42.7613 27.3868 41.8834C26.572 41.1322 26.3679 42.4837 26.3951 43.008C26.4794 44.6311 27.0021 46.2743 27.5453 47.7927C28.1766 49.5577 28.9788 51.4331 30.3005 52.8023C30.3755 52.8799 31.5438 54.0122 31.6603 53.3033C31.8705 52.0236 30.8837 50.139 30.4641 49.0195C30.2027 48.3219 27.6914 40.6587 25.6999 43.0847C25.0122 43.9224 25.4203 45.6835 25.5721 46.5914C26.0067 49.1901 26.9776 51.6577 28.4194 53.8656C29.0006 54.7556 30.0881 56.2736 31.3229 56.309C32.7068 56.3487 31.1729 52.1402 31.0367 51.7186C30.4711 49.9685 29.7768 48.2311 28.9204 46.6017C28.2765 45.3766 27.4825 43.8605 26.2878 43.0745C25.4539 42.5259 24.934 43.1763 24.6724 43.9435C24.0473 45.7773 24.6394 47.9455 25.1887 49.7148C25.8033 51.6943 26.6748 53.6869 28.0207 55.2866C28.6505 56.0352 30.562 58.0286 31.6603 56.8509C32.5762 55.8687 32.4 53.8879 32.2839 52.6949C32.0193 49.9759 31.4076 47.1287 30.5868 44.5211C30.1998 43.2917 28.65 39.9165 27.1414 41.9243C26.5318 42.7357 26.3341 43.9377 26.2929 44.9199C26.1872 47.4376 27.0551 49.9346 28.2354 52.1224C28.8545 53.27 32.8516 59.1892 33.8584 55.1742C34.2316 53.6859 33.8257 52.145 33.3165 50.7473C32.5318 48.5932 31.5394 45.6466 29.4111 44.4394C26.6104 42.8507 25.2163 45.9852 25.4034 48.355C25.6949 52.0464 28.3311 56.339 31.9159 57.6381C32.9479 58.0121 33.8776 57.8929 34.482 56.902C35.5725 55.114 35.1663 52.9267 34.528 51.0694C34.0049 49.547 33.2611 48.0646 32.0232 46.9953C30.504 45.6828 28.7484 45.597 27.6628 47.4758C25.5954 51.0541 26.794 55.957 30.3823 58.1084C31.3858 58.71 33.0446 59.2934 34.2162 58.8036C35.4945 58.2691 35.968 56.1987 36.0565 54.9953C36.1766 53.3613 35.7602 51.5638 35.0494 50.0981C34.6929 49.3631 34.3139 48.6867 33.5568 48.2937C32.5588 47.7756 31.1767 48.1235 30.5766 49.1116C29.5398 50.8187 31.1198 53.0835 32.2124 54.3052C33.2474 55.4625 34.9806 56.2466 36.5472 55.8183C37.7366 55.493 37.835 54.1026 37.8609 53.0783C37.9007 51.5074 37.6349 49.8814 36.9766 48.447C36.1193 46.579 33.5953 43.9233 31.7421 46.4023C31.1153 47.2407 31.1514 48.2444 31.4354 49.2036C31.7688 50.3299 32.419 52.2166 33.3779 52.9863C34.994 54.2836 36.3327 49.3282 36.4347 48.6719C36.6442 47.325 36.2755 44.6575 34.3951 44.6387C33.5785 44.6305 32.7468 45.0628 32.2482 45.702C31.5855 46.5512 31.8228 47.7266 32.0692 48.6822C32.4811 50.2788 33.2301 51.727 34.3645 52.9301C35.4109 54.0399 37.3456 55.7811 39.0418 55.5934C40.4573 55.4366 41.0181 53.4454 41.1887 52.3218C41.5026 50.2552 40.9001 47.797 39.7063 46.0802C39.0882 45.1913 38.1144 44.6234 37.0175 44.9914C35.0284 45.6588 35.042 48.2552 35.3817 49.9397C35.6593 51.3162 36.381 52.536 37.4571 53.4362C38.1912 54.0502 39.5518 55.0182 40.606 54.7141C41.5933 54.4293 41.8752 52.8768 41.976 52.0457C42.1767 50.3893 41.564 48.6982 40.7951 47.2611C40.4215 46.5626 39.7089 45.1501 38.7299 45.1397C37.4967 45.1265 36.6057 46.6681 36.3938 47.7007C35.7644 50.7681 37.6461 54.3792 40.2022 56.0074C40.4564 56.1694 41.821 57.0807 42.0935 56.4266C42.5147 55.4158 41.9147 53.6247 41.5721 52.6898C41.3572 52.1034 39.4412 47.4465 38.2699 48.4266C37.6946 48.9079 38.2546 50.5018 38.3619 50.8138C38.7813 52.0335 39.5351 53.2522 40.422 54.1927C41.1093 54.9216 42.1688 55.5599 43.213 55.4707C44.962 55.3213 45.0648 53.0491 45.0891 51.7493C45.1199 50.0981 44.9243 48.3676 44.2558 46.8419C43.768 45.7284 42.6518 43.614 41.2399 43.4579C40.1629 43.3388 39.4645 44.6825 39.2156 45.5026C38.6192 47.4676 38.8914 49.7072 39.4814 51.6368C39.9592 53.1996 40.7946 54.6771 42.0782 55.716C43.0618 56.5121 45.0522 57.7559 46.1268 56.4266C47.2123 55.0837 47.1418 52.9188 47.006 51.3148C46.8094 48.9918 46.1184 46.4611 44.4399 44.7461C43.6968 43.9868 42.7602 43.7526 42.0475 44.6949C40.4266 46.8382 41.1667 49.6878 42.0271 51.9588C42.8348 54.0908 43.9012 56.0989 45.9887 57.1934C46.7945 57.6158 48.2308 58.1819 48.7798 57.0758C49.6195 55.3839 49.2517 52.9053 48.9332 51.1461C48.5797 49.1937 47.9746 46.4003 46.5255 44.8994C45.9205 44.2728 45.2131 44.7779 44.9408 45.4515C44.2211 47.2322 45.3862 49.8787 46.2086 51.4068C46.9546 52.7931 48.0212 54.0651 49.5159 54.663C50.9143 55.2224 52.8801 55.2689 53.406 53.5282C53.8788 51.9635 53.5818 49.7911 52.9255 48.3243C51.9346 46.1097 49.0077 43.8173 46.413 44.8892C43.2826 46.1824 45.2569 50.9461 46.3517 52.8432C47.1955 54.3054 49.0474 56.831 51.0648 56.6464C53.3814 56.4344 52.9405 53.0253 52.7364 51.5192C52.3458 48.6375 51.3263 45.6951 48.9178 43.8975C48.2682 43.4127 46.8751 42.5234 46.0348 43.1614C44.8378 44.0702 45.2427 46.8288 45.5236 48.0074C46.021 50.0949 47.362 51.8072 48.8616 53.2879C49.7622 54.1772 51.0146 55.4476 52.4296 55.21C56.3574 54.5503 54.5715 48.0975 53.7434 45.8604C53.2353 44.4881 52.4646 42.444 50.983 41.8016C49.285 41.0654 48.7216 42.8715 48.7031 44.1684C48.6652 46.8337 49.4475 49.6811 50.8961 51.9231C51.8269 53.3636 53.8475 55.4911 55.7779 55.4911C56.7363 55.4911 57.2589 54.4686 57.3728 53.6509C57.6081 51.9606 56.8107 50.1184 56.1971 48.6004C55.3404 46.4811 54.3541 44.3057 52.9459 42.4866C52.3879 41.7657 50.4505 39.4623 49.2757 40.1301C48.2603 40.7072 48.428 43.0076 48.4731 43.9282C48.5904 46.3226 49.3716 48.7228 50.4514 50.8496C51.4124 52.7425 52.7176 54.5433 54.3261 55.941C55.4444 56.9126 57.1234 57.8971 58.5025 56.8049C59.8984 55.6993 59.1566 53.5763 58.7785 52.1787C58.1009 49.6734 57.118 47.3334 55.737 45.1346C54.7965 43.6371 53.7551 42.2009 52.1025 41.4438C50.5834 40.7479 48.9206 40.7967 48.1306 42.4662C47.4427 43.92 47.4209 45.7725 47.5887 47.3326C47.8781 50.0225 48.9043 52.4985 50.7632 54.479C51.998 55.7945 53.591 57.0159 55.4303 57.2751C57.7889 57.6076 58.8695 55.7212 59.1415 53.6304C59.4548 51.2214 58.9718 48.7068 58.3338 46.3921C57.7569 44.2988 56.9719 42.2084 55.7472 40.401C54.928 39.192 53.5461 37.2446 51.9236 37.0374C50.4858 36.8539 49.0506 38.7348 48.5856 39.8643C47.8356 41.6855 47.8118 43.9359 47.967 45.8655C48.1483 48.1193 49.0628 50.1592 50.3082 52.0253C52.1137 54.7305 55.4318 56.8485 58.7683 55.6547C62.862 54.19 62.1223 48.4578 61.7332 45.063C61.5282 43.2749 61.2193 41.5915 60.2916 40.0278C59.3397 38.4234 58.0184 36.6413 56.4118 35.6266C55.1851 34.8518 53.5424 34.6171 52.1383 34.9825C49.8983 35.5654 49.2399 38.2283 48.8054 40.1812C48.1711 43.0315 48.3373 45.7527 48.9996 48.585C49.6296 51.2789 50.5448 53.8323 52.5574 55.7978C53.3392 56.5613 54.7331 57.9022 55.9824 57.6688C57.6216 57.3625 58.3886 54.8037 58.7734 53.5077C59.601 50.7206 59.7582 47.6759 59.7549 44.787C59.7516 41.8673 59.2808 39.2455 57.9198 36.6489C57.3232 35.5109 56.5541 33.9624 55.2207 33.5307C53.5604 32.9932 52.1807 34.162 51.4942 35.5857C49.4717 39.7797 49.8617 45.2465 52.2252 49.2138C52.727 50.0561 53.9249 51.6891 55.1389 51.4528C56.4514 51.1973 56.9829 48.6251 57.2399 47.6547C57.7667 45.6651 58.0442 43.5821 57.7664 41.5307C57.681 40.9 56.6541 35.279 55.0929 36.4649C54.3208 37.0514 53.8995 38.8464 53.815 39.5729C53.6178 41.267 53.8036 43.3319 54.3568 44.9505C54.5227 45.436 55.3419 47.3123 56.2993 47.4042C57.5968 47.5287 57.2784 44.4378 57.245 44.0202C57.1197 42.4539 56.7939 40.1372 55.2923 39.2202C53.5741 38.1709 53.5512 41.9099 53.5696 42.6911C53.6048 44.1887 53.9963 45.7856 54.7964 47.0668C55.1371 47.6123 55.8048 48.1246 56.0233 47.1793C56.2693 46.1149 55.9974 44.9251 55.6552 43.9179C55.2608 42.7572 54.6789 40.7262 53.5849 40.0023C52.902 39.5504 52.2876 40.7433 52.0769 41.1729C51.2143 42.9317 51.2013 45.0275 51.1261 46.9441C51.1055 47.47 50.959 48.8706 51.3408 48.5084C51.7583 48.1123 51.4453 46.7605 51.3408 46.2949C51.1203 45.3124 50.4938 43.7331 49.2501 44.4087C47.8489 45.1698 46.4348 46.8564 45.9632 48.3959C45.7746 49.0117 46.4502 48.2037 46.4744 48.171C46.9694 47.5025 47.4893 46.6871 47.6961 45.8707C48.1814 43.9551 46.0129 45.1862 45.268 45.6355C44.5376 46.0761 43.927 46.6324 43.3255 47.2304C42.9576 47.5962 41.7691 48.459 42.2827 48.3857C42.6665 48.3308 43.1659 47.6517 43.4073 47.4042C44.4409 46.3441 45.5011 45.2941 46.7044 44.424C47.4613 43.8767 48.3103 43.4547 49.1172 42.9876C49.1387 42.9751 50.2804 42.3522 50.1753 42.4764C48.5552 44.3911 44.5792 46.618 46.0654 49.6943C47.4157 52.4893 51.5119 52.0039 53.8865 51.0541C55.0036 50.6072 56.0292 49.7224 56.4118 48.5493C56.7323 47.5661 56.4351 45.8729 55.4252 45.339C54.5809 44.8927 54.4397 46.6402 54.4079 47.0106C54.2265 49.1231 54.9052 51.0406 55.921 52.8636C56.5831 54.0519 57.5747 56.1966 58.9575 56.7589C60.2406 57.2806 61.4648 56.0323 61.7587 54.9033C62.0816 53.663 62.0544 50.4204 60.6239 49.6892C60.1319 49.4377 60.2393 50.0833 60.3019 50.3435C60.5578 51.4083 61.0408 52.6009 61.6667 53.5077C61.9305 53.8899 62.1965 53.7546 62.2086 53.3033C62.2333 52.3742 61.6908 51.2714 61.222 50.4969C61.0304 50.1804 60.7213 49.817 60.3121 49.817C59.8375 49.817 60.1521 50.3781 60.399 50.4815C61.2824 50.8516 62.2607 45.059 62.413 44.4598C63.3605 40.7328 64.5503 37.1729 64.8821 33.316C64.9806 32.1703 65.0492 31.0257 65.0661 29.8758C65.068 29.748 65.0766 29.1095 65.0661 28.8943C65.0531 28.6281 64.9848 29.4214 64.9587 29.6866C64.5304 34.0373 64.1495 38.4219 63.4303 42.7371C63.3709 43.0935 63.4158 42.0147 63.4099 41.6534C63.3876 40.3068 63.3202 38.9612 63.2821 37.6151C63.2511 36.5222 63.2816 35.413 63.1798 34.323C63.1104 33.5795 63.0158 33.655 62.914 34.4099C62.3147 38.8545 61.8956 43.389 61.7434 47.8694C61.6499 50.6223 61.8036 47.6561 61.815 47.1179C61.8957 43.275 62.1451 39.4553 62.5868 35.6368C62.9543 32.4603 63.6265 29.2754 63.7626 26.0777C63.8074 25.0242 63.8527 24.2914 63.006 26.0061C61.0447 29.9782 59.5322 34.2003 58.7836 38.571C58.4893 40.2894 58.2744 42.0288 58.3747 43.7748C58.3963 44.1501 58.3162 44.5936 58.5485 44.8892C58.8836 45.3157 58.9849 43.891 59.121 43.3659C60.4635 38.1864 61.213 32.8416 61.9581 27.5499C62.2239 25.6619 62.4847 23.7463 62.3619 21.8349C62.3165 21.1273 62.2725 19.7115 61.2066 20.3013C59.9983 20.97 59.1445 22.3644 58.4974 23.5218C56.2417 27.5561 54.6006 32.0969 53.7536 36.6387C53.3183 38.973 52.7953 41.8568 53.3958 44.2247C53.8844 46.1512 54.6726 44.2679 54.914 43.4579C55.8084 40.4569 56.5335 37.3978 57.3268 34.3691C58.2186 30.964 59.3259 27.5005 59.7958 24.0023C59.905 23.1894 60.263 20.9231 59.3357 20.332C58.2085 19.6134 56.2711 22.6344 55.921 23.1741C53.9488 26.215 52.8039 29.8445 51.8009 33.2956C51.109 35.6764 50.0956 38.7601 50.5383 41.3007C50.576 41.5174 50.6798 42.1208 50.9677 41.5818C51.2719 41.0121 51.4759 39.7903 51.5658 39.2713C52.0182 36.6591 52.1383 34.0093 52.036 31.3633C51.9635 29.4865 51.8999 27.5328 51.5044 25.6892C51.3948 25.1781 50.8759 23.6975 50.5843 25.0451C50.1388 27.1035 50.2391 29.3731 50.3594 31.4553C50.5002 33.8943 50.7363 36.4644 51.4431 38.8163C51.4797 38.9383 52.1436 40.5783 52.2405 39.44C52.4193 37.3389 51.901 34.9788 51.6373 32.9071C51.3701 30.8074 51.0023 28.7306 50.4718 26.6809C50.412 26.4497 50.2119 25.7229 50.0935 25.4234C49.9695 25.1095 49.9133 25.2538 49.8993 25.5051C49.8164 26.9974 49.9788 28.5415 50.0987 30.024C50.333 32.9221 50.7493 35.7804 51.3102 38.6323C51.5549 39.8767 51.7985 41.1264 52.0769 42.3639C52.328 43.4797 51.655 40.1159 51.4533 38.9901C50.8603 35.6801 50.4171 32.3495 50.0118 29.0119C49.7298 26.6907 49.8123 27.2633 49.5824 25.3109C49.5532 25.0636 49.5246 24.8163 49.4903 24.5697C49.4694 24.419 49.5279 24.1849 49.3881 24.1249C49.2701 24.0744 49.3497 24.38 49.3523 24.5083C49.3642 25.0944 49.4109 25.7779 49.4546 26.3435C49.6462 28.8246 49.9779 31.2805 50.4411 33.725C50.9446 36.3815 50.058 32.2862 50.0526 32.263C49.7158 30.8084 49.4684 29.7341 49.0916 28.286C48.831 27.2843 48.5991 25.7625 48.0795 24.815C47.955 24.588 48.1263 25.3311 48.1664 25.5869C48.3014 26.4478 48.3664 26.8455 48.5242 27.7492C48.8259 29.4769 49.1681 31.193 49.5619 32.902C49.7869 33.8784 49.9352 34.9484 50.2673 35.8975C50.6129 36.8848 49.9175 33.8349 49.7357 32.8048C49.3955 30.877 49.0408 28.9518 48.7338 27.0182C48.4996 25.5431 48.0678 23.8066 48.3504 22.3051C48.4149 21.9623 48.6669 21.4982 49.0661 21.4566C50.0418 21.3549 49.9984 24.838 50.0322 25.3109C50.1518 26.9819 50.2192 28.6578 50.3082 30.3307C50.3199 30.5505 50.3294 30.7705 50.344 30.9901C50.3498 31.0773 50.2829 31.2617 50.3696 31.2508C50.4611 31.2394 50.4108 31.0709 50.4258 30.9799C50.4687 30.7198 50.5026 30.4583 50.5434 30.1978C51.22 25.8718 52.3732 21.6663 54.2852 17.7147C54.3981 17.4814 54.6198 17.0297 54.7555 16.769C54.8917 16.5075 54.8121 16.6892 54.7249 16.9275C53.8171 19.4056 53.0402 21.9229 52.4757 24.5032C52.3082 25.2684 51.9443 26.058 52.1076 26.824C52.2122 27.3144 52.6825 25.9948 52.8846 25.5358C54.4484 21.9838 55.8368 18.3794 57.5415 14.8879C57.7806 14.3981 58.4954 12.99 58.7581 12.3422C58.8229 12.1824 58.9369 11.7378 58.7888 11.8259C58.4954 12.0003 58.1617 12.6716 58.0731 12.838C57.5386 13.8428 57.0487 14.978 56.6162 16.0176C55.6439 18.3549 54.8481 20.7082 54.4539 23.215C54.4048 23.5275 53.8186 27.8004 55.052 25.6789C56.2129 23.6823 56.9661 21.3967 57.7511 19.238C58.6977 16.6348 59.6293 14.0139 60.4603 11.3709C60.5634 11.0432 60.7432 10.4594 60.8386 10.0777C60.9119 9.78432 60.8498 9.93593 60.7773 10.139C59.9834 12.3618 59.4132 14.7018 59.0392 17.0297C58.6112 19.6949 58.3751 22.4261 58.436 25.1269C58.4451 25.528 58.4734 25.9288 58.5127 26.3281C58.5382 26.5872 58.4785 26.8886 58.6303 27.1C58.6993 27.1961 58.8661 26.9974 58.9166 26.8904C59.163 26.3685 59.33 25.8116 59.4993 25.2598C60.5415 21.8618 61.2143 18.372 62.1677 14.9543C62.2512 14.655 62.1309 15.5749 62.1063 15.8847C61.9422 17.9542 61.8568 20.0245 61.8354 22.1007C61.8211 23.493 61.8164 24.897 61.9274 26.2873C61.9628 26.7306 62.0269 27.6259 62.2955 28.0917C62.5436 28.5222 62.7229 28.2959 62.9293 27.9537C63.6118 26.8225 63.8859 25.3221 64.2329 24.0738C64.8673 21.7912 65.4752 19.5008 66.0936 17.2138C66.1836 16.8807 66.7975 14.0789 66.6099 16.084C66.4096 18.2242 66.1995 20.3606 66.114 22.5096C66.0798 23.3701 65.7176 25.6459 66.3236 26.4764C66.8391 27.1829 66.8331 24.7911 66.9166 23.9205C67.1583 21.3995 67.5448 18.7797 67.4226 16.2425C67.3684 15.1157 67.107 15.9237 66.9523 16.539C66.2921 19.1662 65.7661 21.8324 65.2092 24.4828C64.8101 26.3823 64.4608 28.2975 64.0182 30.1876C63.9236 30.5912 63.3737 32.854 63.3638 31.0668C63.3532 29.1466 63.5421 27.2329 63.691 25.3211C63.6994 25.2134 64.1027 21.7255 63.2718 22.0598C62.8148 22.2436 62.074 23.5766 61.9734 23.7569C61.4138 24.7598 60.6242 26.4716 60.1843 27.509C59.1921 29.849 58.5456 32.2919 57.6693 34.6707C57.039 36.3815 57.5062 33.6934 57.5108 33.6534C57.8451 30.7206 58.2968 27.7531 58.3849 24.7997C58.387 24.7314 58.435 22.3249 57.976 23.4604C57.233 25.2982 56.8651 27.3961 56.6009 29.3492C56.5221 29.9321 56.2985 32.2896 56.9434 30.1365C57.4686 28.3828 57.7903 26.5518 58.0578 24.7435C58.2318 23.5666 58.7484 21.6076 58.2622 20.4342C58.1203 20.0915 57.9106 20.3589 57.792 20.5262C57.2783 21.2508 57.1431 22.2842 57.0354 23.1333C56.9718 23.6346 56.8682 24.9626 56.9127 25.5051C56.9372 25.8029 57.2084 26.4481 57.4239 26.2412C58.2076 25.4888 59.4817 22.2862 59.6015 21.9882C60.6032 19.4981 62.0131 15.5044 62.7095 12.8789C62.933 12.0365 63.1282 11.1774 63.1849 10.3077C63.2016 10.0527 63.1675 9.66488 62.9242 9.58691C62.674 9.50671 62.4621 9.84352 62.2597 10.0112C61.9823 10.241 61.7297 10.5014 61.4929 10.7729C59.5375 13.0145 58.6055 15.4919 58.1498 18.4099C58.0307 19.1726 57.1685 22.6443 58.8143 22.755C59.9602 22.832 60.8321 21.5437 61.2987 20.6898C62.3153 18.829 62.8937 16.6556 63.1491 14.5607C63.3497 12.9164 63.7225 9.60879 61.9734 8.55432C60.7125 7.79411 59.1957 8.37326 58.1089 9.12685C55.7524 10.7608 53.5668 13.1639 52.5421 15.8693C51.8066 17.8113 51.2891 20.2736 51.714 22.346C52.069 24.0778 53.5928 25.5256 55.3792 24.6259C59.1803 22.7115 60.2667 17.5107 60.4092 13.6559C60.4816 11.6985 60.3448 9.23799 59.121 7.5933C57.7722 5.78055 54.9489 6.52967 53.2629 7.33771C48.5 9.62029 45.2174 15.1227 44.7057 20.2706C44.5194 22.1449 44.7978 24.3096 46.0143 25.8323C47.2081 27.3266 49.4065 27.346 50.9574 26.4355C52.7613 25.3765 54.3051 23.4171 55.3638 21.6559C56.8281 19.2203 57.8311 16.3673 58.2827 13.5639C58.5836 11.6958 58.3808 9.90659 57.4648 8.23228C56.4355 6.35095 54.7271 5.69895 52.6392 5.68148C50.6896 5.66516 48.7543 6.5942 47.1798 7.67509C44.5554 9.47672 42.6535 12.6009 42.5689 15.8285C42.5181 17.7687 43.3871 21.4211 45.7843 21.8093C46.8314 21.9789 47.8631 21.3412 48.6929 20.8585C50.2893 19.9299 51.6375 18.7666 52.721 17.2649C54.1784 15.2451 55.8003 12.4857 55.6245 9.8834C55.3407 5.67942 51.4811 3.76253 47.6399 3.94346C44.9113 4.07197 42.4428 5.57753 40.9229 7.79777C39.8846 9.31456 39.1695 11.6461 40.2379 13.339C40.9629 14.4877 42.5336 14.5626 43.7447 14.484C45.9244 14.3426 47.7827 13.406 49.2757 11.8259C50.5465 10.4809 51.8152 8.76589 51.8111 6.82653C51.8074 5.07385 51.0011 3.31981 49.3114 2.67061C44.6099 0.864223 39.9017 3.26142 36.5063 6.47892C35.4464 7.48334 32.6461 9.96143 33.7715 11.7901C34.576 13.0975 36.3458 13.9078 37.8354 13.9831C40.8365 14.1349 45.1633 11.7096 45.6514 8.48276C45.7978 7.51439 44.9347 6.6803 44.2814 6.10576C43.1468 5.10794 41.8365 4.68316 40.4015 4.31151C37.6467 3.59803 34.7824 3.67885 31.9977 3.17668C30.2302 2.85796 28.553 3.30959 26.7989 3.30959C26.1411 3.30959 25.508 3.35302 24.8565 3.44761C23.6708 3.61972 22.125 3.72862 21.1299 4.43419C20.0739 5.18303 21.4952 5.80148 22.1881 6.00863C24.638 6.74109 27.2446 6.02945 29.7178 5.85528C32.1654 5.68292 34.6119 6.11984 37.0686 5.97796C38.1088 5.91789 39.1101 5.72209 40.1255 5.49745C40.9753 5.30943 43.5365 4.89426 42.6661 4.89426C41.8681 4.89426 40.9202 5.18479 40.1459 5.3032C37.1183 5.76625 34.0808 6.13319 31.0367 6.4687C29.1151 6.68048 27.1904 6.87598 25.291 7.2457C24.3744 7.4241 23.0926 7.59528 22.3108 8.17605C21.9048 8.4776 23.0056 8.75144 23.0826 8.77413C24.2437 9.11623 25.4585 9.07941 26.6558 9.04506C30.9346 8.92231 35.1758 8.60151 39.4609 8.87126C40.8751 8.96027 42.3573 9.03372 43.7242 9.44378C44.2674 9.60675 45.5696 9.94797 44.7363 10.6348C43.9238 11.3046 42.7806 11.5492 41.7868 11.7901C39.4142 12.3653 36.9984 12.7943 34.5945 13.2163C32.6238 13.5622 30.6495 13.8521 28.6545 14.0138C27.7378 14.088 26.678 14.0482 25.8124 14.4227C24.9968 14.7755 26.5524 15.1213 26.6507 15.1384C29.9148 15.7045 33.4079 15.2299 36.6954 15.1537C37.7555 15.1291 38.6275 15.116 39.6654 15.1435C39.9647 15.1514 40.5931 14.9277 40.56 15.2253C40.5304 15.492 37.2932 15.2617 37.1095 15.2508C34.2168 15.079 31.2661 14.8462 28.4092 14.3614C27.6035 14.2246 26.1186 13.7991 25.3165 14.2336C24.9567 14.4285 24.7369 14.8122 24.3606 14.9952C24.2582 15.045 23.6191 15.1944 23.8954 15.3786C24.8228 15.9969 26.2722 15.8993 27.3357 16.0074C30.7244 16.3517 34.6585 16.1201 37.7945 17.6585C38.8434 18.1731 40.0349 18.5481 41.0354 19.1563C41.6801 19.5481 42.1911 20.1707 42.7683 20.6489C42.9802 20.8245 43.3062 21.0509 43.6015 20.9863C44.0861 20.8803 43.4644 19.6947 43.3868 19.5141C42.0267 16.3451 39.7811 13.2548 37.2629 10.916C36.1683 9.89941 34.8313 8.57598 33.3574 8.12493C32.639 7.90508 31.8281 8.23153 31.9721 9.08595C32.418 11.7315 35.764 12.9531 38.0705 12.746C40.7252 12.5077 44.8023 9.16867 41.521 6.78563C39.9812 5.66734 35.8587 4.99306 35.0494 7.49617C34.642 8.75654 35.4598 10.1551 36.2712 11.054C37.5957 12.5214 39.7457 13.3234 41.659 13.615C46.0009 14.2768 50.8765 11.4479 51.6015 6.93899C51.8709 5.26376 50.6577 4.56422 49.0865 4.68467C46.2478 4.90231 43.532 7.00365 42.3645 9.56647C40.8531 12.884 42.2504 17.3529 46.1677 18.1032C50.3437 18.9031 54.2193 13.7744 55.1236 10.3128C55.4573 9.03541 55.0602 7.7229 53.7434 7.24058C51.3514 6.36446 48.4763 8.4043 46.822 9.91407C44.4421 12.086 42.7542 17.7137 47.2974 18.4406C49.3356 18.7667 51.4864 17.7722 52.3632 15.8336C53.0566 14.3004 53.1557 12.7953 52.6341 11.1767C52.2567 10.0057 51.55 8.61925 50.0066 9.13196C47.6967 9.89935 46.5145 13.9062 47.1236 16.0176C47.7361 18.141 50.0947 17.9202 51.3919 16.6719C52.3234 15.7756 53.3397 14.4182 53.3753 13.063C53.4126 11.6461 52.4166 9.69005 50.7887 9.71471C48.4595 9.75 48.9547 14.1997 50.9626 14.617C53.4513 15.1341 54.9701 11.262 54.4795 9.37222C53.8167 6.81938 51.1766 9.62221 51.3102 11.1511C51.5534 13.9349 55.2744 10.1042 55.8188 9.48468C56.5626 8.63822 57.2628 7.7392 58.0578 6.93899C58.6963 6.29623 59.376 6.47194 60.1945 6.6834C61.3952 6.99358 62.3715 7.4456 62.9396 6.04442C63.6049 4.40324 62.2482 3.5173 60.7568 3.81055C60.1342 3.93297 57.7926 4.8663 59.5606 5.30831C59.8761 5.38718 60.4395 5.45005 60.6904 5.1703C61.1223 4.68848 59.7388 4.18559 59.4993 4.10704C58.5829 3.80642 57.5247 3.79146 56.5651 3.76965C55.9742 3.75622 57.7395 3.90654 58.3287 3.95368C59.884 4.0781 61.6285 5.09792 62.6329 6.26423C64.6949 8.6588 63.1373 12.7141 62.4028 15.3428C61.8967 17.1543 60.9734 18.835 60.3172 20.5927C60.1621 21.0081 60.1444 21.1972 60.2712 20.5876C60.6292 18.8657 61.0327 17.1544 61.4009 15.4348C61.4892 15.0226 63.0879 9.07167 61.0277 10.139C59.0944 11.1406 57.7755 13.8045 56.7389 15.6035C56.522 15.9799 54.762 18.6976 55.2207 19.1563C55.9387 19.8742 58.0533 15.0848 58.1293 14.6783C58.4533 12.9473 57.5579 11.3012 55.7575 10.9058C53.1769 10.339 50.3113 13.1967 48.8411 14.9288C47.7873 16.1704 45.8833 18.6479 46.4335 20.4649C47.049 22.4977 49.8852 18.9079 50.1549 18.4917C51.2204 16.8474 52.5581 14.3665 52.128 12.3064C51.8145 10.8044 50.1276 10.7832 49.245 11.8157C47.7933 13.5138 47.9995 16.258 49.153 18.0419C49.5667 18.6818 50.4293 19.4596 51.2181 19.6368C52.4281 19.9086 53.2524 18.9791 53.2884 17.8527C53.3409 16.2109 52.0222 15.0479 50.4718 14.9083C48.4997 14.7307 47.2574 16.1086 47.2105 18.001C47.2048 18.2284 47.5151 19.1856 47.3229 18.4713C46.9052 16.9182 46.04 15.6382 44.8846 14.5301C44.2443 13.916 43.4787 13.2409 42.6405 12.8994C42.5454 12.8606 41.9822 12.6035 42.0782 12.9352C42.451 14.2229 44.3517 15.2146 45.2884 16.0278C46.7613 17.3065 48.6256 18.5502 49.0558 20.5671C49.21 21.2897 49.2392 22.0206 49.3012 22.755C49.3119 22.8816 49.6981 25.3335 49.7357 25.3109C49.8757 25.2269 49.5382 23.4887 49.5312 23.44C49.3297 22.0256 49.1229 20.6074 48.6316 19.2585C47.9114 17.2816 47.1673 15.6086 45.0891 15.0003C45.012 14.9778 44.7375 14.8236 44.7517 15.0003C44.8372 16.0693 45.2111 17.2027 45.5133 18.2157C46.4997 21.5213 48.1944 24.5985 48.9434 27.969C49.7368 31.5394 47.136 20.7516 45.176 17.6636C44.474 16.5577 43.3898 16.0347 42.39 15.2713C41.4329 14.5404 40.3253 14.4327 39.1849 14.1671C38.9818 14.1198 37.52 13.6249 38.0092 13.9933C39.5074 15.1216 40.6877 16.5956 41.9146 17.9959C42.6023 18.7807 44.0948 19.9462 44.1434 21.0885C44.145 21.1271 43.7334 20.3727 43.7038 20.3115C43.2337 19.342 42.6833 18.4387 42.0424 17.5716C41.6513 17.0425 40.558 15.937 41.7817 16.8713C44.9429 19.2846 49.2425 20.7469 53.1402 21.3748C54.695 21.6252 56.3352 21.5599 57.8022 20.9352C59.189 20.3445 60.0126 19.0334 60.6341 17.7249C61.3572 16.2027 61.6849 14.5398 62.0194 12.8994C62.3259 11.3969 62.7893 9.78383 62.822 8.23739C62.8541 6.71718 62.1709 8.52306 62.0552 9.01439C61.3102 12.1777 61.6564 15.4814 62.1217 18.6604C62.2359 19.4413 62.5142 20.3544 62.4642 21.155C62.4575 21.2622 62.0599 22.3076 61.9837 22.1211C61.7636 21.5831 62.2359 20.3521 62.3517 19.9128C62.9786 17.5345 63.7434 15.2053 64.8207 12.9914C64.9165 12.7946 66.533 9.33801 66.8961 9.7556C67.1328 10.0278 67.1124 10.6638 67.1517 10.9876C67.3579 12.6848 67.4036 14.3713 67.2999 16.0789C67.298 16.1105 67.1478 18.1721 67.0444 16.815C66.9946 16.1623 67.2134 15.1543 66.9115 14.5505C66.7816 14.2909 66.695 14.4756 66.5434 14.6272" stroke="#D8A1FF" stroke-opacity="0.33" stroke-width="3" stroke-linecap="round"/>
</svg>
