<svg width="76" height="70" viewBox="0 0 76 70" fill="none" xmlns="http://www.w3.org/2000/svg">
<path d="M51.7577 4.57671C48.9125 1.41531 43.8403 2.03425 39.9332 2.07537C34.4122 2.13349 29.4157 4.28125 24.2683 5.92844C19.3679 7.49656 15.2527 10.4322 11.4079 13.7862C6.24019 18.2942 3.64003 25.2294 2.46369 31.864C1.39428 37.8955 2.17692 44.4377 4.78816 50.005C6.03124 52.6554 8.62489 54.8046 10.8267 56.65C13.6321 59.0011 16.6366 61.4752 19.9225 63.1181C23.0415 64.6776 26.3593 65.7617 29.6878 66.7691C33.7219 67.9899 37.6597 67.8467 41.8282 67.5144C45.3706 67.232 48.7863 66.2534 52.1115 65.0636C55.5589 63.8301 58.4555 61.0913 61.1567 58.7218C63.6606 56.5254 66.1998 54.1844 68.1049 51.4326C69.8609 48.8961 70.843 45.8506 72.0843 43.0443C73.8127 39.1365 74.2129 33.0674 73.3602 28.8574C73.0067 27.1119 72.6101 25.5168 71.819 23.9052C71.0617 22.3627 69.8589 21.0388 68.8628 19.6353C67.1308 17.1947 66.0817 14.1898 64.2644 11.8533C63.0482 10.2896 62.1888 9.10114 60.4113 8.10132C58.9061 7.25463 56.7831 6.74699 55.5729 5.53682C54.93 4.89396 54.2617 4.13065 53.4506 3.66713C52.8557 3.32723 51.0755 3.21205 51.0755 4.12192" stroke="#FF7262" stroke-width="3" stroke-linecap="round"/>
<path d="M20.3478 32.7472C20.4578 32.7335 20.4966 32.5882 20.5807 32.5193C20.781 32.3555 21.2721 32.21 21.4519 32.1395C22.795 31.6123 24.1259 31.0798 25.4427 30.4884C28.162 29.2671 30.8486 28.0331 33.5157 26.7102C36.0198 25.4682 38.3684 23.9243 40.8593 22.6484C41.9924 22.0681 43.0901 21.4065 44.2324 20.8454C45.9626 19.9955 47.8416 19.3809 49.6312 18.6677C50.7946 18.204 51.9326 17.6043 53.1258 17.2293C53.3975 17.1439 54.0386 16.8033 54.2045 16.5709C54.3841 16.3195 53.8805 17.1002 53.7639 17.3863C53.3658 18.3635 52.9472 19.3552 52.6142 20.3542C52.1943 21.6141 51.9199 22.9271 51.4798 24.1779C51.0289 25.4595 50.5452 26.7737 50.2035 28.0878C49.5685 30.5302 48.7254 32.8613 47.9295 35.2491C47.4731 36.6182 46.9947 37.97 46.5621 39.3464C46.4621 39.6643 46.0502 41.2682 45.5998 41.043" stroke="#FF7262" stroke-width="3" stroke-linecap="round"/>
<path d="M20.8036 34.2058C21.9072 34.2058 23.0193 34.503 24.0956 34.7123C24.9203 34.8726 27.3439 35.5655 26.5468 35.2998" stroke="#FF7262" stroke-width="3" stroke-linecap="round"/>
<path d="M44.7793 41.6811C44.0833 41.6402 43.4362 41.116 42.7535 40.9518C42.2696 40.8355 41.7478 40.7095 41.3202 40.4454C40.9229 40.2 40.635 39.9621 40.1857 39.8123C39.5459 39.599 38.9227 39.6681 38.2764 39.5388C37.7619 39.4359 37.9836 39.6548 38.1245 39.5844" stroke="#FF7262" stroke-width="3" stroke-linecap="round"/>
<path d="M26.8203 35.5732C26.8203 38.248 28.0331 40.8214 28.2789 43.4639C28.3309 44.0225 28.6436 44.6635 28.6436 45.1909C28.6436 45.4095 28.7277 47.1001 28.8056 47.0395C29.2556 46.6895 29.6649 45.967 30.011 45.51C30.8273 44.4318 31.8188 43.522 32.6547 42.4611C33.4443 41.4589 34.5518 40.7461 35.5668 39.9997C35.8177 39.8152 36.8613 39.3109 36.1189 39.3109" stroke="#FF7262" stroke-width="3" stroke-linecap="round"/>
<path d="M26.9115 35.0263C27.7648 35.0263 28.6402 34.426 29.4185 34.1147C30.6402 33.626 31.8183 33.0034 33.0042 32.4332C33.9084 31.9985 34.8509 31.7132 35.7036 31.1772C36.6632 30.574 37.705 30.0561 38.712 29.5363C39.6072 29.0743 40.5668 28.6849 41.3202 28.0068C41.9813 27.4118 42.8886 26.9803 43.6702 26.5634C44.2387 26.2602 43.3768 26.948 43.2245 27.1002C42.6334 27.6913 41.9545 28.1879 41.3608 28.7817C40.0733 30.0692 38.7988 31.3801 37.6282 32.7675C36.6586 33.9167 35.8239 35.2261 34.7464 36.2621C33.7438 37.2261 32.9872 38.4038 32.0166 39.4021C31.5698 39.8616 31.2275 40.3964 30.8517 40.9114C30.4644 41.4421 30.6116 41.4206 30.9226 40.8607" stroke="#FF7262" stroke-width="3" stroke-linecap="round"/>
<path d="M29.0082 36.4849C28.7655 36.5152 28.917 38.2742 28.917 38.4297C28.917 38.5182 28.9805 40.0172 29.0791 39.2704C29.1503 38.7313 28.947 38.1584 28.917 37.6194C28.906 37.4199 28.7795 37.2479 28.7145 37.5079C28.5992 37.9688 28.7497 38.651 28.8259 39.1083C28.9278 39.7197 28.9899 40.3385 29.0791 40.9518C29.1174 41.2148 29.0885 41.5278 29.2108 41.7723C29.3053 41.9613 29.5431 41.1805 29.5552 41.1342C29.5894 41.0031 29.7418 40.3145 29.7375 40.4251C29.725 40.7514 29.6336 41.0549 29.6463 41.3874C29.6588 41.71 30.2588 40.8036 30.3047 40.729C30.7883 39.9445 31.0911 39.1351 31.3582 38.2575C31.5509 37.6243 31.7894 37.0316 32.1989 36.5051C32.2547 36.4334 32.7109 35.7108 32.3407 35.9987C31.8702 36.3646 31.4516 36.9482 31.1049 37.4269C30.8369 37.797 31.0637 37.1529 31.1049 37.0521C31.5378 35.994 32.7295 35.568 33.6372 35.0263C34.0645 34.7713 34.033 34.6696 33.6575 35.0263C33.3987 35.2721 33.0515 35.5227 32.7256 35.6644C32.6659 35.6904 31.8665 36.05 31.8748 36.0088C31.9003 35.8812 32.2488 35.724 32.3407 35.6543C32.6549 35.4159 32.9452 35.1575 33.2726 34.9351C33.8495 34.5434 34.5162 34.2654 35.0756 33.8614C35.251 33.7347 35.5325 33.5728 35.6428 33.3854C35.7053 33.2791 35.828 33.2174 35.6631 33.3145C35.3391 33.505 35.029 33.7646 34.7109 33.9728C33.7477 34.6033 32.657 35.1575 31.581 35.5733C31.0099 35.7939 30.5013 36.149 29.9401 36.3735C29.6173 36.5026 29.6527 36.928 29.8287 36.576" stroke="#FF7262" stroke-width="3" stroke-linecap="round"/>
<path d="M18.9804 13.6031C19.0134 13.5135 19.1111 13.0332 18.874 13.1878C18.1991 13.6279 17.5967 14.4692 17.1166 15.082C16.431 15.957 15.8251 16.8856 15.2782 17.8523C14.6548 18.9541 14.0977 20.1231 13.774 21.3519C13.7059 21.6104 13.5116 22.8502 14.2197 22.4357C14.8628 22.0592 15.2917 21.0008 15.6023 20.3744C16.1069 19.3568 16.7278 18.1373 16.7671 16.9761C16.7754 16.7317 16.6652 16.2152 16.3164 16.2367C15.5632 16.283 14.764 17.9091 14.4526 18.4145C13.6203 19.7653 12.8704 21.1864 12.4065 22.7092C12.288 23.0984 11.4979 25.5769 12.4116 25.7075C13.2342 25.825 14.1618 24.503 14.564 23.9754C15.7606 22.406 16.7589 20.5594 17.3293 18.6677C17.4957 18.1158 17.9553 16.7584 17.0204 16.6115C15.7496 16.4118 14.5538 17.5742 13.7487 18.3739C11.8786 20.2314 10.61 22.3751 9.6666 24.8262C8.79903 27.0803 8.11116 29.5732 8.58278 32.0027C8.78783 33.0591 9.37548 33.9428 10.5833 33.7095C12.5303 33.3334 13.9933 31.1901 14.9388 29.6274C16.0999 27.7086 17.0447 25.6073 17.6585 23.4487C17.9938 22.2695 18.7073 19.82 17.2381 19.0627C16.1068 18.4795 14.6988 19.3347 13.8246 20.0047C11.3985 21.8643 9.61711 24.5706 8.45616 27.3686C7.87952 28.7584 7.44768 30.2288 7.29637 31.7292C7.21429 32.5432 7.16802 33.5819 7.65596 34.3071C8.92631 36.1952 11.7346 34.2174 12.8826 33.2841C15.6397 31.0426 17.7863 28.0451 19.7451 25.1149C21.4143 22.6179 23.3571 19.8645 24.207 16.9407C24.4082 16.2487 24.787 14.8829 23.8322 14.5249C22.2225 13.9212 20.3119 15.7615 19.2944 16.7128C18.0639 17.8631 12.5379 23.9313 16.8684 24.8212C19.0948 25.2786 21.553 23.6216 23.3207 22.5168C26.3085 20.6494 29.1144 18.4699 31.6975 16.0746C32.4695 15.3588 33.0357 14.807 33.7335 14.0235C34.3558 13.3247 35.2744 12.3766 35.4504 11.3949C35.8019 9.43446 32.1893 10.633 31.5304 10.9087C28.625 12.1247 25.9512 13.9612 23.579 16.0138C21.0347 18.2155 18.6565 21.0001 17.2888 24.107C16.8571 25.0877 16.4964 26.7087 17.856 27.1559C18.64 27.4138 19.5768 27.18 20.3275 26.9584C21.762 26.535 23.1447 25.907 24.4805 25.2415C27.426 23.7741 30.1275 21.8459 32.5737 19.6502C33.9146 18.4466 35.2254 17.1574 36.3063 15.71C36.8775 14.9452 37.6729 13.8421 37.6079 12.8029C37.4727 10.64 33.41 11.8549 32.437 12.109C29.0904 12.9831 26.1266 14.554 23.5486 16.8546C22.0612 18.1819 20.661 19.8149 20.1857 21.8077C19.7882 23.4746 20.8494 24.9951 22.5762 25.1301C24.7123 25.2971 26.9678 24.3616 28.7854 23.3423C31.6766 21.721 34.3842 19.5383 36.5747 17.0521C37.8985 15.5496 39.6323 13.0658 38.8386 10.9138C38.2031 9.1905 35.4963 8.90026 33.9665 8.97407C31.4047 9.09766 28.8149 10.0389 26.5165 11.1215C23.4367 12.572 20.1325 14.7121 18.1194 17.513C17.2685 18.6968 16.5685 20.5143 18.4942 20.9873C19.666 21.2751 20.9007 20.9721 22.009 20.5821C23.7884 19.9559 25.4865 19.0326 27.104 18.0751C28.527 17.2327 29.6938 16.4865 31.0138 15.4821C32.4585 14.3828 34.1354 13.0621 34.9034 11.3443C36.0312 8.82186 33.1928 7.79444 31.2164 7.90038C29.1523 8.01102 27.0871 8.65336 25.149 9.31846C23.1611 10.0007 21.2414 10.8317 19.4463 11.9318C16.7924 13.5581 13.6647 15.7381 12.4774 18.7588C11.9992 19.9755 11.5568 22.051 13.4701 22.0812C16.3579 22.1268 19.3384 19.7381 21.3303 17.8877C22.6886 16.6261 24.2517 15.0325 24.7641 13.1878C25.2818 11.3242 23.8883 10.5044 22.1508 10.929C21.2256 11.1551 20.2039 11.7268 19.4463 12.2559C17.3801 13.699 15.5555 15.5243 13.9057 17.4167C11.4926 20.1846 9.26137 23.3922 8.21306 26.9533C8.01013 27.6427 7.33177 29.9768 8.522 30.3416C9.81726 30.7385 10.9132 27.4 11.1758 26.6647C11.6078 25.4552 12.0324 24.0202 11.6975 22.7295C11.5114 22.0124 11.1188 21.62 10.4617 22.1521C9.29199 23.0995 8.60702 24.7707 8.05099 26.1126C7.09149 28.4284 6.23523 31.0231 6.22268 33.5576C6.21883 34.335 6.28547 36.8516 7.53441 36.9002C8.23137 36.9273 8.81186 36.0161 9.10443 35.5429C9.67026 34.6276 10.0034 33.6212 10.1882 32.5649C10.4827 30.8823 10.8213 28.4354 10.0059 26.8318C9.45402 25.7464 8.34098 26.2623 7.72686 27.004C6.66664 28.2845 6.34691 30.3781 6.12645 31.9521C5.69052 35.0645 5.74838 38.3867 6.63291 41.4178C7.09146 42.9892 7.77576 44.9304 9.15507 45.9557C10.5895 47.0219 10.8788 45.2793 10.9479 44.1527C11.0881 41.8692 10.7883 39.5338 10.2389 37.3205C9.9398 36.1157 9.60657 34.7701 8.8512 33.75C8.5693 33.3693 7.9347 32.7478 7.38247 33.0055C6.84121 33.2581 6.50163 34.1861 6.35942 34.692C5.97635 36.0549 6.08015 37.5235 6.25813 38.9058C6.72037 42.4954 8.01462 46.0401 10.2642 48.9033C10.8176 49.6075 12.2145 51.0976 12.1229 49.1869C12.0042 46.7094 10.9192 44.1749 9.96541 41.9243C9.64966 41.1792 9.1273 40.0136 8.73978 39.2907C8.34189 38.5484 7.8368 37.5662 7.04821 37.1484C5.68661 36.4268 4.56485 37.5426 4.26775 38.7791C3.79048 40.7656 3.90707 42.9324 4.36398 44.9124C4.68558 46.306 5.24826 47.6002 6.0201 48.802C6.5886 49.6872 7.29225 50.6545 8.28397 51.1114C9.73012 51.7777 10.937 50.9498 10.9074 49.3996C10.8666 47.2643 9.53242 45.1409 8.55745 43.3221C7.84909 42.0006 7.04301 40.3035 5.70103 39.4983C4.44942 38.7474 3.99908 40.3766 3.94362 41.3317C3.8333 43.2317 4.49495 45.2401 5.21483 46.9686C6.06752 49.0159 7.37134 51.1679 9.36779 52.2763C10.1695 52.7213 11.4498 53.162 12.1482 52.3016C13.3377 50.8363 12.4979 48.1877 12.0267 46.6394C11.0323 43.3719 9.74951 39.9655 7.94464 37.0521C7.69877 36.6552 6.11083 34.2699 5.56935 35.7303C4.96463 37.3612 5.54342 39.6949 5.90361 41.2962C6.6033 44.407 7.7728 47.4565 9.7527 49.9871C10.2267 50.593 11.8121 52.6862 12.837 51.8407C13.6764 51.1482 13.4934 49.2405 13.4701 48.3968C13.3769 45.021 12.9423 41.6381 12.5129 38.2929C12.2555 36.2877 12.0488 34.8505 11.7279 32.9144C11.5563 31.8791 11.4365 30.5653 10.9479 29.5971C10.5013 28.7119 10.278 29.7364 10.2389 30.1238C10.0819 31.6769 10.3197 33.3204 10.5833 34.844C11.3149 39.0727 12.6009 43.1168 14.5944 46.9179C15.0232 47.7354 15.4751 48.6443 16.048 49.3793C16.4064 49.8391 16.3674 49.2544 16.3468 48.9843C16.1501 46.4078 15.5605 43.8103 15.0806 41.276C14.4377 37.8804 13.8951 34.3893 12.8927 31.0759C12.8194 30.8334 12.8237 30.4837 12.5939 30.377C12.1245 30.159 12.1966 31.3502 12.1533 31.866C11.8446 35.5459 12.5339 39.3581 13.4904 42.8967C14.1326 45.2727 15.0656 47.5628 16.2809 49.7035C16.4054 49.9227 16.5326 50.1409 16.6709 50.3517C16.7731 50.5075 16.9427 50.9049 17.0558 50.7569C17.2288 50.5307 16.6745 49.0576 16.6557 48.9944C15.5778 45.3606 14.5261 41.726 13.5056 38.0752C13.1457 36.7877 12.8022 35.4669 12.2951 34.2261C12.2077 34.0122 12.1111 33.8007 11.9912 33.6031C11.8969 33.4477 11.7157 33.1291 11.5861 33.4816C11.4357 33.8906 11.4932 34.7338 11.5101 35.0567C11.6031 36.8313 11.8632 38.6155 12.2242 40.3542C12.9951 44.0668 14.3362 47.7452 16.4379 50.919C16.5108 51.029 18.3299 53.7412 18.7373 53.0866C19.0467 52.5893 18.5674 51.3283 18.4536 50.9088C17.9709 49.1282 17.3994 47.3704 16.8938 45.5961C16.0639 42.6844 15.3742 39.7381 14.5742 36.8192C14.4817 36.4817 14.3842 36.1455 14.2804 35.8113C14.1965 35.5409 14.2298 34.9533 13.9563 35.0263C13.8898 35.044 13.9128 35.1601 13.9158 35.2289C13.9429 35.8589 14.1718 37.2455 14.25 37.6903C14.9576 41.7119 15.8346 45.6948 17.7142 49.3489C18.4382 50.7565 19.2776 52.1116 20.2516 53.3601C20.6122 53.8224 21.2639 54.7732 21.8976 54.9808C22.155 55.0651 22.1336 54.7021 22.1204 54.606C21.9804 53.5884 21.4847 52.5104 21.1683 51.552C19.9595 47.8904 18.9245 44.1808 17.8256 40.4859C17.6079 39.7539 17.3865 39.0155 17.1369 38.2929C17.0018 37.9019 16.7389 36.8019 16.5798 37.1838C16.3664 37.6957 16.8144 39.2157 16.8887 39.5642C17.3737 41.8394 17.9888 44.0971 18.7373 46.3001C19.6117 48.8739 20.7469 51.3256 22.3584 53.5222C22.5221 53.7453 23.2819 54.9746 23.7309 55.0213C24.1454 55.0643 23.7525 54.1735 23.6297 53.7754C22.5952 50.4223 21.346 47.1279 20.1959 43.8133C19.7962 42.6616 19.4578 41.4205 18.9095 40.3238C18.6725 39.8498 18.4224 39.6998 18.4486 40.3745C18.5391 42.7093 19.3955 45.1415 20.2364 47.2927C20.7917 48.7133 21.458 50.0847 22.247 51.39C22.7123 52.1596 23.2545 53.105 23.9943 53.664C25.0319 54.4479 25.0162 52.9594 24.8755 52.3472C24.2742 49.7306 23.2901 47.1019 22.3281 44.5984C22.1697 44.1864 21.8626 43.3695 21.6089 42.9422C21.4008 42.5918 21.0963 42.4665 21.0366 42.9979C20.9409 43.8501 21.264 44.8304 21.4924 45.6265C21.8517 46.8786 22.2894 48.1177 22.8193 49.3084C23.0767 49.8867 23.8736 51.9005 24.7692 51.866C25.685 51.8308 24.5218 48.5161 24.4349 48.2246C23.9909 46.735 23.5046 45.2398 22.87 43.8184C22.3101 42.5645 22.3786 43.7201 22.5053 44.3755C22.7414 45.5972 23.1525 46.8081 23.7512 47.9005C23.8484 48.0778 24.6981 49.4264 24.6527 48.4576C24.6021 47.3788 24.2135 46.2859 23.9234 45.2568C23.6187 44.176 23.3353 43.0544 22.9004 42.0154C22.0835 40.0641 23.9288 46.2587 25.2503 47.9106C25.628 48.3827 25.7074 48.1001 25.6099 47.6371C25.3194 46.2573 24.8424 44.9097 24.4248 43.5652C24.3479 43.3175 24.1621 42.1301 23.8728 41.9648C23.6849 41.8574 23.9898 42.3814 24.0551 42.5877C24.2081 43.0714 24.3755 43.5489 24.5615 44.021C24.7946 44.6124 25.0423 45.4924 25.5643 45.9101C25.7884 46.0893 25.338 44.4489 25.301 44.3198C24.923 43.0028 24.5391 41.6847 24.1057 40.3846C23.8263 39.5463 23.9202 40.5209 23.974 40.8151C24.1938 42.0165 25.6947 45.3619 25.463 44.1628C25.3065 43.3523 24.9959 42.5345 24.754 41.747C24.5629 41.1249 24.2209 39.2393 23.4119 39.0425C22.479 38.8156 22.9344 41.8733 23.1232 42.2788C23.7334 43.5889 22.6496 39.2353 21.6342 38.2069C21.1142 37.6802 20.4055 37.3241 19.735 37.7865C19.0385 38.2669 19.0051 39.2516 19.0918 40.0149C19.1123 40.1954 19.2018 41.1592 19.4362 41.2557C19.5054 41.2842 19.2648 39.734 19.2336 39.6249C19.07 39.0525 18.811 38.3462 18.3473 37.9435C17.8831 37.5404 17.6335 38.0977 17.5825 38.5057C17.5605 38.6819 17.4894 39.7045 17.7547 39.7769C18.1067 39.8729 17.8623 38.3467 17.856 38.3132C17.6308 37.1049 17.3307 35.8731 16.8938 34.7224C16.6069 33.967 16.1782 33.3208 15.8302 32.6054C15.7727 32.4872 16.0852 32.6878 16.1898 32.7675C16.6619 33.1272 17.5752 33.6309 18.17 33.2537C19.1712 32.6188 18.094 30.4355 17.3597 30.0225C16.4127 29.4898 16.3749 32.2437 16.5392 32.6662C16.7133 33.1138 17.114 32.6912 17.2483 32.4636C17.7951 31.537 18.0621 30.3694 18.3929 29.354C18.6392 28.5978 19.0132 27.7926 19.1424 27.004C19.2295 26.473 18.3417 27.7432 18.322 27.7738C17.5847 28.9206 16.9918 30.1551 16.367 31.3646C16.3517 31.3943 15.1963 33.5837 15.8859 32.8941C17.0251 31.7549 17.9198 30.3525 18.9956 29.1514C20.6134 27.345 22.3874 25.6578 24.4096 24.3096C25.1384 23.8238 25.9247 23.2099 26.7494 22.8915C27.3536 22.6584 25.7637 23.7326 25.2503 24.1273C24.3516 24.8183 23.4308 25.4833 22.5053 26.1379C22.0788 26.4396 20.7273 27.1813 21.2341 27.0546C21.9265 26.8815 22.629 26.1594 23.2245 25.7986C24.4282 25.0692 25.7131 24.5054 26.9824 23.9045C27.5219 23.6491 29.0613 22.7707 28.6132 23.165C27.7017 23.9671 26.3914 24.4749 25.3617 25.1098C23.6719 26.1519 21.93 27.2381 20.4187 28.5335C19.2469 29.5379 22.9811 26.8092 24.3083 26.0215C26.5953 24.6641 29.0674 23.6167 31.4544 22.4509C32.7627 21.812 33.9489 21.0142 35.2124 20.3035C39.1583 18.0839 43.5239 16.6239 47.3572 14.1906C48.0174 13.7715 51.6761 11.1051 49.5097 10.5238C47.8891 10.089 45.929 10.318 44.3033 10.5846C41.9239 10.9748 39.6086 11.6714 37.3243 12.4281C37.2995 12.4363 35.6886 13.0484 35.7593 13.0865C35.9362 13.1817 36.4152 13.0149 36.5545 12.9751C37.2688 12.771 37.9554 12.4804 38.631 12.1749C40.019 11.5472 41.3669 10.8247 42.6826 10.0579C43.142 9.79021 45.0936 8.85972 44.7388 8.03206C44.5363 7.55938 43.4546 7.43457 43.0422 7.37873C41.4963 7.16938 39.8882 7.6191 38.4081 8.00674C36.6232 8.47422 34.5852 8.98438 33.0194 10.0022C32.2925 10.4747 31.6711 11.6199 32.3711 12.3876C33.1823 13.2773 34.7728 13.1085 35.815 12.9143C38.5968 12.3962 41.4336 11.3093 43.9184 9.97686C44.6481 9.58555 47.4824 8.07777 45.3314 7.49521C43.4235 6.97848 41.1686 7.42789 39.2387 7.59144C37.0252 7.77903 34.8406 8.12729 32.6547 8.51826C30.4935 8.90482 28.205 9.17584 26.1518 9.99712C24.6939 10.5803 23.3938 11.4728 22.3129 12.6104C21.4378 13.5313 20.1243 15.0013 20.4491 16.4089C20.7148 17.5601 21.9724 18.2818 23.0219 18.5512C25.5747 19.2065 28.3826 18.2622 30.7353 17.3256C33.1333 16.3708 35.7642 15.1982 37.6079 13.3296C38.7275 12.1949 40.7972 9.20798 39.4008 7.57625C38.2799 6.26648 35.5827 6.35302 34.0779 6.53294C30.5499 6.95477 26.948 8.63593 23.9386 10.4529C20.9872 12.2349 18.0746 14.4276 15.6985 16.9356C14.3442 18.3651 13.1956 20.0166 12.9231 22.0103C12.7251 23.4597 13.2909 27.9086 15.7795 26.6393C17.0455 25.9937 17.956 24.5509 18.6056 23.3474C19.1969 22.2518 19.6732 21.0873 20.0844 19.9136C20.4237 18.9455 20.8129 17.8774 20.8644 16.8394C21.0188 13.7287 16.5178 16.0288 15.3035 16.7533C13.6925 17.7144 12.1433 19.0077 11.0492 20.5416C10.0815 21.8983 9.36568 23.4713 8.70939 24.9984C7.60803 27.5612 7.30059 29.9761 7.45844 32.7472C7.58259 34.9268 7.78705 37.2491 9.05378 39.0982C9.05983 39.107 9.5503 39.7688 9.5805 39.6857C9.84983 38.945 9.40726 37.5357 9.29182 36.8546C8.91123 34.6092 8.44856 32.4221 8.70939 30.1339C8.94923 28.0299 9.57419 25.9418 10.4111 24.0007C11.603 21.2362 13.5797 19.3189 15.9214 17.5332C16.6423 16.9835 17.3697 16.4376 18.0535 15.8416C18.3811 15.5562 19.3045 14.9115 19.3045 14.4033C19.3045 14.0849 18.5766 14.3461 18.4638 14.3932C17.1208 14.9536 15.8501 16.0356 14.8375 17.0571C13.2001 18.7092 11.9276 20.8394 10.9682 22.9422C10.5632 23.8299 10.1951 24.7631 10.0009 25.7227C9.82493 26.592 9.89535 27.4057 9.86412 28.2803" stroke="#FF7262" stroke-opacity="0.45" stroke-width="3" stroke-linecap="round"/>
<path d="M58.5448 11.6887C58.8632 11.3106 58.4004 11.2633 58.0536 11.2633C57.1438 11.2633 56.2792 11.7025 55.4605 12.0533C55.031 12.2374 53.7435 12.7531 54.2045 12.6763C54.68 12.597 55.2078 12.2308 55.6226 12.0027C56.0383 11.774 56.5619 11.5089 56.8938 11.162C57.2483 10.7914 56.0519 10.9719 56.0024 10.9797C55.2717 11.0935 54.5296 11.2027 53.8145 11.395C53.2505 11.5466 53.8309 11.5052 54.0475 11.4659C54.6055 11.3644 55.1561 11.2016 55.7036 11.0556C55.8921 11.0053 56.1357 10.9088 56.3367 10.9088C56.5459 10.9088 55.9311 11.0118 55.7289 11.0658C54.8521 11.2996 53.9915 11.611 53.1511 11.9521C52.9001 12.0539 52.1249 12.3667 52.8928 12.1243C53.583 11.9063 54.2469 11.6511 54.9591 11.5064C55.6123 11.3736 56.5136 11.0475 57.1875 11.162C57.5004 11.2151 56.5076 11.791 56.4582 11.8204C56.3779 11.8681 55.0655 12.6998 55.2731 12.8333C55.5725 13.0258 56.5785 12.5463 56.8634 12.4636C57.8105 12.1886 58.7566 11.8321 59.7299 11.6634C60.3556 11.5549 60.5729 11.6531 59.9123 12.0179C58.9288 12.561 57.8744 12.9438 56.914 13.5373C56.7714 13.6254 55.7483 14.2438 56.5393 14.0893C57.6913 13.8643 58.7866 13.4121 59.9427 13.1878C60.0519 13.1666 62.2694 12.8462 62.1407 13.1372C61.8464 13.8025 60.4296 14.245 59.8616 14.5958C59.5982 14.7584 58.7093 15.1958 58.6056 15.5327C58.6029 15.5416 60.238 15.1059 60.358 15.0668C60.791 14.9256 61.8031 14.4477 62.2724 14.6667C62.2908 14.6753 60.6759 15.5943 60.5504 15.6593C59.7551 16.0714 58.8944 16.4799 58.1802 17.0268C57.3554 17.6583 59.0254 17.0761 59.1931 17.0268C60.3441 16.6879 61.4825 16.3734 62.6674 16.1759C63.7273 15.9993 62.7777 16.3758 62.3433 16.5608C61.2452 17.0284 60.1382 17.4819 59.0918 18.0599C59.0125 18.1038 57.3942 19.1156 58.1194 18.9969C59.3858 18.7897 60.5983 18.262 61.8419 17.9536C62.5027 17.7897 64.4335 17.239 63.8525 17.594C63.1643 18.0146 62.3281 18.2707 61.5937 18.5968C60.033 19.2898 58.519 20.1167 57.147 21.1392C56.9501 21.286 55.7737 22.2735 56.7925 22.0711C58.3534 21.7611 59.8568 20.9449 61.381 20.4808C62.6614 20.091 63.9601 19.7323 65.2706 19.4578C65.7553 19.3562 66.7865 19.1551 65.7771 19.6857C62.6148 21.3479 59.3184 22.6812 56.3924 24.7756C55.8876 25.1369 55.4587 25.6074 56.4177 25.2922C58.5479 24.592 60.5937 23.6582 62.7383 22.9827C64.2592 22.5037 65.8304 22.0176 67.4079 21.7571C67.7602 21.6989 67.4735 21.8278 67.337 21.8888C66.7 22.173 66.0478 22.4254 65.4023 22.689C63.5268 23.4546 61.6845 24.2588 59.892 25.2061C58.1393 26.1323 55.9476 27.0923 54.5843 28.5892C54.2855 28.9174 54.5189 28.9438 54.8578 28.8678C55.8844 28.6374 56.8904 28.2276 57.8864 27.9004C60.5192 27.0357 63.1873 26.3395 65.8936 25.748C66.8304 25.5432 67.7869 25.289 68.7449 25.201C69.4217 25.1389 67.6988 25.7255 67.6307 25.748C62.902 27.3059 58.1074 29.2006 53.9563 31.9977C53.7213 32.156 52.4736 33.1471 53.5917 32.6763C55.6708 31.8009 57.6312 30.7574 59.7755 30.0174C62.2041 29.1794 64.6914 28.4818 67.2205 28.022C67.9617 27.8872 68.7131 27.7536 69.4641 27.6827C69.6098 27.6689 70.0003 27.7199 69.8844 27.8093C69.661 27.9816 69.2158 28.1502 69.0032 28.2347C67.8399 28.6969 66.6474 29.0831 65.4732 29.516C62.7543 30.5185 60.0852 31.7112 57.5522 33.122C56.5021 33.7069 55.4576 34.3288 54.4881 35.0415C54.0169 35.3878 53.3517 35.8505 53.065 36.3937C52.9467 36.6179 53.5937 36.4678 53.8246 36.3633C54.7638 35.9385 55.6644 35.4287 56.5899 34.9757C58.8291 33.8794 61.1467 33.054 63.5436 32.3725C65.5445 31.8035 67.6181 31.2089 69.7072 31.0861C69.9189 31.0736 70.5025 31.1218 70.3251 31.238C69.7934 31.5863 69.0784 31.8051 68.5018 32.0433C65.9329 33.1043 63.3772 34.1672 60.8745 35.3808C58.4312 36.5657 55.9719 37.8042 53.7943 39.4426C53.5766 39.6064 53.3668 39.7806 53.1612 39.9592C52.9965 40.1022 52.581 40.3122 52.7408 40.4606C52.9026 40.6108 54.1446 39.8852 54.1589 39.8782C58.822 37.5667 63.7919 35.7436 68.9779 35.0466C70.1676 34.8866 68.1125 35.6472 68.0055 35.6898C65.3693 36.7372 62.7677 37.9055 60.282 39.2755C58.9446 40.0126 57.6389 40.8153 56.438 41.7622C56.0798 42.0446 55.1074 42.7108 54.9794 43.2461C54.907 43.5486 55.6134 43.3812 55.9113 43.2917C56.9814 42.9702 58.0126 42.4623 59.0412 42.0357C61.1329 41.168 63.2449 40.3564 65.4023 39.6655C66.2035 39.4088 67.0108 39.1882 67.8232 38.9716C67.9383 38.9409 68.0546 38.9135 68.1675 38.8754C68.2412 38.8505 68.0103 38.8678 67.9346 38.8855C65.1151 39.5454 62.3164 40.8149 59.8616 42.3294C57.459 43.8118 54.6408 45.8665 53.4904 48.5589C53.2683 49.0786 52.6371 50.7171 53.5866 50.9342C54.996 51.2563 56.8579 49.8014 57.9016 49.0603C58.9452 48.3193 60.6951 46.8423 60.4593 45.3429C60.2371 43.9306 57.7478 44.6988 57.0153 45.0187C54.9651 45.9144 52.978 47.4414 51.6165 49.2173C50.3254 50.9013 48.5482 53.8507 49.6919 56.0342C50.4911 57.5599 52.6391 56.5381 53.6727 55.9025C55.3302 54.8833 56.4633 52.8822 56.286 50.9088C56.1338 49.2139 54.7803 48.789 53.2827 48.6703C50.7538 48.4698 48.4211 49.6086 46.4202 51.076C45.3025 51.8956 44.2864 52.8937 43.4726 54.0185C42.9752 54.7061 42.3452 55.6589 42.4344 56.566C42.6058 58.309 45.1743 58.1007 46.3139 57.8068C47.6993 57.4495 49.2507 56.6718 50.0971 55.467C51.175 53.9325 49.8357 52.2947 48.3144 51.8205C45.4045 50.9134 42.1214 52.2932 39.5425 53.5323C38.2468 54.1549 36.9656 54.8785 35.8302 55.7658C35.3856 56.1132 34.682 56.6478 34.6299 57.2902C34.5235 58.6021 36.6121 58.6354 37.4103 58.5766C39.3944 58.4304 41.6094 57.4283 42.799 55.786C44.0116 54.1121 43.2058 52.0461 41.5582 51.0101C39.3959 49.6506 36.79 50.1832 34.5539 51.0101C33.0656 51.5605 31.161 52.273 30.3452 53.7653C29.6448 55.0466 30.8338 55.6788 31.9456 55.8215C32.6326 55.9096 34.5463 55.9245 34.5387 54.8187C34.5289 53.3906 32.4619 52.2767 31.3885 51.8103C29.8197 51.1286 28.1792 50.942 26.4911 51.1519C25.0418 51.3322 23.1034 51.6591 22.0444 52.7878C21.3779 53.4981 21.2968 54.6871 22.1761 55.2694C23.1113 55.8889 24.3336 55.4834 25.0325 54.7022C25.8665 53.7701 24.8174 52.8629 24.0652 52.2864C22.4358 51.0376 20.2299 50.3274 18.1902 50.2606C16.6512 50.2102 14.7979 50.5316 13.4194 51.2532C12.4429 51.7645 13.2538 52.2593 13.936 52.489C15.8478 53.1328 18.1088 51.8529 16.5392 49.8453C15.6245 48.6753 14.3313 47.4704 12.7306 47.6776C11.4027 47.8496 10.2243 48.7661 10.0616 50.1441C9.64683 53.6556 14.3661 54.9696 16.9747 53.9476C19.9316 52.7891 16.5177 50.018 14.5539 50.4429C13.7417 50.6186 13.0692 51.2275 13.1662 52.1091C13.3555 53.8302 15.2207 55.4155 16.6455 56.1507C18.4814 57.0979 20.7995 57.3206 22.8041 56.8699C24.047 56.5904 25.3003 55.8035 24.4146 54.4287C23.7477 53.3935 22.5342 52.372 21.2999 52.1446C19.8177 51.8716 18.5872 52.5484 18.5042 54.1299C18.4059 56.0053 19.9663 57.8123 21.4316 58.7691C23.3439 60.0177 25.8807 60.2979 28.0763 59.7415C29.4628 59.3901 30.7605 58.4399 31.2872 57.0775C31.8899 55.5188 31.0115 53.4458 29.6818 52.5092C28.4919 51.6712 26.9126 52.3545 26.1973 53.4715C25.2403 54.9661 25.9347 57.0361 26.6532 58.4804C27.453 60.0882 28.678 61.4912 30.4972 61.8889C33.0641 62.45 35.6894 61.6554 37.699 60.0048C39.2592 58.7234 40.1871 56.5155 39.3298 54.5655C38.6775 53.0816 37.3056 52.6339 35.7846 52.9245C32.1368 53.6216 30.7663 58.4661 32.5838 61.3773C33.8768 63.4485 35.9619 64.0001 38.2814 64.1477C40.8723 64.3125 43.6375 63.924 45.8581 62.4865C47.2127 61.6096 48.6996 60.0616 48.5372 58.3031C48.4652 57.5228 48.0797 56.66 47.3876 56.2418C46.2873 55.5771 44.9321 56.0061 43.9284 56.6521C42.6945 57.4463 41.3742 58.806 41.2847 60.3644C41.2361 61.2118 41.8192 61.9304 42.4091 62.4561C43.8582 63.7474 46.0317 63.9772 47.8788 63.8134C50.1661 63.6105 52.3636 62.9148 54.1285 61.4128C56.3149 59.552 57.1795 56.9296 57.3749 54.1248C57.4938 52.4196 57.2739 50.279 55.2022 49.9668C54.2118 49.8176 53.1836 50.1404 52.3053 50.5746C51.4196 51.0123 50.2616 51.6933 49.8084 52.6308C49.0075 54.2876 49.9941 56.5661 51.7887 56.9863C55.6525 57.8912 59.6203 55.6087 60.8745 51.9116C61.6254 49.6985 61.4142 47.3664 59.264 46.1076C57.8399 45.2739 55.6422 45.5596 54.3007 46.452C53.5182 46.9726 52.8353 47.8183 53.4954 48.7108C54.6323 50.248 57.1127 50.3231 58.7981 49.906C60.5582 49.4705 62.6263 48.1841 62.9763 46.2646C63.256 44.731 62.9132 41.6982 61.2645 40.9519C59.5833 40.1908 57.4225 41.5933 56.9039 43.2208C56.6135 44.1323 56.608 45.5772 57.6889 46.0114C59.5578 46.7621 62.2902 45.9241 64.0247 45.2162C65.2982 44.6965 66.2444 44.0215 66.4557 42.6434C66.5766 41.8554 66.5122 41.0105 66.1316 40.2935C65.345 38.8115 63.4922 38.765 62.0698 39.2299C58.7902 40.3019 60.0779 44.821 63.0878 45.1555C64.6522 45.3293 66.3928 44.8913 67.3066 43.4993C68.2938 41.9955 67.785 40.183 66.6836 38.9159C64.546 36.4567 60.788 38.0036 59.973 40.9012C59.4332 42.8208 59.5626 45.2913 60.7733 46.9483C61.6907 48.2041 63.5743 48.7089 65.0376 48.2347C66.1839 47.8634 66.6886 46.6771 66.6228 45.5454C66.5161 43.7077 65.3461 42.7316 63.5588 42.7498C61.1128 42.7746 58.6793 44.1875 56.9191 45.8037C55.7144 46.9098 54.7001 48.2707 53.9158 49.7035C53.4032 50.6398 52.9717 51.6838 53.1105 52.7726C53.2892 54.1739 54.4489 54.2662 55.5365 53.6944C57.5122 52.6556 58.3943 50.4077 58.7778 48.3259C59.0872 46.6466 58.9726 44.0587 57.1571 43.2208C55.5329 42.4712 53.248 42.7942 51.7583 43.707C50.6285 44.3992 49.6605 45.4907 49.8489 46.8926C50.0466 48.3628 51.4356 48.7543 52.7408 48.5943C54.3177 48.401 55.4655 47.2604 55.9872 45.7936C56.4262 44.5594 56.7108 42.5688 55.8961 41.4178C55.2689 40.5319 54.1225 40.6441 53.227 41.0126C51.6115 41.6775 50.294 43.3177 49.9047 45.0035C49.6825 45.9656 49.6634 49.1185 51.5152 48.2955C52.6764 47.7794 52.9103 46.7097 52.6091 45.5708C51.7409 42.2876 47.0096 44.8453 45.6403 46.4014C45.1659 46.9404 43.8667 48.6975 44.7641 49.4198C45.3198 49.8671 46.1292 49.139 46.2885 48.6247C46.5241 47.8647 46.2722 46.8884 45.7416 46.3102C44.6917 45.166 43.0817 45.0744 41.6494 45.3682C40.5553 45.5926 38.9475 46.314 38.3574 47.3231C37.9987 47.9365 38.9663 48.2274 39.4007 48.1638C41.0923 47.9163 40.3072 45.9494 39.0209 45.7733C38.0426 45.6395 36.8886 45.9628 36.1594 46.6445C35.6036 47.164 36.1229 47.619 36.6861 47.8093C37.7595 48.1719 39.8389 47.4928 39.0259 46.057C37.9417 44.1419 34.8184 45.0722 33.9411 46.7457C33.6372 47.3255 34.0161 47.6959 34.5742 47.8498C35.6295 48.1409 36.8049 47.7202 37.5927 46.999C38.0948 46.5393 38.7981 45.5582 38.327 44.8516C37.7358 43.9648 36.4957 44.4015 35.7998 44.8364C34.6368 45.5633 31.5994 47.9271 33.151 49.6022C34.3959 50.9461 36.3902 47.8632 35.0047 47.4345C34.0957 47.1533 33.0598 47.7768 32.3255 48.2246C30.9739 49.0487 29.5231 50.269 29.0082 51.8255C28.7234 52.6862 28.9015 54.1447 30.0819 54.0894C30.7488 54.0581 31.1181 53.3258 30.8213 52.7321C30.4834 52.0563 29.5063 51.977 28.8664 52.1547C27.5392 52.5234 26.4766 53.8803 26.0302 55.1226C25.5043 56.5863 25.8599 57.9315 27.033 58.9615C28.134 59.9283 29.8005 59.7245 31.0441 59.154C31.9618 58.733 32.4243 57.862 32.2748 56.8597C32.1086 55.7446 31.2178 55.408 30.1984 55.3454C29.2955 55.29 28.1541 55.5946 27.5445 56.3178C26.8229 57.174 27.0063 58.5073 27.6357 59.3464C28.3307 60.2732 29.4082 60.6677 30.5478 60.643C31.7058 60.6179 33.3309 60.2284 33.7689 58.9818C34.1245 57.9696 33.279 56.8155 32.3204 56.5305C31.2149 56.2018 30.2315 56.8964 29.7679 57.8777C29.2845 58.9009 29.4319 60.1241 30.0262 61.0684C31.0257 62.6565 32.6757 63.6311 34.5336 63.155C36.7621 62.5839 38.9744 61.4191 40.4693 59.6452C41.1182 58.8753 41.678 58.0209 42.0849 57.0978C42.2773 56.6615 42.5813 55.9712 42.4445 55.467C42.285 54.8786 41.4595 55.1208 41.1531 55.4163C40.3216 56.2181 40.397 58.122 41.0315 59.0122C41.9287 60.271 44.1226 60.4181 45.4681 60.0453C47.2814 59.543 49.5884 58.2886 50.634 56.6622C51.429 55.4254 51.8545 53.6951 51.2772 52.2915C50.619 50.6914 48.911 50.7829 47.6914 51.704C46.3154 52.7432 45.3911 55.0734 47.1242 56.2824C49.3742 57.8518 52.2879 55.8867 53.9867 54.4237C55.5519 53.0756 56.87 51.5066 57.228 49.4097C57.4868 47.8939 57.2226 45.8387 55.2832 45.8746C54.3334 45.8922 52.9433 46.3664 53.1764 47.5662C53.4055 48.7459 55.0639 48.6266 55.9315 48.488C59.8875 47.856 61.6697 43.5358 61.6697 39.9541C61.6697 38.8699 61.2599 37.0352 60.0034 36.6925C59.3357 36.5104 59.1167 37.8159 59.0766 38.217C58.8497 40.4863 61.3413 41.2471 62.7181 39.5439C64.9412 36.7936 63.4734 31.637 59.7603 31.1873C58.6423 31.0519 57.5333 31.2827 56.7115 32.0838C55.8801 32.8941 55.4608 34.3288 56.2708 35.3099C57.7017 37.0431 61.0782 34.5827 59.0868 33.0005C58.2592 32.343 56.9102 32.941 56.1341 33.3854C54.9128 34.0847 53.8791 35.522 53.8145 36.961C53.766 38.0425 54.3626 39.2679 55.5263 39.4325C56.6551 39.5921 57.5047 39.0069 58.3625 38.3993" stroke="#FF7262" stroke-opacity="0.45" stroke-width="3" stroke-linecap="round"/>
<path d="M58.2714 37.2142C57.0743 35.9541 54.8406 35.3066 53.2676 36.2165C51.9957 36.9522 50.8838 39.0471 52.4978 40.0402C53.6969 40.7781 54.9523 40.0402 56.2101 40.0402C56.4624 40.0402 56.2136 40.2493 56.1747 40.4049" stroke="#FF7262" stroke-opacity="0.45" stroke-width="3" stroke-linecap="round"/>
<path d="M57.542 39.4021C56.9108 39.0714 56.358 39.6325 55.9112 40.0757C54.9097 41.0692 54.397 42.1688 54.8426 43.5449C55.2404 44.7733 56.2933 45.2297 57.5218 45.2922C58.1811 45.3257 59.7984 45.1962 59.8667 44.254C59.932 43.3524 58.6878 42.6529 57.9573 42.532C55.7428 42.1653 53.0635 43.2915 51.3025 44.5477C49.4837 45.8451 47.4 48.1479 47.7877 50.5847C48.073 52.3784 49.4838 53.7768 51.3025 53.9172C52.18 53.9849 53.4733 53.7877 53.8753 52.8688C54.5295 51.3735 52.1148 50.6425 51.1201 50.5087C48.183 50.1136 45.041 51.3638 42.6876 53.0461C40.6784 54.4823 38.0954 57.0318 38.246 59.7415C38.4204 62.8807 42.9785 62.6992 44.2424 60.4302C45.0034 59.0643 44.4727 57.244 43.4118 56.1962C42.0089 54.8107 39.8753 54.4564 38.0231 54.9909C36.2843 55.4926 34.5952 56.5864 33.6119 58.1258C32.7656 59.4509 32.8628 61.198 34.2855 62.1117C35.4882 62.884 37.2762 62.5156 38.2764 61.5799C39.565 60.3744 38.4009 58.6283 37.542 57.5384C36.3024 55.9653 34.584 54.5772 32.6344 54.0083C31.4439 53.661 29.3161 53.6982 28.6233 54.9807C28.091 55.9659 28.8679 57.0949 29.5957 57.7156C29.8399 57.9239 31.2661 58.8464 31.3987 57.9891C31.5183 57.2156 30.3388 56.2456 29.8843 55.8113C28.2215 54.2224 26.3305 52.8362 24.0702 52.2661C22.6825 51.9161 20.3712 51.5519 19.0613 52.4181C18.4664 52.8115 18.7949 53.7139 19.4159 53.8564C20.2565 54.0493 21.1399 53.2931 21.2897 52.494C21.5872 50.9078 20.1504 49.1157 19.2285 48.0017C17.7938 46.2682 16.0482 45.2388 13.779 45.0643C12.8901 44.9959 10.9176 44.9192 10.3756 45.8949C10.0862 46.4157 10.5054 47.1016 10.9681 47.3636C11.8576 47.8672 13.0765 47.456 13.7131 46.7356C14.7737 45.5355 14.8318 43.7955 14.6349 42.2889C14.414 40.5986 13.7769 38.5677 12.5483 37.3256C11.9368 36.7074 10.9456 36.4586 10.1426 36.8445C9.22038 37.2876 9.4544 38.4855 9.94508 39.1742C10.6935 40.2245 12.0392 39.7909 12.9332 39.1792C14.3226 38.2286 14.7475 36.6532 14.6349 35.0364C14.5197 33.3824 13.9984 31.5716 12.9838 30.2352C12.5671 29.6862 11.1431 28.4773 10.4515 29.3742C10.028 29.9235 11.1598 30.9438 11.5252 31.1671C12.5934 31.8195 13.8812 31.3508 14.7564 30.5897C15.9342 29.5656 15.9989 28.1628 15.7491 26.7102C15.5366 25.4744 14.9061 23.8818 13.6625 23.3372C12.9645 23.0316 12.0418 23.5138 12.0418 24.3198C12.0418 25.5334 13.9978 25.4643 14.7666 25.3732C17.6315 25.0334 19.1875 22.3265 18.4131 19.6401C18.3023 19.2558 17.7065 17.9739 17.2685 18.85C16.7964 19.7942 17.2808 21.1435 17.8306 21.9394C19.6809 24.6174 23.3614 21.8805 24.8046 20.1769C25.8489 18.9442 26.652 17.2723 26.0302 15.6492C25.7522 14.9236 24.8293 14.5472 24.3285 15.3048C23.8412 16.0419 24.1412 17.2147 24.5615 17.9029C25.5145 19.4636 27.3571 19.5251 28.9677 19.2045C31.0143 18.7971 32.8787 17.711 34.1943 16.0746C35.1673 14.8643 36.1589 12.651 35.501 11.0809C35.1081 10.1435 33.8199 9.88795 33.2219 10.7517C32.4867 11.8137 32.4313 13.4935 33.1763 14.5552C34.2993 16.1554 36.6953 15.88 38.3321 15.4618C40.6687 14.8648 42.8416 13.4812 44.2678 11.5215C45.0017 10.5131 45.7489 8.85488 44.3437 8.01179C43 7.20552 41.0596 7.96471 39.8565 8.68032C38.6944 9.37155 37.9174 10.6031 38.6005 11.9419C39.3097 13.332 41.6246 13.3707 42.9257 13.2283C44.434 13.0633 46.2095 12.4674 47.3217 11.3949C48.2296 10.5194 48.3061 8.81854 47.0482 8.17386C46.2018 7.74005 45.1765 8.45979 44.8654 9.24249C44.4361 10.3226 44.9675 11.6739 45.7365 12.4585C47.6335 14.3942 52.028 13.5302 53.1662 11.1012C53.6776 10.01 53.2583 9.01396 52.0014 8.96393C50.8043 8.91629 49.6982 9.74632 49.3475 10.8783C48.2957 14.2737 51.9324 16.1888 54.797 15.2339C56.2466 14.7507 57.7399 13.8415 58.4942 12.4686C58.7927 11.9253 58.6672 11.1636 57.8864 11.5367C56.144 12.3694 56.9322 14.8645 58.4385 15.4314C59.4401 15.8084 60.8254 15.6485 61.7203 15.0617C62.0534 14.8433 62.4344 14.2887 62.0951 13.907C61.8672 13.6506 61.5892 14.298 61.5329 14.4134C61.0957 15.3097 60.9744 16.2398 61.2493 17.2091C61.4786 18.0176 61.9325 18.6764 62.5864 19.1944C63.0424 19.5557 62.8085 19.2193 62.5762 19.0019C61.0686 17.5916 58.9914 21.5629 58.5296 22.4459C57.8716 23.704 55.6175 29.4537 58.9095 29.1919C59.6541 29.1326 60.4714 28.5076 60.2313 27.6674C59.9644 26.7332 58.8911 27.4029 58.5043 27.8346C56.5483 30.0174 56.2087 35.7711 60.1655 35.867C61.5788 35.9013 63.0296 35.3565 64.1057 34.4489C64.9037 33.776 66.2593 32.3301 65.5643 31.1671C64.8408 29.9562 63.0974 30.5149 62.2015 31.1468C61.004 31.9914 60.2057 33.4625 59.811 34.844C59.4647 36.056 59.302 37.6651 59.8819 38.8348C60.4926 40.0669 62.0455 40.4477 63.3055 40.2783C64.1621 40.1631 65.4764 39.6536 64.8097 38.5816C63.9837 37.2536 62.1041 36.9048 60.677 37.1129C57.2485 37.6129 56.0586 42.4073 57.5623 45.1453C58.2013 46.3089 59.5385 46.7833 60.8036 46.5229C61.8041 46.3169 63.1072 45.5729 62.9105 44.3552C62.6222 42.5711 60.3356 42.3548 58.9196 42.4611C56.9199 42.6112 54.6819 43.6874 53.6423 45.4695C52.8877 46.7631 52.9184 48.665 53.9361 49.8149C54.8189 50.8125 56.4938 51.1539 57.7649 51.0101C58.5011 50.9268 59.1826 50.5245 58.7221 49.7186C57.9499 48.3674 56.048 47.5715 54.5539 47.5459C52.3244 47.5077 50.1309 48.8855 48.831 50.6252C47.9288 51.8326 47.0029 54.094 48.1067 55.4821C48.7396 56.278 50.1751 56.0283 50.9986 55.7809C52.3603 55.372 53.9158 54.3177 53.9158 52.7321C53.9158 51.3083 52.9054 49.6498 51.3126 49.7946C49.3532 49.9727 47.8193 51.7659 47.1293 53.4715C46.7834 54.3263 46.3434 55.8935 47.7471 55.9177C49.3768 55.9458 50.8838 54.3996 51.7178 53.1524C53.0882 51.1031 53.5092 48.3905 53.3992 45.9708C53.3582 45.0683 53.1213 42.6853 51.6519 42.9372C51.0717 43.0366 50.6202 43.9457 50.9328 44.4667C51.2691 45.0272 52.166 44.5485 52.4724 44.2185C53.2593 43.371 54.0015 41.9157 54.0728 40.7391C54.0936 40.3961 53.9853 40.143 54.0576 39.8174C54.1845 39.2463 54.0986 38.695 54.0779 38.1258C54.0579 37.5771 53.9311 37.0335 53.9006 36.4849C53.849 35.5562 53.9867 34.5898 53.9867 33.6538C53.9867 32.1471 54.3102 30.6744 54.6248 29.2121C54.7869 28.459 54.9396 27.6769 55.0351 26.9128C55.1373 26.0949 54.9916 25.2592 55.2174 24.4565C55.6259 23.004 55.8511 21.4979 56.3772 20.0756C56.673 19.2757 56.9039 18.5311 56.9039 17.67C56.9039 17.5958 56.872 16.6859 56.5848 17.0369C56.2371 17.4619 56.2404 18.171 56.1341 18.6778C55.9565 19.524 55.7479 20.2829 55.4656 21.0987C55.0197 22.3868 54.5504 23.6645 54.169 24.9781C53.7946 26.2678 53.2538 27.4687 52.8421 28.7411C52.3289 30.3275 51.9519 32.0016 51.5253 33.6183C51.2177 34.7842 50.7984 35.9123 50.6137 37.1129C50.3772 38.6497 49.4716 40.134 48.8461 41.5292C48.4558 42.4 48.0205 42.9777 47.1495 43.4132C46.1441 43.9159 45.0222 44.0492 43.9183 44.1375C42.6186 44.2414 41.2722 44.1425 39.9679 44.1425C39.4348 44.1425 38.8306 44.3299 38.3067 44.2134C37.9989 44.145 37.6903 44.0626 37.3749 44.0514C37.0488 44.0397 36.9454 43.7666 36.6658 43.6867C36.2799 43.5764 35.9724 43.6903 35.663 43.9653C34.8927 44.65 33.9766 45.0456 33.2726 45.8037C32.9599 46.1404 32.7497 46.5687 32.4622 46.9281C31.9309 47.5922 31.1729 48.1187 30.5174 48.6551C29.9829 49.0924 29.42 49.5701 28.8258 49.9212C28.5465 50.0863 28.0432 50.2815 27.7268 50.1035C26.6893 49.5199 25.2877 48.9157 24.835 47.7181C24.5373 46.9308 24.45 46.2128 24.45 45.3783C24.45 44.7876 24.4316 43.9919 24.1259 43.4639C23.5997 42.5549 23.1485 41.4684 22.3331 40.7695C21.7889 40.3031 21.1985 39.9317 20.6415 39.4932C20.1129 39.0772 19.7129 38.5186 19.2538 38.0346C17.5385 36.2266 17.227 32.8218 18.8891 30.9442C19.7994 29.916 21.182 28.9571 22.3685 28.2701C24.2903 27.1575 26.0938 25.8346 28.0105 24.7249C28.9995 24.1523 30.0444 23.6893 31.0441 23.1346C32.3501 22.41 33.6504 21.6798 34.9844 21.0075C37.2397 19.8709 39.3802 18.5532 41.5734 17.3053C43.3427 16.2986 45.2466 15.6155 47.2002 15.0617C49.0137 14.5476 50.8364 14.0691 52.68 13.674C53.3727 13.5256 54.0561 13.3243 54.7363 13.127C54.9625 13.0614 55.3625 12.9482 55.4453 12.7826" stroke="#FF7262" stroke-opacity="0.45" stroke-width="3" stroke-linecap="round"/>
</svg>
