<svg width="84" height="62" viewBox="0 0 84 62" fill="none" xmlns="http://www.w3.org/2000/svg">
<path d="M2.85972 8.65939C3.1429 6.28566 2.40947 13.4212 2.11596 15.7936C1.90004 17.5387 2.05184 19.3826 2.05184 21.1408C2.05184 22.8807 1.94818 24.6293 2.28266 26.3403C3.05735 30.3031 2.70768 34.5535 3.03283 38.5732C3.35039 42.4991 3.20595 46.4965 3.20595 50.4366C3.20595 51.8377 3.10299 53.2872 3.29571 54.6755C3.40888 55.4907 3.42433 56.3792 4.03947 56.9998C4.60903 57.5744 5.87097 57.5233 6.61058 57.6917C7.87982 57.9808 9.21712 58.1425 10.5025 58.3568C14.4318 59.0117 18.4851 59.2616 22.454 59.5928C26.6581 59.9437 30.9194 59.9287 35.1363 59.9287C39.5153 59.9287 44.039 60.2217 48.3894 59.6197C50.2625 59.3605 52.1725 59.0495 54.0509 58.8673C55.761 58.7014 57.4697 58.7254 59.1803 58.5717C63.2084 58.21 67.3772 57.6472 71.4203 58.0545C72.8232 58.1958 74.3227 58.491 75.7354 58.3501C76.2918 58.2945 76.492 56.8947 76.492 56.4221C76.492 55.4724 76.6923 54.5161 76.9793 53.6141C77.5757 51.7394 78.146 49.9139 78.6591 48.0115C79.5625 44.6625 79.6081 41.3653 79.6081 37.9216C79.6081 34.879 80.1474 31.8234 79.9607 28.7923C79.8094 26.3343 80.1435 23.7855 79.7812 21.3558C79.6131 20.2285 79.7235 19.0147 79.7235 17.876C79.7235 15.96 79.609 14.0079 79.7491 12.0988C79.8751 10.3837 79.7756 8.82187 79.4863 7.15463C79.173 5.34927 77.2897 4.97515 75.9149 4.57504C74.2584 4.09293 72.5979 3.75003 70.8881 3.52037C69.4225 3.3235 67.943 3.17592 66.4769 3.00311C65.1088 2.84186 63.6728 2.61348 62.2964 2.61348C60.6217 2.61348 58.9435 2.43586 57.2696 2.37836C54.8892 2.29659 52.5002 2.46669 50.1206 2.36493C47.2581 2.24252 44.3933 1.77674 41.5288 2.12981C38.1906 2.54128 34.8473 2.8323 31.5073 3.1912C29.2561 3.43312 26.9881 3.25544 24.7365 3.58083C22.8376 3.85525 21.0347 4.35665 19.1327 4.57504C16.5889 4.86712 13.9167 4.68757 11.3745 4.79001C9.15598 4.87941 6.92549 4.79001 4.655 4.79001C3.27036 4.79001 3.32136 5.61192 3.32136 6.87249C3.32136 7.36799 3.13904 7.71837 3.09054 8.17572C3.04832 8.5738 2.85972 8.93799 2.85972 8.29664" stroke="#FF7262" stroke-width="3" stroke-linecap="round"/>
<path d="M32.1954 22.3741C31.4769 15.6373 33.0266 35.9745 32.2879 42.709C32.2759 42.8185 32.1667 44.0677 32.2615 43.9971C32.7007 43.6702 33.0083 43.1655 33.4515 42.833C34.8186 41.8074 36.0931 40.8768 37.6167 40.1051C42.1026 37.833 46.6584 35.7045 51.2427 33.6575C52.3596 33.1587 53.5101 32.7978 54.6475 32.3625C54.8582 32.2818 56.4474 31.8109 55.8772 31.3016C55.466 30.9344 54.6464 30.8671 54.1451 30.6197C53.4369 30.2702 52.5267 30.138 51.7716 29.8757C50.0357 29.2728 48.7776 28.0705 47.2164 27.141C45.9481 26.3859 44.5431 25.9105 43.2694 25.164C42.312 24.6029 41.4575 23.9859 40.4067 23.6141C39.2199 23.1941 38.0073 22.9435 36.8299 22.5601C36.3404 22.4008 32.8622 20.8606 32.7904 21.0102" stroke="#FF7262" stroke-width="3" stroke-linecap="round"/>
<path d="M8.35644 10.902C8.35644 10.7722 8.29215 9.58964 8.12895 9.8348C7.92413 10.1425 7.83709 10.6646 7.75993 11.0177C7.52886 12.075 7.42713 13.2157 7.46673 14.2981C7.46999 14.3874 7.46502 15.3451 7.67904 15.3653C7.95027 15.391 8.05958 14.0142 8.0784 13.8723C8.18756 13.0493 8.25109 12.1478 8.11884 11.3226C8.09078 11.1474 7.94972 10.6224 7.71443 10.9283C7.07424 11.7605 6.88929 13.1322 6.78933 14.1509C6.65745 15.495 6.80955 13.6705 6.80955 13.3045C6.80955 12.2064 6.93022 11.0434 6.62757 9.97674C6.60384 9.89311 6.28295 9.06438 6.19282 9.31434C6.03541 9.75086 5.94178 10.2101 5.80863 10.6602C5.5748 11.4505 5.71764 12.4023 5.58114 13.2257C5.47348 13.875 5.48809 14.5477 5.42443 15.2024C5.32895 16.1844 5.16096 17.1437 5.17167 18.1359C5.17875 18.7906 5.28041 19.4494 5.39916 20.0915C5.47475 20.5003 5.53565 21.7485 5.53565 21.3322C5.53565 20.1494 5.72607 18.9509 5.78841 17.7679C5.85499 16.5041 5.79623 15.2461 5.89962 13.9827C6.01113 12.6202 6.68352 11.2618 6.71856 9.91365C6.74095 9.05216 7.08389 8.81641 7.80542 8.39433C8.07629 8.23588 8.36031 8.09159 8.64964 7.9685C9.52584 7.59573 8.01895 7.82545 7.75993 7.87387C7.02792 8.01073 6.27749 7.9685 5.53565 7.9685C5.34282 7.9685 5.22425 7.87387 5.03518 7.87387C4.81792 7.87387 5.67384 7.87366 5.77324 7.86862C6.80953 7.81605 7.8236 7.50403 8.86195 7.42176C9.71205 7.3544 10.5038 7.56588 11.339 7.66359C11.6766 7.70308 12.0323 7.69659 12.3702 7.66884C13.2222 7.5989 14.1823 7.58471 15.0091 7.3429C16.0412 7.041 17.0374 6.8753 18.0978 6.68575C18.6465 6.58768 19.1874 6.45116 19.7407 6.38084C19.7728 6.37676 20.388 6.25563 20.0339 6.19158C18.9624 5.99779 17.5521 6.61958 16.5205 6.87501C15.6007 7.10278 14.6576 7.25942 13.7453 7.51639C13.0288 7.71819 12.2226 7.89808 11.8142 8.60988C11.4694 9.21069 11.5138 9.81317 11.4047 10.4709C11.3607 10.7364 11.0347 11.5203 11.2733 11.7063C11.9549 12.238 13.6419 11.0199 14.2204 10.6917C14.3513 10.6175 16.4294 9.30592 16.2728 9.21971C16.12 9.13553 15.9118 9.28447 15.7977 9.36691C15.1607 9.8269 14.5222 10.3206 13.9121 10.8179C13.3363 11.2872 12.8073 11.8322 12.35 12.4266C12.2033 12.6173 11.9146 13.1194 12.4208 12.9944C13.0879 12.8296 13.7157 12.2329 14.2508 11.8273C15.1393 11.1537 16.0761 10.5221 16.9199 9.78748C17.016 9.70384 17.447 9.23241 17.021 9.46154C16.1476 9.93135 15.446 10.9524 14.8625 11.7326C13.8912 13.0313 13.0653 14.4403 12.35 15.9068C11.7018 17.2358 11.0119 18.8103 10.9851 20.3334C10.9771 20.7914 11.2041 21.4644 11.6524 20.8801C12.4888 19.7901 12.7424 18.0782 12.896 16.748C12.999 15.8558 13.089 14.76 12.6786 13.9249C12.4229 13.4046 12.2043 13.6516 12.0316 14.0773C10.6532 17.4752 10.5006 21.5169 10.4543 25.1489C10.4473 25.6991 10.4619 27.3498 10.4493 26.7997C10.4241 25.7 10.2782 24.6024 10.1763 23.5087C10.0302 21.9401 9.94031 20.2889 9.43824 18.7877C9.28686 18.3351 8.62975 17.1099 8.09357 17.9308C7.553 18.7585 7.58471 20.1076 7.55772 21.0588C7.50655 22.8621 7.64085 24.6959 7.75993 26.4948C7.8353 27.6333 7.935 28.7783 8.06324 29.9119C8.12773 30.482 7.93924 28.7708 7.90147 28.1981C7.79583 26.5964 7.67589 24.9959 7.58805 23.393C7.51027 21.9738 7.50244 20.503 7.17858 19.1137C7.11095 18.8236 6.90809 18.3294 6.63262 18.7877C6.22691 19.4628 6.12 20.4604 6.05128 21.2271C5.94304 22.4346 5.98312 23.6652 6.01083 24.8755C6.03748 26.0393 5.94536 27.3351 6.24337 28.4714C6.40025 29.0697 6.34019 27.8934 6.33437 27.7985C6.27215 26.7849 6.15985 25.7725 6.08161 24.7599C6.03362 24.1388 5.94586 23.52 5.90468 22.8989C5.87181 22.4032 5.89962 23.4236 5.89962 23.4719C5.89962 25.3212 5.96284 27.142 6.06139 28.9866C6.13453 30.3558 6.14185 31.8026 6.44558 33.1451C6.79861 34.7054 6.40875 29.9358 6.26359 28.34C6.12968 26.8678 5.96264 25.3619 5.89962 23.8872C5.89609 23.8046 5.78826 23.5019 5.82885 23.719C5.93117 24.2662 5.89557 24.825 5.91984 25.3802C6.00486 27.3255 6.07734 29.3056 6.3647 31.2315C6.68473 33.3763 7.19945 35.562 7.67904 37.6767C8.03262 39.2358 8.24589 40.9 8.72041 42.424C9.23895 44.0893 9.29563 41.3631 9.31692 40.952C9.53297 36.7793 9.53935 32.618 9.53935 28.4399C9.53935 25.7564 9.73402 17.7163 9.86288 20.3964C9.8966 21.0979 9.76864 21.8725 9.71122 22.5676C9.53601 24.6892 9.38113 26.7981 9.36242 28.9288C9.34791 30.5803 9.23925 32.2982 9.41297 33.9442C9.42177 34.0275 9.62013 35.3206 9.82244 34.9115C10.2789 33.9884 10.2786 32.7074 10.4189 31.7099C10.8813 28.4245 11.4863 25.1703 12.1883 21.9315C12.6251 19.9162 13.1879 17.9419 13.6644 15.9384C13.8778 15.0411 13.5962 15.1391 13.2498 15.8963C12.3716 17.8161 11.9653 20.0424 11.6676 22.126C11.1967 25.4219 11.1159 28.7895 11.3744 32.1094C11.4777 33.4365 11.6064 34.8054 11.9052 36.1048C12.0902 36.9096 12.3351 34.9746 12.3399 34.9272C12.9354 29.0233 13.7459 23.1852 14.6653 17.3263C14.8587 16.094 15.0617 14.8613 15.2315 13.6252C15.307 13.0753 15.4649 12.3688 15.3376 11.8062C15.1794 11.1069 14.212 13.7458 14.2053 13.7672C12.2071 20.1001 12.0616 27.0157 12.4714 33.613C12.5612 35.0588 12.5628 36.6821 12.9769 38.0815C13.0626 38.3713 13.1427 38.1671 13.1892 37.9817C13.3618 37.2934 13.4284 36.5676 13.5026 35.863C13.7576 33.4417 13.9672 31.0259 14.3418 28.6186C14.8963 25.0545 15.643 21.5257 16.4043 18.0044C16.699 16.641 17.0041 15.2731 17.1929 13.8881C17.2775 13.267 17.3674 12.5832 17.2081 11.9639C16.8723 10.6592 16.0158 13.1137 15.9493 13.3098C15.1577 15.6444 14.8508 18.1692 14.6956 20.6278C14.4595 24.3702 14.5382 28.1296 14.7967 31.8676C14.9093 33.4948 15.0699 35.1169 15.2163 36.741C15.2741 37.3825 15.3568 37.8333 15.5904 36.8934C15.9878 35.2943 16.1602 33.6337 16.5357 32.0253C17.3872 28.3778 18.4115 24.7589 19.4475 21.164C20.3683 17.969 21.3871 14.7971 22.1065 11.5434C22.1877 11.1762 23.0398 8.15969 22.2683 7.91593C21.5726 7.69614 20.6483 9.86576 20.4686 10.2133C18.9205 13.2077 17.9163 16.4625 17.3092 19.7971C16.7475 22.8817 16.4004 26.1179 16.6115 29.26C16.6301 29.5356 16.8134 32.3126 17.6175 31.6731C18.5444 30.936 19.0538 29.2811 19.5284 28.2401C20.6771 25.7206 21.8251 23.1924 22.8547 20.6172C23.6336 18.6691 24.4526 16.6112 24.6341 14.4874C24.7056 13.6507 24.7973 12.1118 23.8758 11.6695C23.071 11.2832 21.9202 11.8182 21.2522 12.2689C19.6258 13.366 18.5169 15.3639 17.8652 17.2053C17.1333 19.2738 16.7152 21.6064 16.9199 23.8136C17.0346 25.0504 17.3364 27.1047 18.9521 26.9784C20.082 26.8901 21.1019 25.2554 21.7223 24.4602C23.4527 22.2425 24.8399 19.751 26.1658 17.2579C26.897 15.8831 27.6712 14.4933 27.9503 12.9313C28.1023 12.0805 28.238 10.9173 27.5813 10.2343C27.1178 9.7523 26.3067 9.90504 25.7564 10.1134C24.2848 10.6706 22.9028 12.0713 21.9346 13.3098C20.7545 14.8195 19.9495 16.7812 19.7811 18.7247C19.6908 19.7677 19.7813 21.1794 21.0146 21.3743C22.1961 21.561 23.439 20.8172 24.3864 20.1809C26.1638 18.9871 27.7673 17.458 29.2697 15.9173C30.5211 14.634 31.8795 13.259 32.687 11.6117C33.099 10.7713 32.9851 9.85562 32.1967 9.28279C31.3364 8.65781 30.1674 8.78552 29.2242 9.08302C27.5304 9.61728 25.9033 10.497 24.4723 11.5749C22.5591 13.0162 20.4063 15.0969 21.7476 17.7205C23.0763 20.3197 27.0208 19.1482 28.9816 18.262C31.0068 17.3468 32.8843 16.069 34.6029 14.6346C35.8651 13.5811 37.3348 12.3614 38.2528 10.9546C39.7964 8.58878 36.5805 7.70931 34.9012 7.51113C32.669 7.24772 30.1991 7.45351 28.016 8.02107C27.085 8.26313 26.2556 8.77987 25.3418 9.06199C24.7518 9.24415 24.151 9.33046 23.5523 9.46154C22.9966 9.58321 23.8431 9.45414 23.9719 9.42474C25.049 9.17885 26.2941 8.67641 27.2628 8.13673C27.9622 7.74711 27.8389 7.55842 27.0808 7.49536C26.0613 7.41054 25.0747 7.36717 24.0578 7.49536C23.595 7.5537 23.2999 7.60033 23.9365 7.58999C25.2028 7.56941 26.4503 7.1345 27.7178 7.04324C29.6327 6.90537 31.6164 6.98972 33.511 6.69627C35.112 6.44829 36.7842 6.54907 38.3994 6.54907C39.9073 6.54907 41.4037 6.27833 42.9136 6.43341C44.1241 6.55774 45.3526 6.36202 46.5736 6.4597C48.065 6.57901 49.623 6.36825 51.103 6.5701C51.7821 6.66272 52.5386 6.92758 53.2161 6.92758C54.0412 6.92758 54.8506 6.93197 55.6678 7.01696C56.0213 7.05372 56.5336 7.17822 56.8558 7.32713C57.5259 7.63684 58.3804 7.40073 59.0902 7.40073C60.0391 7.40073 61.109 7.60896 62.0374 7.44804C62.0641 7.44341 62.4668 7.41008 62.4569 7.35867C62.3705 6.9093 61.3202 6.68756 61.0112 6.60164C57.7464 5.69401 54.1174 5.91844 50.83 6.58061C48.6891 7.01186 45.6854 7.5349 44.41 9.67182C43.4165 11.3364 44.6754 13.0758 45.8557 14.1825C47.111 15.3594 50.0268 16.9589 51.6844 15.7754C52.6035 15.1191 52.4818 14.0082 51.8512 13.1994C50.4511 11.4036 48.0632 11.0055 45.967 10.9966C44.1226 10.9888 42.3128 11.367 40.6085 12.1006C39.6525 12.5121 38.6358 13.3043 38.8088 14.5294C38.9476 15.5121 39.7865 16.4819 40.4315 17.1528C41.4208 18.1815 42.8685 18.8888 44.228 19.182C45.6018 19.4784 49.4577 19.1744 48.6361 16.8216C48.1725 15.494 46.9015 14.616 45.7648 13.9722C44.0131 12.9801 42.2631 12.7274 40.2951 12.9944C37.673 13.35 35.4006 14.2337 33.2127 15.7176C32.392 16.2742 31.4533 17.1759 30.4273 17.2369C29.4512 17.2949 28.5572 16.1687 27.6874 15.8227C25.8464 15.0903 23.7578 15.3576 22.0256 16.2959C20.8856 16.9133 20.1809 17.7836 19.3312 18.7352C19.1981 18.8843 18.6223 17.2857 18.5275 17.0949C18.1795 16.3948 17.5988 15.8984 16.8694 15.686C16.2988 15.5199 16.0294 15.7845 16.2375 16.3905C16.7813 17.9741 16.5793 19.6805 16.5863 21.3322C16.5934 23.0229 16.7519 24.7077 16.7076 26.4001C16.6551 28.4063 16.5458 30.4063 16.5458 32.4143C16.5458 35.0926 16.8188 37.7582 16.8188 40.4315C16.8188 42.2679 16.6834 36.7585 16.4953 34.9325C16.3868 33.8796 16.3224 32.7707 16.0706 31.7414C16.0162 31.5187 15.7986 30.726 15.464 31.079C14.9109 31.6625 14.6769 32.6614 14.4985 33.4237C14.094 35.1516 13.9348 36.9375 13.9121 38.7124C13.8995 39.6936 13.8759 40.6933 14.0182 41.6669C14.0413 41.8245 14.3346 43.1341 14.5238 42.3398C14.7973 41.1911 14.6149 39.8164 14.4631 38.6703C14.274 37.243 14.0411 35.7044 13.4116 34.4015C13.2172 33.9991 12.8003 33.1496 12.254 33.1766C11.4112 33.2183 11.1967 34.2488 11.0963 34.9272C10.8697 36.459 10.9295 38.0561 11.1873 39.5798C11.3786 40.7098 11.6376 42.0458 12.1731 43.0601C12.3666 43.4266 12.7255 43.5106 12.8454 43.0338C13.0933 42.0487 12.8271 40.8351 12.6331 39.869C12.398 38.6983 12.1076 37.5346 11.6322 36.4413C11.4877 36.1091 11.179 35.3916 10.7223 35.4004C9.65645 35.4209 9.54305 39.0076 9.50396 39.6534C9.36832 41.8947 9.21456 44.7043 10.1561 46.8084C10.2511 47.0208 10.5676 47.4212 10.8082 47.1396C11.0316 46.8782 11.1107 46.378 11.1772 46.0619C11.3628 45.1809 11.4737 44.2799 11.5816 43.386C11.8076 41.5153 11.9515 39.6411 11.8546 37.7556C11.816 37.0039 11.8668 34.3868 10.8486 34.2333C10.1743 34.1317 9.56318 35.426 9.35736 35.9156C8.60379 37.708 8.15295 39.9453 8.29577 41.8982C8.29861 41.937 8.87137 45.2649 9.26637 44.6004C9.53764 44.1441 9.54216 43.4692 9.57979 42.9549C9.67864 41.6039 9.56456 40.2484 9.5444 38.8964C9.53096 37.9946 9.6288 37.0413 9.4888 36.1469C9.44162 35.8455 9.31336 35.5513 9.02372 35.4267C7.77572 34.8896 6.88791 37.0599 6.72361 37.9711C6.44614 39.5101 5.99602 41.2936 6.10183 42.8656C6.20866 44.4528 6.88189 45.9147 6.98648 47.4919C7.03454 48.2165 6.98063 48.9526 6.99154 49.6788C7.00029 50.2615 7.2454 50.8056 7.26452 51.3822C7.29388 52.2676 7.42606 53.0224 7.71948 53.8425C7.89397 54.3302 7.76433 54.1348 7.53244 53.8635C7.12566 53.3876 6.92588 52.956 6.62757 52.4021C6.51135 52.1862 6.55381 51.5452 6.37481 51.7081C6.24292 51.8281 6.35459 52.6131 6.35459 52.7595C6.35459 53.459 6.50617 54.2075 6.8601 54.8098C7.43479 55.7878 8.66576 55.5945 9.5899 55.8034C10.2998 55.9639 11.0604 55.82 11.7838 55.9454C13.1 56.1735 14.4089 56.1191 15.737 56.1346C17.4577 56.1548 19.2271 56.6345 20.9186 56.939C23.3835 57.3827 25.8998 57.5554 28.3749 57.9326C31.3748 58.3898 34.4686 58.5941 37.4945 58.8053C39.8455 58.9694 42.1487 59.0488 44.5111 58.9683C46.9077 58.8865 49.2712 58.495 51.6591 58.3321C53.7441 58.19 55.873 58.0272 57.9629 58.0272C59.9628 58.0272 61.9472 57.6519 63.9331 57.4069C66.2149 57.1253 68.4781 57.0248 70.7677 56.8707C71.5984 56.8147 72.4078 56.6252 73.2295 56.5184C73.5738 56.4737 73.7798 56.1354 74.0181 55.8876C74.7635 55.1124 74.83 53.9577 75.0342 52.9383C75.3583 51.3205 76.069 49.8421 76.2576 48.1858C76.4267 46.7005 76.5437 45.183 77.0462 43.7645C77.3443 42.923 77.3033 41.9165 77.4203 41.0361C77.5573 40.0052 77.5272 39.0257 77.3293 38.0079C76.9318 35.9639 76.7216 33.9119 76.3739 31.8623C75.8919 29.0219 75.5425 26.1035 76.1464 23.2774C76.5077 21.5866 76.6587 19.7675 75.9593 18.1674C75.5596 17.253 75.1768 16.377 74.7309 15.4862C74.47 14.9649 74.2591 14.317 73.9423 13.8355C73.345 12.9277 72.5219 12.4769 71.4703 12.2426C70.2867 11.9788 69.0502 11.9296 67.8458 11.8483C66.0894 11.7297 64.3348 11.5864 62.5783 11.4698C59.227 11.2473 55.902 10.7382 52.5539 10.4867C50.9947 10.3696 49.4273 10.2784 47.8677 10.4341C47.2937 10.4914 46.1677 10.529 46.2096 11.4014C46.2604 12.4572 47.3468 13.5114 48.0093 14.1825C49.6653 15.86 51.7207 17.0935 53.7823 18.1464C55.7852 19.1693 57.9481 19.8689 60.1316 20.3334C60.923 20.5017 61.9527 20.7032 62.7704 20.5331C63.1758 20.4488 62.1938 19.8964 61.8301 19.692C60.0988 18.7187 58.0521 18.3361 56.1734 17.7941C53.4377 17.005 50.756 16.1182 48.0851 15.1182C45.7555 14.2461 43.4391 13.4372 41.0129 12.905C37.8922 12.2204 34.9055 12.1259 31.8428 13.1205C30.7365 13.4798 29.6596 13.9172 28.5771 14.3454C28.0133 14.5685 27.3148 14.7324 26.8281 15.1235C26.5717 15.3295 26.3603 15.6314 26.1507 15.8858C25.3409 16.8683 24.5947 17.9107 23.7949 18.9034C22.3106 20.7458 20.9605 22.7355 19.7811 24.8019C19.2467 25.7385 18.7042 26.7031 18.3202 27.7197C18.146 28.1807 17.9586 28.8383 18.6589 28.3242C19.9519 27.3751 20.9777 26.024 22.0711 24.8493C22.6374 24.2409 23.2335 23.6582 23.7747 23.025C23.8959 22.8832 24.2387 22.4456 23.7697 22.8358C22.1457 24.1869 20.6677 25.815 19.3211 27.4568C18.2972 28.7052 17.3339 30.0087 16.4144 31.3419C15.9449 32.0226 15.1632 32.949 14.9332 33.797C14.6378 34.8861 17.0283 33.1996 17.1221 33.1293C18.9666 31.7459 20.7558 30.2732 22.6525 28.9656C23.1897 28.5953 23.7915 28.2966 23.0872 29.1023C21.535 30.8779 20.0386 32.6996 18.5679 34.5487C18.3227 34.857 17.8012 35.5061 17.5569 35.863C17.4046 36.0854 17.0211 36.7162 17.2687 36.6253C17.7467 36.4499 18.3144 35.7339 18.6589 35.4109C19.5226 34.601 20.3847 33.79 21.2724 33.0084C22.1008 32.279 23.1944 31.6327 23.9062 30.7741C24.6517 29.8747 22.001 32.0992 21.1561 32.898C20.1781 33.8227 19.3712 34.8552 18.7196 36.0523C18.533 36.3949 17.5394 38.431 18.7145 37.3718C19.8799 36.3214 20.8679 34.6462 21.3735 33.1503C21.5091 32.7492 21.8149 31.8404 21.3988 31.447C21.0459 31.1134 20.2827 31.3402 19.9227 31.4523C18.6293 31.8548 17.6009 32.7092 16.7885 33.8127C15.5018 35.5603 14.4004 37.6318 14.2103 39.8585C14.1213 40.9012 14.1873 41.9688 14.367 42.997C14.4392 43.4099 14.5382 44.0056 14.8473 44.3271C15.7577 45.2738 16.5033 43.0267 16.6368 42.4765C16.9623 41.1348 17.1901 39.0368 15.5803 38.4863C13.6883 37.8395 11.8588 40.3076 11.3238 41.9035C10.8154 43.4203 11.0216 45.5606 11.7889 46.9609C12.2086 47.7267 13.0452 48.5755 13.9525 48.1332C15.0548 47.5959 16.04 46.2343 16.3133 45.0105C16.5992 43.7299 15.788 42.6162 14.4934 42.834C11.9714 43.2583 10.2118 45.8009 11.1216 48.3383C11.4269 49.1897 12.019 50.1263 12.7342 50.6672C13.5837 51.3097 13.3974 49.9248 13.2802 49.458C12.7498 47.3454 9.95584 46.0749 9.09449 48.6484C8.82836 49.4436 8.96334 50.2663 9.30175 51.0142C9.86473 52.2583 10.7203 52.5774 11.9911 52.3442C13.8805 51.9975 15.3914 50.8505 16.8137 49.5737C18.1656 48.3602 19.4364 47.0842 20.0642 45.3101C20.414 44.3216 20.6025 43.184 20.2968 42.1506C20.2138 41.8701 20.2023 42.7304 20.1856 43.0233C20.1182 44.2001 19.9672 45.5998 20.3372 46.7453C20.4928 47.227 20.7765 47.5986 21.1915 47.1291C22.5578 45.5836 23.257 43.3739 23.4967 41.3357C23.7894 38.8468 23.4757 36.3528 23.2288 33.8758C23.0912 32.4953 22.8422 31.098 23.0468 29.7121C23.1579 28.9594 23.365 28.2307 23.5422 27.4936C23.5484 27.4678 23.6433 26.717 23.6433 27.0941C23.6433 29.9573 23.4489 32.9458 24.0528 35.7579C24.2073 36.4775 24.3896 36.7452 24.8161 36.0102C25.583 34.6888 25.9977 33.1919 26.2821 31.6888C26.5782 30.124 26.8179 28.5243 26.8179 26.9258C26.8179 25.8674 26.6922 24.803 26.7472 23.7453C26.7929 22.8648 26.915 21.7824 27.192 20.9327C27.2566 20.7345 28.0309 18.9103 28.1323 19.6289C28.1929 20.0586 28.094 20.5558 28.0565 20.9852C28.0048 21.5767 28.0699 22.1367 28.0969 22.7254C28.1371 23.603 28.1438 24.4099 28.3749 25.2646C28.8554 27.041 28.0672 28.8564 28.5114 30.6532C28.7478 31.6091 28.6167 32.6175 28.6479 33.5919C28.7077 35.4578 28.7658 29.8583 28.9209 27.9983C29.047 26.486 29.2517 24.9463 29.6539 23.4824C29.8683 22.7019 30.1948 21.8017 30.1948 20.98C30.1948 20.6527 30.104 20.7813 29.9724 21.0168C29.5565 21.7606 29.4 22.6169 29.1737 23.4351C28.5716 25.6111 28.1613 27.7574 28.6125 30.0223C28.955 31.7412 29.5327 33.3371 29.5579 35.1165C29.5752 36.3426 29.5115 37.623 29.3556 38.8386C29.215 39.9359 29.0514 41.0082 29.0169 42.119C28.9854 43.1373 29.0141 44.1615 29.0574 45.1787C29.0831 45.7827 29.3123 47.5332 29.0523 46.9924C28.8313 46.5327 28.8819 45.8037 28.8299 45.3049C28.6265 43.3528 28.3647 41.4001 28.0817 39.4589C27.8145 37.6257 27.5604 35.3248 26.6258 33.7076C25.8711 32.4015 24.5035 33.5402 24.078 34.5067C23.0282 36.8916 22.867 39.9293 22.8244 42.5081C22.7872 44.7573 22.962 47.3581 23.8101 49.458C24.2452 50.5353 24.6522 49.3153 24.7453 48.7746C25.118 46.6118 24.6798 44.1694 23.9163 42.1506C23.5045 41.062 22.885 40.0158 21.6313 40.0372C19.6939 40.0702 19.6738 42.4272 19.6851 43.9065C19.6993 45.7755 19.9528 48.3966 21.5555 49.6158C23.1541 50.8318 23.7556 48.3718 23.9112 47.229C24.2078 45.0513 23.8551 43.0428 22.7536 41.1517C21.8632 39.623 20.1194 36.9991 18.305 38.807C16.8032 40.3036 16.4051 42.2618 16.748 44.3165C17.083 46.3239 17.5256 48.8828 19.498 49.8366C20.6773 50.4068 22.0537 50.5308 23.0721 49.5895C24.2113 48.5364 25.4963 46.7347 24.4218 45.2155C23.4141 43.7908 21.7082 43.3437 20.1249 43.9065C18.3333 44.5433 18.168 46.3652 18.8308 48.0123C19.242 49.0344 20.1262 50.2142 21.1865 50.5621C22.202 50.8953 23.4453 50.2577 24.0275 49.3844C25.4856 47.1973 19.8275 46.2751 18.851 46.3668C16.6501 46.5736 16.0874 49.2369 16.748 51.0878C17.3369 52.7376 19.9373 52.8253 21.0348 51.7817C21.5871 51.2566 21.4841 50.3039 21.0146 49.7682C20.2571 48.9038 18.6903 48.2753 17.567 48.4276C16.4854 48.5743 15.9126 49.5645 16.7278 50.4517C18.332 52.1975 21.6661 51.4207 23.613 50.8827C25.1457 50.4592 26.3246 49.8193 27.9301 49.9102C29.5946 50.0044 31.2558 50.101 32.9145 50.2676C38.1391 50.7925 43.3334 51.5857 48.3732 49.5001C49.7812 48.9174 51.0506 48.1141 52.2758 47.1922C52.6444 46.9148 55.0093 45.4202 53.7924 44.7634C52.1633 43.8842 49.6037 44.7869 47.989 45.1787C45.1672 45.8634 42.3903 46.7115 39.5823 47.4498C38.2034 47.8124 36.7882 48.2359 35.3612 48.333C34.4656 48.394 33.4716 48.5027 32.7123 47.923C32.2325 47.5566 31.5458 47.4389 32.1967 46.882C32.9058 46.2753 33.8213 45.8982 34.6333 45.4731C36.3772 44.56 38.051 43.5058 39.8199 42.6448C40.9445 42.0973 42.0689 41.5372 43.2068 41.0203C43.7481 40.7744 44.3442 40.6027 44.8295 40.2422C47.1673 38.5057 49.8472 37.4178 52.478 36.2626C53.7917 35.6857 55.035 34.9269 56.2997 34.2438C56.9288 33.9041 57.5773 33.6065 58.2005 33.2555C58.6008 33.03 57.5805 33.955 57.2198 34.2438C53.8281 36.9599 50.3085 39.5618 46.6444 41.8667C44.0499 43.4987 35.8024 47.5071 38.4398 45.9515C42.4221 43.6027 46.8587 41.8877 51.3254 40.8573C51.5733 40.8001 56.4062 39.7851 56.3402 40.3001C56.3042 40.5804 55.6012 40.9091 55.4505 40.9888C54.4666 41.5089 53.4183 41.9131 52.3769 42.2873C48.0914 43.8272 43.5024 44.6541 39.0262 45.3312C36.3764 45.732 33.7118 45.8218 31.0643 46.2722C30.0525 46.4443 29.0676 46.6554 28.0868 46.9714C27.4745 47.1687 25.8935 47.4379 25.5339 48.107C24.9201 49.2493 26.0031 50.1125 26.9241 50.4569C29.4763 51.4112 32.0228 50.9031 34.6333 50.5726C35.1762 50.5038 35.7166 50.4138 36.261 50.3623C37.0028 50.2922 34.771 50.3566 34.0266 50.3833C31.4054 50.4773 28.7887 50.5515 26.1658 50.5515C25.2377 50.5515 24.2721 50.4787 23.3551 50.6567C22.9689 50.7317 22.2877 50.844 22.056 51.2297C21.4572 52.2261 22.7434 52.9553 23.4815 53.2747C24.391 53.6683 25.3752 53.8893 26.3276 54.1369C27.2108 54.3665 28.0708 54.7162 28.9664 54.8887C31.5372 55.3838 34.0254 55.1884 36.625 55.1884C38.8112 55.1884 40.9911 55.3776 43.1714 55.3776C44.1168 55.3776 45.0621 55.3776 46.0074 55.3776C46.9589 55.3776 47.9192 55.5956 48.8686 55.6825C50.5365 55.8352 52.1773 56.0374 53.853 56.1399C55.5986 56.2467 57.3444 56.4561 59.0902 56.5868C60.5843 56.6985 62.0211 56.7086 63.4983 56.408C65.2353 56.0546 66.8783 55.2888 68.4574 54.4786C70.9909 53.1789 71.9375 50.0399 72.628 47.3867C72.8866 46.3929 73.0277 45.3782 73.1891 44.3639C73.2967 43.6873 73.764 41.6867 73.6188 42.3556C73.3696 43.5033 73.0189 44.6261 72.7645 45.7728C72.4855 47.0299 72.2596 48.3002 72.0618 49.5737C72.0259 49.8044 71.9889 50.0352 71.9657 50.2676C71.9371 50.5557 71.9601 50.5444 72.0719 50.336C72.5216 49.4981 72.6553 48.4666 72.7796 47.5339C73.0012 45.8713 73.182 44.1579 72.8605 42.4976C72.7427 41.8894 72.5758 40.0221 71.7989 39.8374C70.5186 39.5331 69.1156 41.2128 68.4271 42.0822C66.7789 44.1636 65.3895 46.4882 64.2768 48.9218C64.2202 49.0456 63.3077 50.7779 63.5185 51.0825C63.6572 51.2827 64.4981 50.2626 64.5195 50.2361C65.4564 49.0745 65.6948 47.4691 65.3586 46.0093C64.7851 43.5194 62.404 43.5751 60.4147 44.2114C58.2269 44.9111 56.4975 46.6007 55.3696 48.6327C55.0458 49.2159 54.2757 50.5293 54.8742 51.2455C55.2884 51.7412 56.1683 51.6261 56.6738 51.44C57.8486 51.0075 58.9882 49.413 58.9436 48.1017C58.8803 46.2429 56.3331 46.3065 55.1876 46.7453C53.8768 47.2476 52.2721 48.496 51.922 50.0048C51.6233 51.2913 53.5236 51.8291 54.3788 51.4558C55.6043 50.9208 56.4694 49.8757 55.4808 48.6484C54.0904 46.9224 52.1022 46.8176 50.1628 47.5129C49.7661 47.6551 47.7724 48.4582 48.4137 49.2846C49.5267 50.7189 52.0264 50.2837 53.4385 49.8418C54.0116 49.6625 54.8057 49.4219 55.2432 48.9218C55.76 48.3312 55.5738 47.3291 55.1876 46.7243C54.2363 45.2342 51.5407 45.8497 50.3447 46.6402C49.2515 47.3628 49.1099 48.4125 50.3751 49.0322C52.5091 50.0774 55.4384 49.6044 57.5635 48.7956C58.5384 48.4246 61.5215 47.2817 60.4147 45.736C59.3223 44.2105 57.5909 44.7496 56.1127 45.2418C54.7215 45.705 52.6793 46.4293 52.4174 48.2174C52.1256 50.2092 56.0578 50.1293 57.0884 50.0679C59.3118 49.9355 61.3349 48.6133 62.922 47.0608C63.4256 46.5682 64.193 45.8106 64.2263 45.0157C64.2573 44.2737 63.5964 43.6279 62.9625 43.4123C61.0837 42.7733 58.8001 44.596 57.4928 45.7728C56.6358 46.5442 55.8817 47.4614 55.3393 48.5012C55.0049 49.1421 54.4718 50.2132 54.7984 50.9774C55.273 52.088 57.1575 52.1224 58.0943 51.971C59.6654 51.7171 61.1705 50.9734 62.189 49.6788C62.832 48.8616 63.3147 47.8855 62.8007 46.861C62.042 45.3488 60.7504 45.0242 59.2823 45.6308C58.3756 46.0055 58.0325 46.837 58.4634 47.7705C59.2514 49.4778 61.5717 48.9228 62.9271 48.5065C64.6994 47.9621 67.2594 46.5847 66.8246 44.1904C66.4715 42.2459 64.187 43.3517 63.6298 44.4743C63.144 45.4527 62.855 47.4505 64.0443 48.0807C65.1935 48.6897 67.2377 47.5732 68.0682 46.7769C68.9035 45.976 69.6373 44.7815 70.07 43.6909C70.0969 43.6232 70.1983 43.2657 69.9791 43.2756C69.7352 43.2866 69.4624 43.9199 69.3977 44.0432C68.7465 45.2848 68.4723 46.6437 68.5636 48.0544C68.6076 48.7337 68.8583 49.3464 68.9427 50.0048C68.9611 50.1476 68.0926 50.0768 68.0176 50.0784C66.7692 50.1044 65.5726 50.5436 64.3476 50.7513C62.9552 50.9873 61.5461 50.973 60.1417 51.0457C59.1156 51.0988 58.117 51.2075 57.0884 51.1193C53.6097 50.8211 50.1904 50.5376 46.9578 49.027C46.558 48.8401 46.1102 48.6051 45.8305 48.2384C45.5441 47.8629 46.0186 47.2043 46.2046 46.882C46.7944 45.8597 47.8094 45.3939 48.8231 44.9001C51.5029 43.5948 54.2856 42.5332 56.962 41.2148C58.0377 40.6849 59.1242 40.1635 60.1821 39.5956C60.6926 39.3216 59.0938 39.979 58.5544 40.1844C55.1536 41.4795 51.7814 42.8013 48.444 44.264C47.5806 44.6424 48.8403 44.2931 49.0203 44.2272C51.1267 43.4552 53.0723 42.0537 54.95 40.8363C58.6287 38.4513 63.3692 36.0041 65.0856 31.5416C65.4574 30.575 65.7021 29.3157 65.581 28.2717C65.5147 27.6996 65.2845 26.5562 64.5195 26.9679C63.3188 27.614 62.4419 28.9621 61.633 30.0328C60.8989 31.0045 60.187 31.9941 59.5755 33.0557C59.0504 33.9673 58.4002 35.0318 58.251 36.1101C58.0703 37.4163 59.3942 37.9812 60.445 37.8292C62.5834 37.52 64.7923 35.6248 66.2281 34.0546C66.9787 33.2337 67.6729 32.3026 68.1845 31.2998C68.4706 30.7389 68.8262 29.9655 68.5029 29.3231C67.703 27.7333 65.3236 29.0658 64.3678 29.607C62.4734 30.6797 60.223 32.1236 59.1964 34.186C57.8248 36.9412 59.0578 39.8423 62.007 40.4C65.0316 40.9718 68.4618 39.1463 70.7727 37.2719C71.7886 36.448 74.6418 33.7213 73.184 32.162C72.6334 31.573 71.7642 31.4778 71.0305 31.6363C69.8616 31.8888 69.1342 32.4036 69.0388 33.7076C68.9395 35.0641 70.4154 36.1624 71.5057 36.5359C73.0423 37.0623 74.5389 36.1959 74.7714 34.5172C74.8732 33.7822 74.8065 32.8509 74.463 32.183C74.0547 31.3891 74.183 32.892 74.1951 33.061C74.2523 33.8601 74.3466 34.6552 74.4175 35.453C74.4746 36.095 74.552 36.5541 74.1243 37.0406C73.0307 38.2845 72.0656 40.1373 72.3398 41.872C72.4739 42.7204 73.0701 43.1159 72.5724 43.938C72.1669 44.6077 71.5887 45.1772 71.0204 45.6939C69.8173 46.788 68.6038 47.8856 67.3706 48.9428C66.465 49.7192 65.5463 50.4793 64.6408 51.256C63.957 51.8425 63.1572 52.4489 62.2851 52.6859C61.9847 52.7676 61.6515 52.7379 61.3448 52.7911C60.5533 52.9283 59.7886 53.1694 59.0043 53.3326C57.6947 53.6049 56.467 53.3348 55.1826 53.0592C53.7231 52.746 52.3202 52.0958 50.8705 51.7081C49.5089 51.344 48.0268 51.2291 46.6292 51.0773C46.0029 51.0092 45.3969 51.0615 44.784 51.2139C44.7191 51.2301 43.6863 51.5198 44.228 51.645C44.5198 51.7125 44.8634 51.5835 45.1329 51.5031C46.0056 51.2426 46.8746 50.9378 47.7161 50.5831C49.6258 49.778 51.5102 48.6418 53.0847 47.25C54.8994 45.6459 56.3145 43.5905 57.9174 41.7721C59.1497 40.3741 60.5055 39.0911 61.7947 37.7503C63.598 35.875 65.4096 34.0164 66.8246 31.794C68.5585 29.0709 70.865 25.0034 69.6353 21.6529C68.7677 19.2889 65.9607 19.4327 63.9331 19.0611C61.6568 18.6439 59.391 18.1875 57.1086 17.8047C54.5345 17.3729 51.9869 16.7317 49.3741 16.6008C46.7092 16.4672 44.0542 16.2267 41.387 16.1276C40.0443 16.0778 38.68 16.0799 37.3479 15.87C36.7506 15.7759 37.3718 16.2932 37.6158 16.5324C37.8493 16.7613 38.0717 16.9216 38.364 17.0529C38.4817 17.1058 38.7679 17.2421 38.4651 17.2421C36.8131 17.2421 35.2096 16.6916 33.5616 16.7164C33.2945 16.7204 31.216 17.0722 31.216 17.4735C31.216 17.6571 32.7979 17.5245 32.9145 17.526C35.08 17.5538 37.0122 18.877 39.0717 19.3713C40.693 19.7604 42.1179 20.2054 43.5203 21.143C44.1575 21.569 44.7754 22.0222 45.3856 22.4888C45.7001 22.7293 46.0751 22.8693 46.3815 23.1144C47.3894 23.9207 48.3186 24.8649 49.2933 25.7167C50.4706 26.7457 51.6658 27.6889 53.0341 28.4294C53.8907 28.893 54.7648 29.4137 55.5718 29.9645C56.0892 30.3176 56.5256 30.7365 57.0176 31.1316C57.4818 31.5043 57.9513 31.7972 58.4836 32.0568C58.5388 32.0837 59.0353 32.4025 59.1104 32.2671C59.2974 31.93 58.7058 30.9943 58.5847 30.7741C57.4277 28.6705 55.8183 26.781 54.4597 24.8177C53.6353 23.6265 52.8955 22.4822 51.8562 21.4742C51.125 20.7649 50.3082 20.186 49.546 19.5185C49.2748 19.281 48.9781 19.0383 48.7271 18.7772C48.3295 18.3638 49.6371 19.464 50.092 19.8076C52.5079 21.6325 55.0306 23.3542 57.5534 25.0122C59.6325 26.3786 61.9233 27.1569 64.1201 28.2612C64.3902 28.3969 66.2228 29.4506 66.1169 28.7238C65.8326 26.7722 64.2544 24.9089 63.1596 23.372C62.4081 22.317 61.7925 21.1604 60.9556 20.1704C60.1653 19.2355 59.1438 18.4484 58.16 17.7468C57.8789 17.5464 57.3516 17.3513 57.149 17.0529C56.9663 16.7837 57.6459 17.462 57.8972 17.6627C59.0945 18.619 60.5304 19.1944 61.82 19.9969C63.1971 20.8538 64.5526 21.8129 65.7024 22.983C66.4789 23.7732 67.2139 24.6075 67.9823 25.4065C68.0417 25.4684 68.7632 26.0895 68.3614 25.927C65.2973 24.6878 62.0042 23.527 59.2166 21.7002C58.262 21.0747 57.4912 20.2261 56.7042 19.3976C55.884 18.5341 54.5163 17.3866 54.3383 16.1066C54.2269 15.3049 54.8661 14.8329 55.496 14.5873C56.9855 14.0064 58.6593 13.7302 60.2478 13.7566C62.7455 13.7982 65.2671 14.8119 66.9763 16.7375C68.9145 18.9211 69.8376 21.6313 70.2824 24.5286C70.3755 25.1353 70.4582 25.745 70.5452 26.3528C70.6178 26.8595 70.6473 26.8421 70.9345 26.3738C71.6046 25.2814 72.0489 23.9672 72.2842 22.6991C72.547 21.2831 71.7978 19.726 71.1064 18.5512C70.5539 17.6125 69.7469 16.847 68.9579 16.1276C67.792 15.0646 66.5761 14.0154 65.3283 13.0574C64.4717 12.3998 63.5329 11.9438 62.5884 11.4487C62.4529 11.3777 61.6419 11.0604 62.0829 10.902C63.7364 10.308 65.8223 10.4386 67.5323 10.6286C69.4618 10.8431 71.4004 11.3247 73.0122 12.4897C74.0426 13.2345 74.5359 14.422 74.8219 15.6545C74.9349 16.1414 74.4435 15.5185 74.3568 15.4179C73.6921 14.6462 73.0313 13.8855 72.2033 13.294C70.4634 12.051 68.1867 10.8272 66.0866 10.3553C65.0806 10.1292 64.0834 10.151 63.0636 10.2186C62.9809 10.224 61.9264 10.5243 62.002 10.555C62.3297 10.6884 63.15 10.273 63.4326 10.187C64.4382 9.8812 65.4603 9.62169 66.4859 9.39845C68.0037 9.06809 69.6149 8.87304 71.1519 9.15662C72.1563 9.34194 73.1154 9.73869 74.0131 10.2396C74.0669 10.2696 74.2446 10.4154 74.0687 10.3605C73.1408 10.071 72.1643 9.93795 71.2125 9.7612C68.7272 9.29966 66.2185 8.97865 63.7612 8.36805C62.6009 8.07973 61.4216 8.27963 60.2428 8.25239C60.0072 8.24695 60.0674 8.189 60.2782 8.14725C61.0218 7.99994 61.7456 7.74373 62.4974 7.64256C64.1178 7.42448 65.6965 7.55888 67.3099 7.72667C69.2692 7.93043 71.1286 8.15891 73.0425 8.65193C74.5651 9.04417 75.9338 9.71963 75.9644 11.5644C75.9815 12.597 75.8546 13.6198 75.8784 14.6504C75.8978 15.4842 76.0082 16.2929 75.8582 17.1212C75.5961 18.5693 75.0797 19.9787 74.6096 21.3638C73.7758 23.8205 72.8076 26.1687 72.2539 28.7238C72.0635 29.6026 71.8805 30.4587 71.8697 31.3629C71.868 31.502 71.7681 32.7653 71.9304 32.0779C72.5915 29.2766 72.8909 26.3786 73.5935 23.5928C73.8361 22.631 73.5726 24.3146 73.5531 24.4707C73.422 25.519 73.3072 26.5718 73.3306 27.6303C73.3564 28.7947 73.5044 29.9463 73.2851 31.1C73.2507 31.281 72.8961 32.9586 73.27 32.5142C75.2842 30.1202 75.3047 26.6205 76.0352 23.6664C76.7723 20.6854 77.8918 17.6357 77.5517 14.5032C77.4344 13.4226 76.8885 12.236 76.2171 11.3962C75.3666 10.3322 74.0778 9.90816 73.1032 9.04096C72.4258 8.43826 71.8363 7.91024 70.9598 7.64782C69.6498 7.25564 68.2173 7.20881 66.8651 7.09581C65.3161 6.96637 63.8182 7.11684 62.28 7.11684C61.4644 7.11684 62.4229 7.11684 62.6996 7.11684C64.2523 7.11684 65.7834 7.16164 67.3099 7.47433C69.0967 7.84033 70.8795 8.18593 72.6583 8.57833C73.8508 8.84139 75.1551 8.97269 76.1919 9.71914C76.4941 9.93672 76.8203 10.1215 77.1271 10.3342C77.4173 10.5354 77.3328 10.3102 77.2383 10.0503C77.077 9.60655 76.9505 9.19075 76.571 8.89376C75.5642 8.1059 74.2661 8.11011 73.0779 7.91593C72.9883 7.9013 71.3849 7.38041 71.3389 7.54793C71.2942 7.71053 72.5362 8.41174 72.6886 8.53628C73.7024 9.36463 73.9559 10.9105 73.6491 12.1532C73.1984 13.9786 72.5165 15.6562 72.6077 17.5786C72.6712 18.9148 72.7734 20.3129 72.9616 21.6371C72.9783 21.7547 72.9818 22.3101 73.2043 22.0787C73.72 21.5423 73.9088 20.5997 74.0485 19.8918C74.1417 19.4191 75.2656 14.5152 74.2608 14.6346C73.0969 14.7729 72.6316 17.0731 72.3954 17.9571C72.1261 18.9654 71.8569 19.9781 71.7989 21.0273C71.7504 21.906 71.8199 22.7893 71.7383 23.6664C71.5924 25.234 71.2253 26.8445 70.9143 28.3873C70.8473 28.7193 70.7713 29.7018 70.6817 29.3757C70.5983 29.0722 70.5406 28.7502 70.3076 28.524C69.5629 27.8012 68.3388 29.5701 67.9974 30.1327C67.4676 31.006 67.6864 31.5173 68.2805 32.2093C68.8704 32.8964 68.8368 33.4597 68.2401 34.1492C67.7393 34.7279 67.0969 35.06 66.4303 35.3899C65.3699 35.9147 64.3667 36.4095 63.5388 37.314C62.4166 38.54 62.7628 40.5794 64.6155 40.7469C65.5237 40.8291 66.6175 39.6406 67.0016 38.9017C67.6683 37.619 67.4726 36.1257 67.5222 34.7327C67.6123 32.2032 68.347 29.5732 69.7263 27.4831C70.1366 26.8614 71.8195 24.4026 72.7998 25.4433C74.2995 27.0354 73.0368 28.5974 72.5774 30.2694C72.2775 31.361 72.1741 32.4717 71.9607 33.5814C71.956 33.6057 71.6735 34.6213 71.895 34.1492C72.327 33.2282 72.6077 32.2025 72.9161 31.2315C73.2671 30.1266 73.5774 28.9939 73.7401 27.8406C73.9438 26.3966 73.8192 25.1078 73.5986 23.6874C73.2364 21.3567 72.4928 18.9919 70.6868 17.4314C69.3703 16.2939 67.181 15.155 65.3991 15.1971C62.764 15.2594 61.5442 18.1 61.1325 20.4122C60.5658 23.5948 62.258 26.5555 64.8834 28.156C67.6939 29.8693 69.2252 26.6146 70.3683 24.4287C70.8064 23.5909 71.2032 22.7741 72.0517 22.31C72.7954 21.9033 74.3123 21.3009 74.3973 22.6465C74.5057 24.3624 73.4762 26.0892 73.1436 27.746C73.0844 28.041 72.5609 30.5171 72.7543 30.548C73.0504 30.5954 73.6292 29.7132 73.7957 29.5334C74.5429 28.7264 75.3109 27.941 76.0554 27.1309C77.5931 25.4576 79.797 23.917 80.7163 21.7633C80.8581 21.4309 81.2877 20.4595 80.696 20.4595" stroke="#FF7262" stroke-opacity="0.53" stroke-width="6" stroke-linecap="round"/>
</svg>
