<svg width="44" height="43" viewBox="0 0 44 43" fill="none" xmlns="http://www.w3.org/2000/svg">
<path d="M8.89432 7.68813C8.8387 7.24312 8.29053 6.59795 7.80414 6.59795C5.49213 6.59795 6.65342 12.9428 9.19715 12.2305C11.1141 11.6938 13.2385 9.61382 12.6191 7.44587C11.915 4.98167 8.03355 5.54667 6.29001 6.05286C4.83869 6.47421 1.00001 8.25438 2.05043 10.4136C3.43206 13.2536 8.21563 12.8424 10.469 11.7157C16.1007 8.89989 12.2374 4.22417 7.59216 8.2635C1.39185 13.6551 15.7412 18.7808 19.8567 12.8362C23.3051 7.85512 12.8757 5.95564 10.0451 10.2016C5.91871 16.3911 19.8336 19.0244 20.0989 10.5347C20.255 5.54119 11.7382 0.981479 10.6507 7.3853C9.4773 14.2954 20.8767 13.0037 19.7355 5.87117C18.9801 1.14962 11.641 7.31977 14.5875 12.2305C18.3457 18.4943 24.4395 9.3171 20.856 8.86915C15.0955 8.14909 15.9995 21.0121 22.5215 19.2561C24.5382 18.7132 26.2582 16.7159 24.9442 14.8046C23.1529 12.1991 19.5095 16.0385 18.4031 17.4997C15.8862 20.8239 15.0496 25.5298 18.5242 28.5832C20.7293 30.521 24.6403 30.8491 25.1259 27.3113C25.4139 25.2125 23.4036 23.3694 21.4314 23.0718C18.1151 22.5712 16.082 26.2182 15.7685 28.9769C15.4979 31.3585 16.4179 37.4258 19.7961 37.4258C22.9201 37.4258 22.6937 31.4914 22.1884 29.5825C21.5957 27.3434 19.6331 26.2993 17.6157 27.6747C14.7712 29.6142 13.2304 34.9652 14.0424 38.2131C16.0152 46.1046 23.1533 37.6384 20.0081 33.0953C16.6356 28.224 13.6134 41.1542 18.8271 35.2454C21.2854 32.4593 22.461 28.6576 22.461 24.9493C22.461 21.8398 20.3353 23.632 19.9172 25.5549C19.4716 27.605 19.7001 30.7505 22.0976 31.4298C25.6936 32.4486 29.4412 27.1982 30.3042 24.3436C32.5907 16.7807 22.4885 18.7561 23.43 26.1C23.8898 29.6863 27.6034 30.3152 30.3345 28.8255C33.6823 26.9994 34.4347 22.5407 33.1205 19.1956C30.986 13.7623 19.5271 24.6293 25.0653 29.9459C31.2112 35.846 38.0491 21.5822 32.3331 20.3463C26.8288 19.1562 23.5984 33.1832 29.6077 34.5489C35.1834 35.8161 33.4112 21.7251 29.3049 26.8874C27.7856 28.7973 27.688 33.1152 29.638 34.8214C31.9158 36.8145 32.5871 29.477 32.3331 28.4015C30.2788 19.7008 24.2852 28.5392 28.3358 29.6734C34.9875 31.5358 34.5226 20.4823 32.0606 20.8611C30.1222 21.1593 30.6083 24.6837 31.031 25.8578C32.1437 28.9486 36.2478 25.6841 37.1178 24.0408C37.7527 22.8415 37.6575 20.3319 37.239 22.7386C36.9476 24.4141 36.2514 25.7445 37.784 26.7662" stroke="#D8A1FF" stroke-opacity="0.64" stroke-width="3" stroke-linecap="round"/>
<path d="M4.94748 8.92874C4.94748 10.7139 5.10969 16.0669 5.10969 14.2817" stroke="#E5E5E5" stroke-linecap="round"/>
<path d="M4.94747 9.25318C4.32012 9.17476 5.60783 7.90431 5.85766 7.79327C6.80159 7.37375 7.92787 7.45052 8.92165 7.29763C9.8159 7.16005 10.6854 6.98222 11.5981 6.98222C11.9825 6.98222 13.5288 7.11268 13.3825 6.82001" stroke="#E5E5E5" stroke-linecap="round"/>
<path d="M5.10969 14.9306C6.2744 14.9306 7.48218 15.3071 8.67833 15.0567C9.98051 14.7842 11.2094 14.6061 12.5354 14.6061C13.174 14.6061 13.7381 14.6061 14.3557 14.6061C15 14.6061 14.886 15.0865 15.0136 15.6605C15.5667 18.1495 16.0651 21.229 15.5002 23.7711C15.1008 25.5683 15.4912 27.2336 15.4912 29.0429C15.4912 30.3876 15.6184 31.5653 15.4822 32.927C15.4013 33.7358 15.1668 34.5584 15.1668 35.3692C15.1668 36.1253 14.9643 36.5047 15.8156 36.5047C16.5062 36.5047 17.2993 36.5023 17.9604 36.3064C18.7705 36.0664 18.5732 35.6859 18.5732 34.8825C18.5732 33.4348 18.8976 32.0436 18.8976 30.5839C18.8976 29.9908 21.9592 29.5643 22.5023 29.4034C22.845 29.3019 26.1079 28.6899 26.1881 28.9708C26.3627 29.5817 26.3779 30.3431 26.5216 30.9895C26.7065 31.8218 26.846 32.6557 26.846 33.5128C26.846 34.7179 26.6562 36.1136 26.855 37.3067C26.9531 37.8955 27.8131 37.3527 28.1437 37.2346C28.8475 36.9832 29.8329 36.7041 30.5768 36.6669C31.5025 36.6206 31.2257 36.4105 31.2257 35.5674C31.2257 34.601 31.0635 33.6627 31.0635 32.6837C31.0635 31.7919 30.5768 30.9503 30.5768 30.0973C30.5768 29.7582 30.693 29.2753 30.5768 29.0429" stroke="#E5E5E5" stroke-linecap="round"/>
<path d="M13.3825 7.30663C13.9162 6.83215 15.5601 6.53383 16.2212 6.9011C16.576 7.09825 17.0051 7.04972 17.2755 7.38773C17.571 7.75712 17.8238 8.17742 18.0145 8.61333C18.6996 10.1794 18.9026 11.8239 19.4203 13.4346C19.8362 14.7284 20.31 16.4815 19.9971 17.8504C19.8448 18.5165 19.8403 19.1946 19.7177 19.869C19.6315 20.3432 19.4863 20.9346 19.5555 21.419C19.805 23.1653 20.8422 22.2301 21.8985 22.2301C22.4959 22.2301 23.9095 21.4176 24.3227 21.0045C24.6506 20.6766 24.8805 20.2068 25.314 19.9591C25.7966 19.6833 26.3056 19.4843 26.7649 19.2292C27.2847 18.9404 28.0858 18.9858 28.6664 18.9858C29.3816 18.9858 29.8837 18.7414 30.6129 18.9498C31.2275 19.1254 31.9208 18.8828 32.5234 19.1841C33.0806 19.4627 33.5292 19.8534 33.9833 20.2835C36.332 22.5086 39.3803 26.2311 42.977 23.9423C43.592 23.5509 42.4198 24.2485 42.2561 24.3749C41.5086 24.9515 40.8455 25.4695 39.949 25.8348C38.2756 26.5165 36.9373 27.6955 34.9565 27.3848C34.0998 27.2504 33.2177 27.1866 32.3612 27.0964C31.7885 27.0361 31.614 26.8978 31.0274 27.1324C30.6998 27.2635 30.2664 27.7422 30.2524 28.1057C30.2362 28.5286 30.4379 29.4835 30.2524 28.5563" stroke="#E5E5E5" stroke-linecap="round"/>
<path d="M12.5714 6.33335C12.6877 5.28686 13.8606 2.92773 14.9956 4.63013C15.3624 5.18035 15.4912 5.41183 15.4912 6.09004C15.4912 6.51851 15.4916 6.02013 15.9057 5.7566C16.7546 5.21641 18.9321 4.69777 19.213 6.24323C19.3393 6.93736 18.6648 7.34328 18.3569 7.85633C18.2237 8.0784 18.8772 7.75594 19.1319 7.80226C19.3348 7.83915 19.6862 7.95323 19.8709 8.04558C20.8846 8.55241 22.13 9.99174 20.5197 10.8392C19.9398 11.1444 19.299 10.7131 20.0692 10.7131C20.7884 10.7131 21.5718 11.1332 21.9796 11.7224C22.3409 12.2442 22.3501 12.8136 22.3041 13.4346C22.2725 13.8604 21.7146 14.1914 21.4029 14.4079C21.131 14.5967 20.4296 14.6061 20.4296 14.6061C20.4296 14.6061 21.6731 14.8675 22.3041 14.9305C23.0111 15.0013 23.005 16.6834 22.7907 17.1655C22.6502 17.4816 22.2199 17.7723 21.9796 18.0126C21.7946 18.1976 20.8841 18.7331 21.0064 18.5803C21.2089 18.3272 22.3057 18.0306 22.6195 18.0306C23.9067 18.0306 24.8356 19.2324 24.584 20.3646C24.3501 21.4172 24.8063 17.8016 25.7916 17.3637C26.7099 16.9556 28.9547 16.5341 28.9547 18.2469C28.9547 19.0674 30.0834 17.6219 30.2885 17.3637C30.8034 16.7153 31.516 16.4091 32.3251 16.6788C33.0141 16.9085 33.267 17.6699 33.1362 18.373C33.0821 18.6637 32.6461 20.3632 32.8838 19.9591C33.5697 18.7931 35.0815 18.2435 36.092 19.3102C36.5727 19.8176 36.7409 20.715 36.7409 21.3829C36.7409 22.076 36.6525 22.5254 36.4164 21.5812" stroke="#E5E5E5" stroke-linecap="round"/>
<path d="M11.7603 9.90201C11.8214 10.4515 12.7709 10.3358 12.3731 9.93806C11.7885 9.35342 11.3272 10.2789 11.9316 10.3796C12.4071 10.4589 12.6214 9.6074 12.0848 9.57759C11.4321 9.54133 11.6012 10.214 12.1569 10.0552C12.5745 9.9359 11.7784 9.13426 11.7784 10.1273C11.7784 10.4564 12.9086 9.87821 12.0487 9.61364C11.2682 9.37348 11.5051 10.7985 12.1478 10.2985C12.6082 9.94045 11.7869 9.76637 11.7603 9.7398" stroke="#E5E5E5" stroke-linecap="round"/>
</svg>
