<svg width="32" height="29" viewBox="0 0 32 29" fill="none" xmlns="http://www.w3.org/2000/svg">
<path d="M17.1063 4.23954C11.5455 4.43814 -0.504053 20.1224 9.83841 20.7739C15.3532 21.1213 23.682 17.6967 22.3149 10.7806C20.8451 3.34542 10.508 7.47094 7.11296 10.9017C0.175107 17.9126 8.2205 23.4816 15.5921 22.1063C21.8218 20.9441 29.1042 15.4722 23.9502 8.60025C19.4057 2.54103 9.9113 6.6859 7.29466 12.5976C3.07908 22.1217 12.7286 25.6602 20.6796 23.1965C28.6853 20.7159 30.6272 12.6331 23.2234 7.87346C15.7188 3.04907 6.15188 9.59878 3.5396 17.0794C2.17381 20.9905 4.73813 24.9783 8.50597 26.2248C13.0475 27.7273 18.7037 25.6347 22.6177 23.3177C29.6097 19.1784 28.3736 9.41785 20.4979 7.32837C15.6598 6.04478 5.43116 13.0149 9.29332 18.5935C13.463 24.6164 25.5225 17.9192 25.5854 11.7497C25.6395 6.44765 19.0031 2.58498 14.9259 6.66215C10.5217 11.0664 15.0988 17.2021 20.6796 14.4751C25.5657 12.0876 25.3269 3.84857 18.9838 4.90576C15.4377 5.49678 10.8838 11.402 14.078 14.5962C16.9228 17.441 19.9154 11.1065 17.5302 8.72138C14.4202 5.61141 10.1736 10.045 10.6863 13.506C11.5228 19.1522 17.2965 14.1058 16.9851 10.2355C16.3895 2.83246 9.13621 5.20965 4.93261 8.47912C-0.868989 12.9915 3.16705 19.7294 10.0201 18.0485C15.996 16.5827 20.3353 7.79258 13.7146 4.05784C8.04373 0.858887 1.55199 8.19882 3.29734 13.8089C5.90561 22.1926 18.6445 18.4515 23.2839 14.7174C27.9096 10.9943 27.05 1.18342 19.8317 1.87748C13.4561 2.49052 7.94432 11.4528 12.0188 17.0794C16.5127 23.2853 26.483 18.2655 27.0996 11.6891C27.7547 4.70102 18.7415 3.72184 14.6231 7.38894C10.855 10.7441 8.49886 20.895 16.2583 20.895C20.73 20.895 26.5089 13.8074 21.467 10.4778C19.0873 8.90629 12.3616 12.4964 15.471 14.0511" stroke="#D8A1FF" stroke-opacity="0.64" stroke-width="3" stroke-linecap="round"/>
<path d="M20.7079 4.71707C20.5453 3.41617 18.4724 3.16727 17.5304 3.04168C13.9147 2.55958 10.1999 2.108 7.21815 4.71707C3.33089 8.11841 0.88464 12.1742 2.50974 17.4558C5.21219 26.2387 16.2459 29.9432 23.9431 24.995C27.9477 22.4206 28.6605 20.7486 30.3269 16.4159C31.3655 13.7155 30.2967 8.71404 28.7671 6.33468C27.3872 4.18822 23.2067 2.24884 20.7079 2.11733C17.9779 1.97365 16.3955 1.53586 15.5084 4.19712" stroke="#E5E5E5" stroke-linecap="round"/>
<path d="M10.3098 14.9668C11.9237 13.353 13.2833 11.6157 15.1338 10.2006C15.6081 9.83789 17.094 11.3739 18.369 10.8072C22.0913 9.15286 18.511 7.68752 16.0581 7.68752C14.6393 7.68752 13.2089 8.55093 12.1297 7.68752C11.2592 6.99118 8.51063 6.67653 7.50791 7.45643C6.91027 7.92126 6.10234 9.35306 5.39923 10.0562C4.46126 10.9941 5.36842 13.4832 6.15027 14.1869C7.778 15.6518 11.2091 17.1156 11.3497 19.6463C11.4272 21.041 12.1766 20.4218 13.0251 19.7618C13.1033 19.701 13.3545 21.7917 14.4694 21.7261C16.344 21.6158 14.8433 20.163 14.585 19.6463C14.315 19.1063 15.6216 17.7755 13.9495 17.5665C12.343 17.3657 12.2882 12.9377 13.4295 12.367" stroke="#E5E5E5" stroke-linecap="round"/>
<path d="M17.6177 15.421C17.3696 13.4366 18.41 13.736 19.9574 12.5324C20.5529 12.0693 20.8892 10.4382 21.5462 10.2504C22.678 9.92707 23.5275 10.4864 24.2614 9.18166C24.6342 8.51907 24.7364 9.9063 25.4169 9.58607C27.1475 8.77165 25.7193 9.37096 27.2078 10.2216C28.2134 10.7962 25.9896 14.991 25.9368 15.941C25.8381 17.718 24.0813 17.5586 23.0771 17.5586C22.3182 17.5586 23.4309 19.5749 22.0372 18.8007C21.2015 18.3364 21.3374 17.6689 20.6218 17.0964C18.7659 15.6117 18.2458 18.759 17.0977 16.7498C16.7352 16.1154 15.3679 15.6488 16.3467 14.67C17.1021 13.9146 17.3323 13.9785 18.1376 14.3811" stroke="#E5E5E5" stroke-linecap="round"/>
<path d="M17.0554 20C17.0554 22.3726 17.9411 21.3973 17.6909 21.6754C17.3692 22.0328 16.5111 23.8814 17.3731 24.0729C17.8599 24.1811 18.3526 23.6974 18.8463 23.6974C19.4017 23.6974 19.5817 24.4007 20.0595 24.4484C21.0657 24.5491 23.071 22.0872 22.1393 21.1554C21.3589 20.375 19.3329 20.3954 19.1352 20" stroke="#E5E5E5" stroke-linecap="round"/>
</svg>
