<svg width="37" height="51" viewBox="0 0 37 51" fill="none" xmlns="http://www.w3.org/2000/svg">
<path d="M18.5 12C19.3785 11.3589 18.697 12.0109 18.5 12ZM18.5 12C17.6548 11.953 18.5783 11.4101 18.5 12ZM18.5 12C18.2798 13.6588 17.6214 12.6411 18.5 12ZM18.5 12C20.504 10.5376 18.7202 10.3411 18.5 12Z" stroke="#E5E5E5" stroke-width="3" stroke-linecap="round"/>
<path d="M12.3929 4.74269C11.481 4.31358 7.16254 4.66667 7.66878 6.43853C7.86502 7.12535 16.4567 2.13639 15.724 2.38064C13.956 2.96996 6.44738 5.13638 6.00323 7.13503C5.80843 8.01166 14.8436 4.11274 15.4212 3.89478C18.5912 2.69854 12.8587 5.10839 12.1506 5.53005C9.53356 7.08853 6.8519 8.64067 4.36797 10.4056C2.29811 11.8762 2.09294 12.6463 4.85249 11.7683C7.83773 10.8184 10.6211 9.38779 13.4831 8.13436C15.7639 7.13547 19.3896 6.33673 21.1749 4.43987C22.1052 3.45135 18.5121 5.04651 17.2684 5.59061C13.9233 7.0541 10.5318 8.52422 7.39624 10.4056C1.48547 13.952 9.82003 10.0197 11.3936 9.37595C14.4276 8.13474 17.5252 7.05048 20.5692 5.83287C20.9228 5.69145 25.2669 3.68694 23.0524 4.43987C18.2357 6.07753 13.3536 8.19743 8.81953 10.4964C3.95805 12.9614 14.2361 8.39117 15.3909 8.01323C17.1054 7.45213 24.717 4.62954 18.7825 7.22588C13.7192 9.44109 7.5627 10.9305 2.94468 14.0092C-1.4035 16.908 12.7649 10.4199 17.7529 8.86114C19.3212 8.37106 30.5796 4.91756 23.5975 7.7104C17.4662 10.1629 11.1819 12.3536 5.12504 14.9783C3.08964 15.8603 5.21825 15.328 6.00323 15.0388C9.70286 13.6758 13.519 12.6708 17.2987 11.5563C19.6535 10.8619 26.7793 9.34567 24.3243 9.34567C23.0555 9.34567 21.033 10.8678 19.8727 11.314C16.8029 12.4947 13.6363 13.4377 10.6365 14.7966C8.37552 15.8208 6.01933 17.5438 3.48977 17.8248C1.8906 18.0025 6.57052 16.8926 8.09274 16.3713C13.0814 14.6628 18.2067 13.2152 23.3552 12.0711C23.8658 11.9577 28.9585 11.2722 28.2308 11.6169C25.8107 12.7632 23.2708 13.7596 20.8115 14.8268C17.3367 16.3348 6.79841 20.0427 10.5759 19.7629C12.4902 19.6211 14.7449 18.3399 16.5719 17.7945C21.5054 16.3219 26.3778 14.9061 31.4104 13.7972C31.9268 13.6835 35.4249 12.7287 33.1063 13.8881C30.2619 15.3102 27.2619 16.462 24.3848 17.8248C22.3806 18.7742 17.6107 20.1166 16.5719 22.3672C16.3146 22.9247 17.8155 22.284 18.3889 22.0644C20.4126 21.2894 22.4173 20.4666 24.4454 19.7024C26.4109 18.9617 34.8943 15.1487 29.1695 18.915C27.6264 19.9302 25.8239 20.8071 24.506 22.125C23.4685 23.1625 27.31 21.4926 27.6554 21.3679C28.2752 21.1441 33.6622 18.6773 30.5625 19.7932C29.4319 20.2002 24.0314 23.3301 25.8384 21.9433C28.2367 20.1027 34.4619 16.5125 34.1056 12.9493C33.8119 10.0123 29.1022 11.5058 27.6554 12.3739" stroke="#D8A1FF" stroke-opacity="0.64" stroke-width="3" stroke-linecap="round"/>
<path d="M18.3889 3.65251C18.3889 -0.411691 11.1249 1.34015 12.3929 3.95534C13.5489 6.33966 15.6572 2.75925 11.9689 4.07647C10.5529 4.58219 9.17069 5.28031 9.12237 6.92304C9.09279 7.92889 9.77354 8.87488 8.88011 8.67944C5.54468 7.94982 1.04241 10.9883 0.946036 14.5543C0.909319 15.9128 1.49851 17.2797 3.00526 17.2797C3.65095 17.2797 2.80307 17.0154 2.03621 17.8248C-1.0907 21.1255 3.93962 23.4927 6.82088 21.6404C9.88996 19.6675 6.13129 21.297 8.15332 23.3968C9.50634 24.8019 11.0158 24.8658 12.8169 24.2448C13.6706 23.9504 14.5733 22.3792 14.5733 23.5785C14.5733 28.1931 20.8134 25.6964 22.689 23.8208C23.3182 23.1917 24.303 20.6579 23.8095 21.3982C23.0552 22.5297 24.7337 23.5839 25.7476 23.7602C29.8249 24.4693 34.6487 21.2649 33.8936 16.7346C33.2507 12.8772 30.9589 17.2192 33.4091 17.2192C38.4446 17.2192 35.5718 10.3895 33.5908 8.58859C31.994 7.13694 29.8165 6.37795 27.6857 6.37795C26.8714 6.37795 25.9962 6.83859 26.868 7.71039C27.5402 8.38253 28.6043 7.84735 28.9878 7.13502C29.8769 5.48394 28.0872 2.95886 26.7772 2.04752C22.99 -0.587056 19.9636 1.16924 18.934 5.28778" stroke="white" stroke-linecap="round"/>
<path d="M17.2987 27.6364C17.2987 27.5229 17.8622 29.7122 18.0861 30.5436C19.4242 35.5138 16.4883 36.2471 13.3317 39.053C11.5674 40.6213 8.33775 50.61 11.8478 49.44" stroke="white" stroke-linecap="round"/>
<path d="M15.1183 40.1735C16.2612 40.1063 17.2515 39.5896 18.298 39.1439C19.3172 38.7098 28.285 34.3071 27.8068 33.9352C25.8659 32.4256 23.9693 36.8245 23.5975 37.9931C22.9194 40.1244 23.5342 42.8989 20.5692 42.8989C18.2252 42.8989 16.2449 41.7905 14.0282 42.8989" stroke="white" stroke-linecap="round"/>
<path d="M16.2085 12.919C16.044 11.6028 12.3385 13.1817 14.8761 14.7965C16.6524 15.9269 19.6264 14.4823 20.4178 12.7676C20.7091 12.1365 17.6694 11.6314 17.0262 12.1317C14.5024 14.0946 15.7974 17.0916 18.934 15.5233C21.2664 14.3571 17.9941 12.5713 16.2085 13.4641" stroke="white" stroke-linecap="round"/>
</svg>
