<svg width="59" height="40" viewBox="0 0 59 40" fill="none" xmlns="http://www.w3.org/2000/svg">
<path d="M19.9024 13.5221C19.8626 13.2037 18.6398 11.3953 18.5094 11.4326C17.3963 11.7506 17.5767 14.6971 18.5397 13.7341C18.9544 13.3193 19.2498 12.7086 19.327 12.1291C19.6468 9.73089 16.3259 14.4888 16.2079 14.794C14.7742 18.503 18.6841 22.2251 19.6601 16.3687C19.8195 15.4124 19.493 11.5843 17.4495 12.4925C15.7198 13.2612 16.2457 19.6692 18.0854 20.1843C21.4039 21.1135 23.863 15.5937 22.5067 13.0981C20.9038 10.1489 18.1532 11.8125 17.2981 14.3095C15.9765 18.1684 18.0859 24.7283 23.1124 24.0302C26.6308 23.5415 27.8908 20.0837 26.6857 17.1257C24.0445 10.6427 15.7903 21.743 22.5067 25.8169C24.4879 27.0186 28.6262 27.4174 29.3203 24.3633C30.0735 21.0492 25.917 17.9434 22.9609 19.3667C19.2705 21.1436 20.145 27.7644 22.6581 30.0262C26.3562 33.3545 29.9892 28.861 29.3506 25.0295C28.8637 22.108 25.8719 19.4128 23.0518 21.5167C21.2764 22.8413 18.5479 26.2418 20.0841 28.5726C21.9311 31.3749 28.1045 30.3772 28.9266 27.0888C30.5214 20.7096 21.2951 22.6683 25.2624 27.6641C28.5139 31.7586 34.243 29.767 35.1043 25.0295C35.5367 22.6514 35.3148 19.2522 33.2268 17.7011C30.9423 16.0041 27.4042 22.3636 27.1097 23.9999C26.4803 27.4962 30.6063 30.727 33.8324 29.5114C37.9121 27.9741 38.1752 22.3465 37.3452 18.8519C35.2321 9.95451 27.0376 20.102 31.6824 25.1507C36.8503 30.7679 43.4092 19.0069 38.4354 14.3095C34.5505 10.6404 29.337 24.746 39.7376 22.9703C48.1184 21.5394 40.2949 6.52791 36.0431 11.6749C31.3436 17.3637 43.2644 17.2981 40.3735 10.2516C37.7688 3.90259 33.4254 11.2311 37.3755 12.6136C42.7015 14.4777 40.7305 2.91533 36.8002 6.01199C32.7324 9.21692 38.3624 15.0096 38.9502 9.13111C39.0855 7.77787 38.5157 4.65237 36.679 6.55708C34.6817 8.62842 34.4954 13.3329 36.2551 15.5813C40.1574 20.5677 49.4632 13.0486 47.1568 7.85923C46.6104 6.6298 45.2632 8.50226 45.0976 9.04026C44.4002 11.3069 47.4264 10.094 48.1259 9.16139C48.7452 8.33565 50.8871 3.97538 49.3372 3.28654C47.1926 2.33338 46.478 7.94424 46.7329 9.04026C47.3449 11.6718 51.3572 9.12745 52.2746 8.01065C53.105 6.9998 54.2484 2.91998 52.0021 2.43863C47.2946 1.42987 42.5309 13.5463 45.2188 16.5504C47.7598 19.3904 49.4024 6.96862 46.3695 13.3101C45.7833 14.5359 44.631 18.9124 47.1871 18.9124C49.1903 18.9124 50.5632 16.9624 52.2746 16.2778C53.3881 15.8325 50.6091 18.0039 49.7612 18.8519C49.0683 19.5448 47.7472 21.9312 49.8823 21.0322C50.3721 20.826 53.3587 19.9109 51.5176 20.3054C50.7709 20.4654 49.5372 19.0427 48.7315 18.6399C41.2995 14.9238 35.3376 16.1267 28.8661 21.4562C28.6651 21.6217 24.9066 24.6813 26.3829 25.2718C29.3004 26.4388 28.0899 20.1581 26.928 19.1547C23.9926 16.6196 12.8162 18.8823 12.8162 23.7577C12.8162 27.3118 21.1045 26.4086 17.9643 20.6991C15.8049 16.7729 11.6852 20.0823 13.2402 23.7577C13.8553 25.2115 14.936 23.6474 14.936 22.7281C14.936 21.3196 13.425 18.0323 11.9986 17.3983C9.15263 16.1334 11.0476 24.6565 12.8162 20.9111C15.4222 15.3926 7.971 12.5349 7.971 16.8229C7.971 21.1292 12.0643 20.0963 9.00061 15.5813C5.47151 10.3805 4.23899 20.3506 6.51743 18.3976C8.43429 16.7546 0.0331286 11.6914 3.00463 16.5201C3.96668 18.0834 5.47621 19.0321 6.94139 20.0632C8.35154 21.0555 9.3446 22.7362 10.5147 23.9999C11.3954 24.951 14.0908 29.9103 13.0585 31.2375C12.6836 31.7195 10.0198 34.0571 11.3021 32.7213C11.6807 32.327 13.7824 29.773 13.3613 29.9959C11.2575 31.1097 11.0098 32.452 13.6036 30.2987C16.4627 27.9251 19.0872 24.9227 20.2052 21.2745C21.0911 18.3838 21.7465 12.977 17.4495 12.977C15.0116 12.977 16.9342 3.29009 16.6319 5.70916C16.3388 8.05354 12.1888 19.9928 17.9643 18.9427C21.2082 18.3529 22.3526 12.2172 20.1749 10.0396C18.4592 8.32389 14.8839 19.8209 18.2671 19.8209C20.9605 19.8209 25.0503 10.4679 20.1447 11.4023C15.4722 12.2923 18.7434 21.3518 21.5377 16.9138C22.0658 16.075 22.2494 13.5827 20.6897 13.5827C17.8635 13.5827 17.2375 19.3563 17.2375 21.1836C17.2375 29.7871 26.0774 30.1826 31.6521 26.1803C33.4945 24.8575 39.5987 22.1636 38.9502 19.2455C37.8151 14.1376 36.2598 23.8738 36.1339 24.545C35.7621 26.5282 35.8878 28.7269 33.4085 28.7846C31.7131 28.824 27.1219 27.5855 28.321 28.7846C29.4716 29.9352 33.2086 28.4033 34.317 27.9064C36.9632 26.7202 40.0996 23.1371 40.8278 20.3054C41.462 17.8387 41.3444 15.5758 41.1609 13.0981C41.0236 11.2456 39.131 14.4113 38.9805 14.8545C37.1813 20.1523 38.803 27.9179 33.1057 31.0255C30.9164 32.2196 28.7736 32.7039 26.3829 33.2664C24.5595 33.6955 29.544 34.1749 29.6837 34.1749C34.2126 34.1749 36.9713 31.0699 39.5256 27.6641C41.0588 25.6199 41.3695 23.7853 40.7369 21.3956C40.651 21.0713 39.471 18.7248 39.1016 19.0941C38.2241 19.9717 38.0176 22.4653 37.6178 23.576C36.7564 25.9687 35.624 28.2649 33.8022 30.0868C32.2224 31.6665 29.8613 31.5635 27.7759 31.51C26.0757 31.4664 21.1861 29.6243 20.6897 27.9367C20.6412 27.7715 22.384 29.0867 22.6278 29.2086C23.7311 29.7602 24.0117 28.4487 24.2631 27.6944" stroke="#D8A1FF" stroke-opacity="0.64" stroke-width="3" stroke-linecap="round"/>
<path d="M15.909 18.8084C15.8521 19.2632 15.3862 18.7452 15.3124 18.5459C15.0705 17.8928 15.0886 16.9967 15.0499 16.3505C14.9535 14.7422 14.3832 12.2136 14.9425 10.6474C15.4062 9.34917 15.7679 7.99223 16.6606 6.90106C18.4239 4.74591 20.9954 6.97772 22.1848 8.59528C23.8104 10.8061 24.6007 13.6264 24.917 16.3147C24.9349 16.4672 24.8203 17.2812 25.0602 17.2812C25.5515 17.2812 26.2053 17.0211 26.6947 16.9232C28.2416 16.6139 30.0532 16.6406 31.5388 16.1835C32.1354 15.9999 31.7704 16.0776 31.4791 15.1455C31.0848 13.8836 31.157 11.7486 31.157 10.4208C31.157 7.66491 31.9806 2.819 35.5715 2.91605C36.4866 2.94078 37.617 4.01828 38.3515 4.52676C39.1689 5.09265 40.0045 6.12916 40.4991 7.00844C41.7015 9.14597 42.4694 11.5437 43.2791 13.8569C43.7446 15.187 43.5442 16.5868 43.8756 17.9493C44.2631 19.5423 44.2574 21.0402 44.2574 22.6741C44.2574 25.2306 42.3137 26.8903 40.511 28.3652C39.1618 29.4692 37.5277 30.9837 35.7863 31.4315C33.8771 31.9225 31.8772 32.7678 29.8684 32.7678C27.6209 32.7678 24.8773 32.7602 22.6859 32.2906C21.2272 31.978 19.7631 31.6943 18.5815 30.7276C17.4647 29.8138 17.023 28.8457 16.3385 27.6136C15.1339 25.4453 15.4194 23.1841 14.8829 20.8367C14.739 20.2071 14.7043 19.1562 15.0022 18.5936C15.1853 18.2477 15.8639 17.4972 15.4794 17.305" stroke="#E5E5E5" stroke-linecap="round"/>
<path d="M19.5599 13.2246C19.3449 12.3646 16.9735 13.7526 17.46 14.8472C17.7929 15.5963 18.7759 16.4568 19.6553 15.8971C21.3289 14.8322 20.1551 12.795 18.4861 12.795" stroke="#E5E5E5" stroke-linecap="round"/>
<path d="M36.9555 9.57363C34.7779 9.57363 35.0409 13.8209 38.1248 12.1388C38.7013 11.8243 40.1765 10.3339 39.306 9.68101C38.9455 9.41064 37.3762 8.30278 37.1703 8.71458" stroke="#E5E5E5" stroke-linecap="round"/>
<path d="M37.1703 10.4327C37.2003 10.6426 37.2708 10.4898 37.3851 10.4327" stroke="#E5E5E5" stroke-linecap="round"/>
<path d="M18.7009 14.5131C18.7009 14.3769 18.7009 14.3769 18.7009 14.5131" stroke="#E5E5E5" stroke-linecap="round"/>
<path d="M22.137 21.1707C21.9287 20.9855 21.3275 20.8357 21.8149 20.944C23.0762 21.2243 24.3567 21.1707 25.6448 21.1707C27.4778 21.1707 29.2431 21.0695 31.0615 20.944C32.7201 20.8297 35.4595 20.1281 36.8362 19.1186C37.4162 18.6933 40.2554 17.1175 38.2441 17.5198" stroke="#E5E5E5" stroke-linecap="round"/>
<path d="M15.2647 18.5936C15.1553 17.6094 13.5988 16.7118 12.9739 16.2074C12.1441 15.5375 11.3716 14.8919 10.4206 14.3938C8.74764 13.5175 7.09283 12.4943 5.27829 11.936C2.40101 11.0507 -0.393834 12.5229 1.13817 15.5869C1.77688 16.8643 2.54513 18.1154 3.5602 19.1305C5.0554 20.6257 6.32229 22.532 7.95087 23.8552C9.1749 24.8498 9.51053 26.1046 9.90758 27.4942C10.0452 27.9761 9.89591 28.1246 9.46613 28.3056C8.67015 28.6407 8.12712 29.071 7.41397 29.5464C6.38534 30.2321 5.4174 30.8191 4.31187 31.3719C3.22564 31.915 5.23058 30.9552 5.60043 30.8827C6.75871 30.6556 7.85856 30.6202 9.03661 30.6202C9.95221 30.6202 8.2486 31.1581 7.74804 31.4792C6.58648 32.2244 2.89162 33.8401 3.46475 35.8461C3.53675 36.098 6.20927 34.0345 6.41175 33.8893C7.45564 33.1412 8.6003 32.4961 9.68089 31.8014C10.0028 31.5945 10.5917 30.796 10.3252 31.3957C9.94143 32.2592 9.32417 33.1813 8.82185 34.0087C8.52398 34.4993 7.07848 38.5664 7.53328 38.5664C8.20064 38.5664 9.14891 36.9879 9.48999 36.5142C10.4468 35.1853 11.584 34.0156 12.6398 32.7678C13.5997 31.6334 14.6431 30.5975 15.6942 29.5464C16.0447 29.1958 16.9529 29.1169 16.3385 29.1169" stroke="#E5E5E5" stroke-linecap="round"/>
<path d="M42.5393 11.936C42.5393 7.47287 46.2185 3.71645 49.6742 1.41271C51.1321 0.440747 53.3016 0.968287 53.8739 2.749C54.4116 4.4216 53.5146 6.65135 52.6331 8.02257C51.6117 9.61147 50.6916 11.1502 49.7219 12.7473C49.2577 13.5119 48.9151 14.4492 48.5526 15.2648C48.3623 15.693 47.9506 15.975 47.7413 16.446C47.4286 17.1496 47.5876 17.0032 48.0157 16.6607C48.5134 16.2626 49.0853 16.3647 49.6742 16.1835C51.56 15.6032 54.0285 15.5498 55.9022 16.2312C56.5334 16.4607 57.5726 16.8027 57.5726 17.6272C57.5726 18.219 55.9377 18.4639 55.4727 18.3311C53.656 17.812 48.1513 19.8204 49.8412 18.9754C51.5677 18.1122 54.104 19.5624 55.7591 20.0492C56.5328 20.2768 57.5487 21.2176 57.5487 22.1133C57.5487 22.1766 54.593 21.2484 54.3512 21.1707C52.9683 20.7262 51.2089 20.3117 49.7457 20.3117C48.5096 20.3117 50.7979 21.2628 51.082 21.3855C52.4736 21.9864 53.5957 23.1189 54.8881 23.8672C55.2588 24.0818 56.9283 25.3379 56.9283 25.8C56.9283 26.0906 56.4155 25.524 56.1766 25.3586C55.5299 24.9108 54.6853 24.7435 53.9813 24.3802C52.1163 23.4176 49.9668 22.633 47.9561 22.0298C47.1832 21.7979 46.2442 21.3855 45.4386 21.3855C44.9984 21.3855 44.7233 21.815 44.2574 21.815" stroke="#E5E5E5" stroke-linecap="round"/>
</svg>
