<svg width="52" height="45" viewBox="0 0 52 45" fill="none" xmlns="http://www.w3.org/2000/svg">
<g filter="url(#filter0_d_2_926)">
<path d="M10.429 10.3756C10.429 10.1381 10.6125 8.07237 10.0959 8.58896C8.65707 10.0278 5.33418 16.733 6.79511 18.34C7.13867 18.7179 13.2066 10.5127 13.639 9.89112C14.1965 9.08968 17.8858 4.83685 17.4243 3.68316C17.2844 3.33334 13.7907 7.63519 13.5784 8.01359C11.6669 11.4211 8.90219 15.8976 8.36981 19.8239C8.00879 22.4864 13.6789 15.632 14.1235 15.0392C16.482 11.8945 18.6959 8.45318 20.6646 5.04588C21.9708 2.78517 19.6019 5.00587 19.0899 5.59097C15.9305 9.20171 13.2614 13.7004 11.3981 18.0977C10.7421 19.6459 9.54793 24.4774 12.9425 23.0944C16.95 21.4617 20.4711 16.8309 23.1781 13.6462C24.6289 11.9394 28.8626 7.18328 28.3261 4.5008C28.2219 3.97982 20.7578 12.3831 20.1801 13.1919C17.2881 17.2406 13.0489 22.4365 12.7002 27.6671C12.5001 30.6686 17.5851 25.0196 18.1209 24.4571C22.0973 20.2819 25.3326 15.4534 28.5381 10.6785C29.0615 9.89878 34.3503 0.838587 31.9903 2.44157C28.7234 4.66061 9.87487 27.2516 16.1222 29.2115C19.6696 30.3244 23.8716 22.6905 25.4493 20.5506C27.6097 17.6205 30.5922 12.2203 28.8409 8.43755C25.2307 0.639472 12.6056 19.499 11.3375 22.2465C10.8157 23.3771 8.34901 29.5902 11.3072 29.8474C15.1902 30.1851 19.2013 22.7745 20.7554 20.157C22.8672 16.6004 26.0866 11.02 25.3584 6.65087C24.8159 3.39552 21.775 6.06118 20.4223 7.25652C15.4833 11.6212 12.3439 17.4104 10.2776 23.6092C9.12415 27.0696 8.13673 34.0564 13.7601 30.12C20.0061 25.7478 25.796 19.4626 30.1431 13.2525C30.3156 13.006 35.5857 5.40196 32.384 6.46917C28.5626 7.74299 25.2097 12.6682 23.0267 15.7054C20.1244 19.7433 17.4874 24.0286 15.2743 28.4847C14.4927 30.0583 13.2279 32.4683 14.063 34.299C15.5905 37.6479 22.9189 27.5724 23.6323 26.6072C27.8837 20.8553 31.6855 14.868 35.2609 8.67981C35.5357 8.20416 37.4603 3.57327 35.4123 5.62126C31.2284 9.80515 27.5253 14.6157 24.3894 19.6119C23.9059 20.3822 16.3492 33.6756 18.9991 33.3299C20.8053 33.0943 22.7864 30.6631 23.9351 29.5143C27.0094 26.4401 29.968 23.1969 32.7474 19.8541C36.3185 15.5592 41.2215 10.2528 43.4372 5.04588C44.2703 3.08814 37.8069 9.74683 37.2595 10.4968C32.972 16.3706 27.4086 23.6671 25.207 30.6651C23.9437 34.6806 31.7964 26.0295 32.172 25.5776C36.3795 20.5149 41.3716 15.6151 44.7696 9.95169C47.3503 5.65053 42.4207 10.6022 41.4991 11.7081C37.2398 16.8192 32.2926 23.0254 29.7494 29.2115C27.5807 34.4866 34.2617 27.2885 34.958 26.4861C38.3284 22.6021 42.1562 18.8401 45.133 14.6455C47.2066 11.7237 41.696 17.6888 41.166 18.3703C38.3131 22.0382 33.6021 27.5832 32.8988 32.3306C32.4717 35.2138 37.9711 27.9138 38.4406 27.3643C39.0715 26.6256 43.9577 20.2715 40.8632 23.8817C38.7313 26.369 35.8128 29.7863 35.0792 33.0877C34.21 36.9988 46.321 21.7185 43.8612 24.8811C42.7541 26.3044 38.2927 32.891 36.8961 31.6341C34.6491 29.6118 31.8123 30.0072 29.0832 30.6651C27.1021 31.1427 22.4992 32.4383 21.1491 34.2384C19.2079 36.8268 26.985 31.3802 29.6283 29.5143C31.7727 28.0007 31.7146 27.822 29.5072 29.0298C27.669 30.0356 24.8993 32.1528 24.1774 34.2384C23.5638 36.011 26.6657 32.8597 26.7817 32.7243" stroke="#D8A1FF" stroke-opacity="0.64" stroke-width="3" stroke-linecap="round"/>
<path d="M12.6638 29.7082C11.3052 29.7082 11.3896 29.5012 10.4418 28.7206C9.42323 27.8818 9.71654 26.4102 9.42337 25.2642C8.73463 22.5718 7.39866 19.3924 5.87437 17.0552C4.42462 14.8322 7.31045 14.326 8.2198 12.7347C8.85633 11.6208 9.90815 11.2504 10.4418 10.0498C10.8204 9.19789 12.5497 10.0625 13.2193 9.46343C14.9468 7.91771 17.0653 4.48284 19.052 3.59987C21.4508 2.5337 22.9806 4.57779 25.0081 4.03192C26.6332 3.5944 30.7392 1.18371 32.353 2.79749C34.4737 4.91818 34.8813 5.65509 38.2165 5.82185C39.3342 5.87774 40.8583 6.46631 41.4261 7.48834C41.9274 8.39072 41.4846 10.2904 42.4136 10.8213C44.4088 11.9614 46.1558 13.992 44.0493 16.0985C41.6236 18.5242 44.9786 20.0786 43.8949 22.4867C42.7846 24.9541 39.8999 25.7818 38.772 28.3194C37.2927 31.648 36.6454 33.9998 32.2295 34.1521C29.7923 34.2362 27.3099 36.5852 24.8847 36.0655C22.4429 35.5423 21.3446 34.3869 18.7742 35.3866C15.3314 36.7254 14.3302 31.659 14.3302 29.4304C14.3302 26.6587 12.3851 28.1801 10.9973 27.4862" stroke="#E5E5E5" stroke-linecap="round"/>
<path d="M25.4402 18.5983C25.6986 16.5305 21.4637 18.9327 21.0579 20.7585C20.6482 22.602 21.8435 25.7627 24.3292 24.5853C26.9195 23.3583 28.2176 22.8324 28.2176 19.9561C28.2176 17.9958 26.1047 15.6027 24.8847 18.0428" stroke="#E5E5E5" stroke-linecap="round"/>
<path d="M22.358 19.3113C22.4663 19.1543 22.5791 19.0042 22.7145 18.8689C22.7184 18.8649 23.0631 18.5386 22.9572 18.7398C22.8284 18.9845 22.6383 19.2101 22.4871 19.4404C22.2614 19.784 21.8304 20.2503 21.7558 20.6695C21.7256 20.8388 21.864 20.7969 21.9401 20.7248C22.1871 20.4906 22.4116 20.2036 22.5885 19.9136C22.6351 19.837 22.9539 19.2695 22.6284 19.4619C22.2852 19.6647 21.9751 20.1666 21.8725 20.5404C21.6951 21.1867 22.0069 21.8809 22.7821 21.5729C23.5342 21.274 24.2871 20.4719 24.4905 19.6862C24.6243 19.1692 24.3902 18.7497 23.8698 19.0471C23.1797 19.4414 22.7468 20.1929 22.5178 20.9337C22.2691 21.7385 22.3203 22.7636 23.3843 22.7036C24.9295 22.6166 26.6777 20.1096 25.1972 18.8904C24.595 18.3944 23.7632 18.9087 23.2983 19.3482C22.4946 20.1078 22.0186 21.2914 22.272 22.3963C22.9032 25.1489 26.3435 21.2797 26.7305 20.1502C27.0288 19.2794 26.5902 18.4538 25.6335 18.408C24.7355 18.365 23.6471 18.8586 23.0525 19.5264C22.3664 20.2969 22.1257 21.5671 22.5731 22.5192C23.0979 23.6359 24.1082 23.5889 25.0497 22.9863C25.9657 22.4001 26.8522 21.2191 26.6752 20.0826C26.5839 19.4967 26.2975 18.8889 25.7319 18.623C25.1275 18.339 24.3325 18.6033 23.7807 18.8904C22.8244 19.388 22.1079 20.1582 21.8848 21.2226C21.7183 22.0172 21.8843 23.2547 22.7145 23.6439C23.6993 24.1055 24.8375 23.112 25.4553 22.4762C26.2098 21.6998 26.7232 20.4939 26.245 19.4342C25.9303 18.7367 25.2804 18.4699 24.5396 18.6046C23.5831 18.7785 22.9741 19.71 22.7943 20.6019C22.6346 21.3942 22.7745 22.6998 23.6824 23.017C24.883 23.4365 26.1629 22.1318 26.3648 21.0321C26.5311 20.1267 25.8671 19.4939 25.0128 19.8337C24.5646 20.012 24.1473 20.3173 23.8421 20.691C23.7493 20.8047 23.4188 21.2299 23.6117 21.3885C24.0261 21.7292 24.9807 20.8162 25.1296 20.4759C25.2069 20.2991 25.1704 20.1162 24.9729 20.0488C24.6129 19.9259 24.1905 20.3139 23.962 20.5343C23.6834 20.803 23.338 21.1878 23.3044 21.5974C23.2655 22.0716 23.7742 22.0146 24.0665 21.8893C24.4068 21.7435 24.7561 21.476 24.8531 21.0997C24.9271 20.8124 24.877 20.3528 24.5827 20.1963C24.0391 19.9071 23.3294 20.7509 23.4027 21.2533C23.4967 21.8963 24.3223 20.7208 24.3799 20.5957C24.5146 20.3028 24.6011 19.6223 24.1494 19.5203C23.5906 19.3941 23.0521 20.527 22.8927 20.8846C22.5689 21.6109 22.3098 22.4209 22.3703 23.226C22.4404 24.1581 23.3376 24.0662 24.0357 23.8221C24.5023 23.6589 24.9047 23.3802 25.2771 23.06C25.8107 22.6014 26.4513 22.048 26.6752 21.3547C26.942 20.5284 26.6281 19.2735 26.0084 18.6538C25.8383 18.4837 25.6477 18.3578 25.4553 18.2174C25.3433 18.1357 25.1077 18.0542 25.0251 17.9716C25.0073 17.9538 25.3346 17.8602 25.3754 17.8487C25.5806 17.7913 25.8341 17.7278 26.0361 17.8211C26.5418 18.0545 26.7089 18.8473 26.9487 19.2868C27.1967 19.7414 27.2884 20.4316 27.09 20.9276C26.8223 21.5967 26.3347 22.1377 25.8271 22.6452C25.6195 22.8528 25.9804 22.6871 26.0637 22.6053C26.4501 22.2262 26.7227 21.7842 26.9609 21.3025C27.3858 20.4433 27.3157 19.4883 26.6998 18.7582C26.5303 18.5574 26.329 18.3392 26.076 18.2482C25.9987 18.2204 26.3699 18.4282 26.4386 18.4694C26.7018 18.6273 26.8564 18.7128 26.9487 19.0225C27.1581 19.7257 26.9133 20.4582 26.7274 21.1396C26.6035 21.5939 26.4883 22.0939 26.0514 22.3533C25.9789 22.3964 25.4836 22.6705 25.6212 22.4639" stroke="#E5E5E5" stroke-linecap="round"/>
<path d="M18.2099 19.9197C18.1992 19.845 18.0799 19.9618 18.0562 19.9873C17.8376 20.2227 17.9799 20.7555 17.9886 21.0259" stroke="#E5E5E5" stroke-linecap="round"/>
<path d="M20.6434 25.9484C20.9924 26.4443 21.604 26.7597 22.0815 27.1099" stroke="#E5E5E5" stroke-linecap="round"/>
<path d="M26.3956 26.3356C26.8569 26.3356 27.3035 25.8982 27.6677 25.6718" stroke="#E5E5E5" stroke-linecap="round"/>
<path d="M29.9906 21.9661C30.3235 21.62 30.3943 21.0821 30.5376 20.6387C30.6145 20.4007 30.7159 20.1649 30.765 19.9197" stroke="#E5E5E5" stroke-linecap="round"/>
<path d="M30.046 17.4861C30.046 17.033 29.7687 16.7982 29.4929 16.4352" stroke="#E5E5E5" stroke-linecap="round"/>
<path d="M25.1235 14.8866C25.0796 14.5355 23.7869 14.7805 23.5748 14.8866" stroke="#E5E5E5" stroke-linecap="round"/>
<path d="M20.5328 17.0436C20.5328 17.0734 21.1882 16.5945 21.2519 16.5459" stroke="#E5E5E5" stroke-linecap="round"/>
<path d="M18.2652 19.256C18.1225 19.4621 18.1001 19.7961 18.0439 20.0303C17.9558 20.3978 17.878 20.7377 17.878 21.115C17.878 21.6592 17.9697 22.1851 18.1546 22.6975C18.3144 23.1403 18.5423 23.5617 18.7599 23.9788C18.8935 24.2349 18.8866 24.1069 18.8183 23.902" stroke="#E5E5E5" stroke-linecap="round"/>
<path d="M19.2054 18.3158C19.2382 18.1681 19.4957 17.9261 19.5741 17.8241C19.8942 17.4077 20.2101 16.9569 20.6004 16.6012C20.7974 16.4217 21.1777 15.9375 21.4731 15.9375" stroke="#E5E5E5" stroke-linecap="round"/>
<path d="M22.4686 14.9419C23.5598 14.8845 24.5749 14.3502 25.6581 14.7576C26.0494 14.9047 26.4321 15.117 26.838 15.2185" stroke="#E5E5E5" stroke-linecap="round"/>
<path d="M28.2208 15.2185C28.7716 15.7693 29.333 16.3254 29.708 17.0129C29.8659 17.3025 30.1013 17.7038 30.1013 18.0392" stroke="#E5E5E5" stroke-linecap="round"/>
<path d="M30.3225 20.0856C30.3225 21.0636 30.1018 21.986 29.7264 22.8818C29.6772 22.9992 29.2078 23.7913 29.4929 23.7913" stroke="#E5E5E5" stroke-linecap="round"/>
<path d="M24.9576 27.2758C24.9639 27.3203 24.9803 27.3018 25.0129 27.2881C25.3937 27.1278 25.7769 26.9704 26.1559 26.8026C26.718 26.5538 27.3373 26.3893 27.7783 25.9484" stroke="#E5E5E5" stroke-linecap="round"/>
<path d="M18.1546 25.7825C18.5243 26.1523 18.8603 26.5512 19.2054 26.944" stroke="#E5E5E5" stroke-linecap="round"/>
<path d="M16.1081 21.9662C16.1081 22.5026 16.3161 23.0221 16.4953 23.5148" stroke="#E5E5E5" stroke-linecap="round"/>
<path d="M16.5506 18.8689C16.9783 18.3936 17.2987 17.7926 17.6568 17.2649" stroke="#E5E5E5" stroke-linecap="round"/>
<path d="M19.5926 14.7207C20.071 14.2423 20.7132 13.8983 21.3625 13.7251" stroke="#E5E5E5" stroke-linecap="round"/>
<path d="M24.9022 13.172C25.7131 13.2457 26.5304 13.3767 27.3358 13.5039" stroke="#E5E5E5" stroke-linecap="round"/>
<path d="M30.8203 15.9375C31.4047 16.4634 31.6609 17.1244 32.0371 17.818" stroke="#E5E5E5" stroke-linecap="round"/>
<path d="M32.1477 20.7494C32.1263 21.4117 31.8365 22.0595 31.6499 22.6852" stroke="#E5E5E5" stroke-linecap="round"/>
<path d="M30.6544 25.3953C30.0365 26.0818 29.654 27.1681 28.8292 27.663" stroke="#E5E5E5" stroke-linecap="round"/>
<path d="M24.1279 30.0966C23.2645 30.0966 22.3825 30.2749 21.5284 30.3731" stroke="#E5E5E5" stroke-linecap="round"/>
<path d="M28.3314 9.96413C28.3314 9.94128 28.3485 10.0918 28.4144 10.1577C28.5632 10.3066 28.76 10.3927 28.9121 10.5449C29.1911 10.8239 29.4562 10.9048 29.8247 10.8521C30.1085 10.8116 30.1855 11.1625 30.4085 11.2639C30.7694 11.4279 31.1735 11.4313 31.5424 11.5927C31.7385 11.6785 32.0163 11.7734 32.1354 11.9675C32.3001 12.236 32.2763 12.5712 32.4242 12.8402C32.6556 13.2608 33.1163 13.3644 33.5058 13.5592C33.6883 13.6504 33.6709 13.832 33.7086 14.0017C33.7543 14.207 33.7688 14.4556 33.9729 14.5548C34.1771 14.6539 34.4755 14.5657 34.6489 14.733C34.981 15.0532 34.9526 15.5533 34.9009 15.9805C34.8979 16.0052 34.8698 16.2881 34.8701 16.2878C34.9631 16.2041 35.0167 16.0313 35.0361 15.9129C35.1553 15.1839 34.4634 14.9751 34.1665 14.4472C33.9464 14.056 33.7941 13.6129 33.3676 13.4209C33.1163 13.3079 32.8819 13.2305 32.6455 13.086C32.3509 12.906 32.4334 12.5336 32.289 12.2656C32.0636 11.8469 31.3444 12.2502 31.1798 11.7893C31.0366 11.3884 31.0369 11.2277 30.5991 11.015C30.3952 10.916 30.3046 10.8312 30.1443 10.6709C29.8652 10.3918 29.6748 10.3831 29.2839 10.4496C28.8541 10.5228 28.8904 10.1267 28.4727 10.1977C28.2076 10.2427 28.0548 10.4041 28.0548 10.087C28.0548 9.94608 27.9971 10.0182 28.1102 10.0747" stroke="#E5E5E5" stroke-linecap="round"/>
<path d="M29.9906 9.02385C30.2517 8.99123 30.5701 9.01412 30.7097 9.32805C30.8347 9.60932 31.4062 9.41102 31.6376 9.41102C31.9173 9.41102 32.1906 9.47805 32.3413 9.74594C32.4756 9.98483 32.5356 10.4539 32.879 10.4619C33.1972 10.4693 33.8158 10.3134 33.8592 10.7692C33.8787 10.9743 33.913 11.1986 33.9975 11.3898C34.162 11.7621 34.8189 11.4268 34.9684 11.7463C35.0915 12.0092 34.9649 12.4314 35.2204 12.6404C35.3689 12.7619 35.6273 12.6869 35.795 12.7603C35.9554 12.8304 36.0643 13.0077 36.1299 13.1597C36.2308 13.3933 36.2714 13.3607 36.1299 13.172" stroke="#E5E5E5" stroke-linecap="round"/>
<path d="M32.5349 8.19424C32.4442 8.20558 32.5082 8.24955 32.5656 8.24955C32.8628 8.24955 33.2023 8.38158 33.3891 8.62442C33.4559 8.7113 33.4158 8.87656 33.4198 8.98086C33.4275 9.18037 33.7376 9.10187 33.8623 9.09148C34.1544 9.06714 34.4945 8.97995 34.6089 9.30042C34.7142 9.59516 34.6666 9.79281 35.0545 9.71524C35.1644 9.69325 35.7428 9.50667 35.7428 9.74289C35.7428 9.94172 35.5834 10.2628 35.9149 10.2929C36.3393 10.3315 36.3768 10.2805 36.5724 10.6831C36.678 10.9005 36.5937 11.2235 36.849 11.0703" stroke="#E5E5E5" stroke-linecap="round"/>
<path d="M33.0879 6.31374C33.0278 6.31374 32.9329 6.29682 32.879 6.32603C32.7651 6.38774 32.8629 6.63579 32.9773 6.6456C33.3523 6.67774 33.3425 6.21736 33.1433 6.04027C33.0267 5.93663 32.6089 5.81483 32.6485 6.09251C32.6697 6.24065 32.922 6.26334 32.922 6.09251" stroke="#E5E5E5" stroke-linecap="round"/>
<path d="M29.88 6.0925C29.5763 6.11148 29.7801 6.51809 29.9046 6.39362C29.9502 6.34806 29.9202 6.26457 29.8524 6.26457C29.7707 6.26457 29.6647 6.37845 29.6035 6.42435" stroke="#E5E5E5" stroke-linecap="round"/>
<path d="M26.4509 8.02832C26.269 8.02832 26.3403 8.27677 26.3403 8.41548" stroke="#E5E5E5" stroke-linecap="round"/>
<path d="M23.4642 9.07916C23.5034 9.08406 23.5405 9.1173 23.5748 9.13447" stroke="#E5E5E5" stroke-linecap="round"/>
<path d="M25.4 11.0703C25.451 11.0639 25.4366 11.0523 25.4553 11.015" stroke="#E5E5E5" stroke-linecap="round"/>
<path d="M38.0657 6.86682C38.05 7.0082 38.0463 7.16595 38.0104 7.30929" stroke="#E5E5E5" stroke-linecap="round"/>
<path d="M40.0016 9.90882C40.0016 9.86561 39.9694 10.0722 39.9463 10.1301" stroke="#E5E5E5" stroke-linecap="round"/>
<path d="M40.2228 12.7849C40.4019 12.8297 40.0343 13.041 40.0016 13.0614" stroke="#E5E5E5" stroke-linecap="round"/>
<path d="M37.8998 14.3335C37.9084 14.4024 38.021 14.3994 38.0658 14.4441" stroke="#E5E5E5" stroke-linecap="round"/>
<path d="M37.8998 17.818C37.9183 17.9844 38.0314 17.9593 37.9551 18.1498" stroke="#E5E5E5" stroke-linecap="round"/>
<path d="M36.683 19.4219C36.6918 19.5011 36.7275 19.5105 36.7936 19.5326" stroke="#E5E5E5" stroke-linecap="round"/>
<path d="M13.5639 22.0768C13.5639 22.4855 13.1843 22.8583 12.8203 22.9894C12.2687 23.188 11.7957 23.2163 11.2409 22.9894C10.5198 22.6943 9.90229 22.4443 9.44341 21.7695C8.97281 21.0774 8.80285 20.3893 8.61377 19.5909C8.09589 17.4043 8.36824 13.7396 11.075 13.1475C12.4448 12.8478 13.7985 13.4908 14.5042 14.6531C14.6678 14.9226 14.4324 15.2585 14.2829 15.4827C14.0389 15.8488 13.85 16.2417 13.6192 16.6135C13.2933 17.1385 12.9941 17.6033 12.7896 18.1929C12.5215 18.9655 13.307 19.3498 13.6069 19.9197C13.7857 20.2595 13.8958 20.5384 13.8958 20.9276C13.8958 21.1619 13.8353 21.3041 13.7176 21.5114C13.6459 21.6374 13.6163 21.9064 13.5086 21.7449" stroke="#E5E5E5" stroke-linecap="round"/>
<path d="M9.30513 14.8866C8.96826 15.2235 9.61245 15.2642 9.8152 15.3844C9.91897 15.4459 10.2338 15.6717 9.96883 15.495" stroke="#E5E5E5" stroke-linecap="round"/>
<path d="M8.53081 17.7074C8.55756 17.9482 9.16043 17.7669 9.30513 17.9839" stroke="#E5E5E5" stroke-linecap="round"/>
<path d="M9.41574 20.4728C9.61745 20.2913 9.90097 20.1602 10.1348 20.0303" stroke="#E5E5E5" stroke-linecap="round"/>
<path d="M10.6879 22.6852C10.888 22.6407 11.1575 22.2616 11.2962 22.1321" stroke="#E5E5E5" stroke-linecap="round"/>
<path d="M12.513 19.3666C12.317 19.3911 11.6243 19.8348 11.794 19.9197" stroke="#E5E5E5" stroke-linecap="round"/>
<path d="M11.96 17.652C11.8134 17.652 11.4091 17.6012 11.3516 17.4861" stroke="#E5E5E5" stroke-linecap="round"/>
<path d="M12.679 16.1587C12.5856 16.0757 12.5005 16.0657 12.4577 15.9375" stroke="#E5E5E5" stroke-linecap="round"/>
<path d="M12.1812 13.7251C12.1812 13.9856 12.2509 14.1171 12.4024 14.3335" stroke="#E5E5E5" stroke-linecap="round"/>
<path d="M12.8449 16.6565C12.9663 16.67 13.0483 16.7671 13.1767 16.7671" stroke="#E5E5E5" stroke-linecap="round"/>
<path d="M11.96 17.818C11.98 17.9985 12.3326 18.0142 12.4577 18.0392" stroke="#E5E5E5" stroke-linecap="round"/>
<path d="M12.2365 19.5326H12.679" stroke="#E5E5E5" stroke-linecap="round"/>
<path d="M34.8025 25.2847C34.8492 25.751 35.0513 25.2463 34.8025 25.3707C34.4648 25.5396 34.9567 25.8142 34.8578 25.6165" stroke="#E5E5E5" stroke-linecap="round"/>
<path d="M18.4311 6.8115C18.3549 6.75052 18.1585 6.81798 18.2129 6.85759C18.2961 6.91807 18.8251 6.78622 18.7507 6.64558C18.6884 6.52803 18.0804 6.79262 18.2652 6.97743" stroke="#E5E5E5" stroke-linecap="round"/>
<path d="M41.1077 21.6343C40.998 21.8812 41.1808 22.2239 40.9971 22.1321" stroke="#E5E5E5" stroke-linecap="round"/>
</g>
<defs>
<filter id="filter0_d_2_926" x="0.931892" y="0.754013" width="50.1656" height="43.8862" filterUnits="userSpaceOnUse" color-interpolation-filters="sRGB">
<feFlood flood-opacity="0" result="BackgroundImageFix"/>
<feColorMatrix in="SourceAlpha" type="matrix" values="0 0 0 0 0 0 0 0 0 0 0 0 0 0 0 0 0 0 127 0" result="hardAlpha"/>
<feOffset dy="4"/>
<feGaussianBlur stdDeviation="2"/>
<feComposite in2="hardAlpha" operator="out"/>
<feColorMatrix type="matrix" values="0 0 0 0 0 0 0 0 0 0 0 0 0 0 0 0 0 0 0.25 0"/>
<feBlend mode="normal" in2="BackgroundImageFix" result="effect1_dropShadow_2_926"/>
<feBlend mode="normal" in="SourceGraphic" in2="effect1_dropShadow_2_926" result="shape"/>
</filter>
</defs>
</svg>
