<svg width="45" height="337" viewBox="0 0 45 337" fill="none" xmlns="http://www.w3.org/2000/svg">
<path d="M27.0677 15.4207C25.8733 15.4207 27.0677 16.2032 27.0677 17.5876C27.0677 22.3584 25.1315 31.302 27.3772 35.232C27.9023 36.1508 33.3231 26.6702 31.9431 23.0821C30.9331 20.4562 29.8328 18.5959 28.4607 16.1946C25.6898 11.3456 22.2436 17.1093 20.7993 19.6771C16.2909 27.6919 16.5508 37.3528 18.7098 45.9889C20.4506 52.9519 27.0211 53.9164 29.8537 47.1497C33.1395 39.3001 34.6157 28.9744 29.8537 21.3022C17.8009 1.88391 12.5066 49.0291 25.9843 44.3638C40.9983 39.1666 27.8008 10.3988 22.2697 17.5102C11.8083 30.9605 17.3168 50.2854 17.3168 65.4906C17.3168 68.1093 18.605 81.1082 23.1983 78.1048C29.4199 74.0369 31.8442 57.455 29.5441 50.5548C26.1866 40.4822 17.9678 51.6126 15.9239 55.8172C12.2956 63.2811 10.2789 73.2851 12.364 81.5099C13.3157 85.2637 17.7666 94.9984 22.8888 90.0226C27.3191 85.7188 30.1488 75.3072 28.3833 69.1279C27.5617 66.2525 23.8103 73.4757 23.5852 73.9259C20.6931 79.7103 18.0448 85.4568 19.4837 92.0346C22.5477 106.041 35.9161 103.125 38.7533 90.6417C41.5417 78.3725 26.8946 77.218 21.5732 85.9984C17.4599 92.7853 12.8916 122.346 28.7702 119.585C34.2681 118.629 41.2241 109.025 37.902 103.488C36.2667 100.763 29.1651 110.716 28.7702 111.536C26.8055 115.617 25.662 144.981 34.0326 136.61C40.8606 129.782 38.1677 116.479 29.8537 127.169C26.0982 131.997 16.8267 160.136 29.8537 160.136C38.4316 160.136 35.255 140.592 28.4607 148.141C24.1874 152.889 11.0635 192.328 25.6747 190.704C32.6828 189.925 42.738 164.581 32.5622 163.309C20.8523 161.845 17.8068 187.473 20.1028 194.496C21.9118 200.029 26.8414 196.734 29.8537 193.722C34.1585 189.417 36.0733 183.361 35.4256 177.316C35.1718 174.947 32.1759 176.04 30.9371 176.852C26.4541 179.789 24.283 185.637 23.1983 190.627C22.0412 195.949 23.7198 215.681 33.5683 210.593C42.945 205.748 43.8449 188.36 34.8065 197.901C29.0008 204.029 27.4583 211.114 27.1451 219.415C27.0138 222.893 26.4617 238.223 33.5683 236.518C44.9634 233.783 45.6127 208.745 33.3361 212.837C19.7965 217.35 10.1581 243.224 18.0907 254.859C26.1852 266.73 41.8319 245.722 32.4848 238.452C18.8824 227.873 13.9358 259.079 16.2334 266.312C21.7345 283.63 43.0055 253.236 26.4486 250.37C12.4258 247.943 2.02393 285.885 17.3168 290.612C34.7506 296 40.6719 265.215 28.7702 267.86C17.0335 270.468 5.01866 298.59 19.4837 304.077C30.4335 308.231 43.0863 289.204 36.0447 280.242C29.5447 271.969 16.8494 295.52 27.1451 298.737C38.7006 302.348 40.5598 281.63 31.9431 276.759C23.0423 271.728 14.9612 285.516 22.1149 286.742C29.2448 287.965 31.9521 275.323 32.3301 270.646C33.0719 261.466 30.4827 248.358 23.9722 241.393C14.1455 230.881 16.9295 250.435 26.4486 243.56C39.8202 233.903 30.2749 203.543 21.1862 194.032C13.056 185.523 9.52594 202.626 15.3048 205.253C20.6296 207.673 20.8262 189.235 20.6445 187.454C19.6489 177.696 16.7734 168.696 12.5188 159.904C6.87608 148.242 1.57612 164.648 10.3519 169.035C16.0052 171.862 18.3246 159.174 18.4777 156.112C19.0192 145.28 13.0261 133.691 7.02426 125.079C1.59367 117.288 2.01213 130.222 6.173 133.514C16.8052 141.927 25.1108 133.814 23.9722 122.68C23.1043 114.194 19.5205 103.941 13.4474 97.7613C9.59689 93.8432 6.7921 97.0376 6.7921 101.785C6.7921 107.498 12.9611 109.145 17.3168 107.048C24.6362 103.524 30.6275 94.6221 30.6275 86.4627C30.6275 80.6558 27.4363 67.7644 21.4958 64.7941C17.3959 62.7442 15.6929 68.4769 16.2334 71.4495C19.2568 88.0781 36.06 73.3098 36.5864 62.7821C37.0957 52.5951 22.9719 30.2558 15.3048 46.6854C11.4233 55.0028 34.0272 55.6141 32.3301 40.3396C31.4411 32.3392 11.8997 7.7615 11.8997 26.5646C11.8997 42.6858 33.2895 30.9485 34.4969 19.9092C34.851 16.6716 31.2235 3.94048 27.0677 3.50303C22.7362 3.04709 21.5427 14.516 21.8053 16.8137C23.3904 30.6833 41.9223 28.0501 36.8186 13.873C32.8854 2.94757 24.987 22.3681 27.0677 18.2067" stroke="#D8A1FF" stroke-opacity="0.62" stroke-width="5" stroke-linecap="round"/>
<path d="M23.8141 310.422C27.4993 308.17 24.6393 299.294 20.2104 299.642C13.8651 300.139 11.8226 306.578 13.6391 312.027C15.99 319.08 26.1456 320.939 31.5967 316.267C35.9551 312.531 37.0264 301.874 31.9904 298.097C24.3959 292.401 13.9635 316.958 27.0846 318.901C33.8604 319.905 40.829 311.544 39.2582 305.093C36.9611 295.658 25.9222 299.44 20.7858 303.578C13.9545 309.082 9.60666 318.128 14.0933 326.442C17.6292 332.994 28.2459 338.652 34.6856 332.832C40.5288 327.55 41.1885 315.782 34.6856 310.634C28.5735 305.796 21.821 312.142 19.3322 317.63C16.9293 322.928 16.05 333.428 24.1169 334.043C31.1722 334.58 32.4452 324.557 31.0213 319.628C29.6815 314.99 25.6261 316.49 23.6929 319.81C22.5962 321.693 19.4246 327.334 23.8141 325.14" stroke="#D8A1FF" stroke-opacity="0.64" stroke-width="3" stroke-linecap="round"/>
</svg>
