<svg width="299" height="173" viewBox="0 0 299 173" fill="none" xmlns="http://www.w3.org/2000/svg">
<path d="M169.46 89.9398C172.236 89.9398 174.217 89.479 176.884 88.59" stroke="#D8A1FF" stroke-width="3" stroke-linecap="round"/>
<path d="M115.717 53.7597C99.7304 37.2411 69.3948 44.4664 53.0337 57.0408C41.984 65.5331 29.4955 80.5824 32.915 94.8087C34.801 102.655 42.8372 108.979 50.0684 112.68C62.6247 119.108 78.0262 118.453 91.8448 117.567C117.201 115.941 142.176 111.685 167.327 108.492C188.467 105.808 211.357 105.619 231.475 98.3691C244.215 93.7781 250.272 85.3091 251.18 72.7134C252.271 57.5839 245.629 40.4429 233.201 30.3031C218.189 18.0554 196.48 12.3709 176.899 12.4314C147.628 12.5219 118.112 21.5336 91.8448 33.0257C72.8352 41.3428 11.5555 72.2376 47.929 95.5068C54.6414 99.801 62.7068 102.009 70.4874 103.884C84.4804 107.256 98.7483 108.834 113.165 109.504C141.796 110.835 170.314 108.529 198.219 102.348C221.434 97.2066 245.414 90.135 260.076 71.4219C271.886 56.3498 272.892 36.918 257.524 23.3918C250.157 16.9078 240.38 13.875 230.761 11.6984C214.888 8.10633 198.429 7.13498 182.191 8.76634C146.116 12.3906 110.776 24.7001 80.209 42.7295C70.5002 48.4561 61.5371 55.0271 53.7469 62.905C46.9842 69.7438 39.1821 78.4633 39.5587 88.3861C40.3622 109.557 69.9723 118.917 88.0913 122.454C117.903 128.273 149.516 127.566 179.226 121.616C191.884 119.081 204.279 115.302 216.16 110.516C231.586 104.303 245.975 97.6486 249.942 80.9163C253.651 65.2694 252.065 46.2828 240.033 33.8635C222.604 15.8744 188.94 19.1931 166.427 23.1125C143.925 27.0299 122.368 34.3115 102.58 45.0333C89.5854 52.0739 76.1017 61.486 67.0718 72.888C56.8689 85.7709 61.6392 101.813 77.3563 108.317C100.696 117.976 130.097 114.395 154.003 108.911C170.993 105.013 194.697 97.5536 203.211 81.7191C211.739 65.8568 198.671 49.2654 183.205 42.8691C160.499 33.4787 130.909 33.6781 107.159 38.9597C77.641 45.5239 46.4723 61.3181 28.636 84.8257C16.9693 100.202 20.9791 117.717 38.3576 127.096C64.0229 140.948 98.3299 141.857 126.977 138.092C156.862 134.164 188.179 125.05 211.281 106.293C228.517 92.2983 245.516 69.2918 234.552 47.337C222.7 23.6001 191.81 17.0022 166.352 17.8767C130.471 19.1093 96.5102 31.8437 67.4471 51.1069C51.1865 61.8845 30.0512 78.5476 41.9609 98.8927C45.6091 105.125 51.4118 109.645 58.2135 112.75C73.5859 119.769 91.7324 122.73 108.735 122.873C124.125 123.002 139.238 120.323 154.003 116.52C170.769 112.202 188.828 106.756 202.648 96.5191C210.559 90.6591 218.229 82.4533 221.04 73.1672C224.153 62.8848 216.948 54.3231 207.527 49.7804C198.152 45.2596 187.031 44.8294 176.749 45.2427C157.102 46.0325 137.711 50.5226 119.733 57.8785C106.004 63.4963 68.9656 81.1751 84.6381 100.394C89.3747 106.202 97.8376 108.827 105.02 110.586C117.476 113.637 130.261 114.053 143.005 112.611C150.878 111.719 158.495 110.067 165.864 107.305C173.263 104.531 183.314 100.908 187.033 93.6917C193.394 81.3513 183.557 70.09 170.818 67.0936C156.299 63.6784 137.925 68.6181 126.077 76.8672C116.525 83.517 126.357 90.6407 135.31 87.8974C143.781 85.3021 152.264 78.9449 157.531 72.3295C163.065 65.3785 152.501 67.6693 149.123 68.6295C146.438 69.3928 133.466 74.8091 138.576 79.3106C143.608 83.7437 155.621 80.1208 160.459 77.1464C167.618 72.7444 158.025 67.3993 153.402 66.2559C143.62 63.8366 131.092 68.5575 125.176 76.0993C119.253 83.6485 128.073 89.6409 135.498 90.8294C143.904 92.1751 157.432 89.7369 162.335 82.3125C166.341 76.2479 156.498 69.0218 150.662 69.2578C145.781 69.4551 132.562 74.2396 134.86 80.7766C137.027 86.9403 147.778 86.0272 152.539 83.8134C156.921 81.7757 158.028 75.9742 152.726 74.1446C146.04 71.8367 133.257 81.6063 142.742 84.5464" stroke="#D8A1FF" stroke-width="3" stroke-linecap="round"/>
<path d="M123.892 42.137C122.757 40.1072 121.361 39.6821 119.042 38.9962C106.753 35.3614 143.192 47.7546 155.669 50.6818C158.879 51.4348 162.143 52.1188 165.438 52.2291C166.4 52.2612 167.733 51.9896 168.094 51.0975C168.402 50.3332 165.087 46.9462 164.86 46.7558C157.4 40.4768 146.355 38.1277 137.032 36.5944C121.013 33.9597 103.444 36.9566 88.8118 43.9383C83.3614 46.539 77.9508 49.6803 73.3619 53.6378C70.4831 56.1204 69.5951 57.8095 69.0202 61.2588" stroke="#D8A1FF" stroke-linecap="round"/>
<path d="M133.868 49.6194C125.714 49.9877 117.689 51.9975 109.827 54.0766C101.049 56.3979 92.6048 58.551 84.7472 63.2911C77.6746 67.5576 74.2503 71.8821 69.482 78.4408C65.4627 83.9694 60.6862 90.7831 60.4292 97.9784C60.2456 103.118 62.5524 109.017 65.6484 113.036C72.8985 122.446 86.1862 124.839 97.4258 124.375C105.288 124.05 112.901 120.999 119.966 117.77C129.3 113.504 137.664 108.04 145.346 101.235C150.913 96.3032 156.111 90.9236 160.565 84.9533C165.31 78.5917 170.17 71.1113 171.465 63.1063C173.255 52.0419 166.755 40.6225 155.53 38.3033C138.583 34.8019 119.925 39.3352 103.985 45.0468C94.3519 48.4983 84.2647 52.4741 76.0869 58.7647" stroke="#D8A1FF" stroke-linecap="round"/>
<path d="M182.062 65.7526C181.997 65.58 181.439 64.0578 181.369 64.0437C175.818 62.9255 160.15 64.9359 158.46 65.1522C140.284 67.4782 116.506 71.5024 98.9234 76.1911C86.0275 79.6301 68.566 84.0961 60.3102 96.0751C56.6806 101.342 56.2049 107.637 59.5019 113.188C62.2546 117.822 63.8458 118.497 69.9635 119.885C75.3208 121.101 80.7948 121.815 86.2679 122.287C100.011 123.473 123.876 123.944 137.537 123.257C148.486 122.706 158.894 121.651 169.129 117.714C172.205 116.531 182.657 110.301 185.48 108.43C195.084 102.068 203.702 93.9957 208.943 83.6043C212.725 76.107 214.894 67.33 212.223 59.1016C208.82 48.6185 200.871 42.0251 191.046 37.7165C179.65 32.7192 167.427 31.0672 155.088 30.488C137.266 29.6515 119.251 30.8887 102.018 35.7304C76.7899 42.8183 49.0856 57.5791 41.0036 84.4588C35.1609 103.89 44.7846 122.812 61.973 132.587C75.52 140.29 90.9736 145.081 106.614 145.081C124.462 145.081 142.646 141.082 159.153 134.388C184.433 124.137 211.626 109.487 226.818 85.9599C231.167 79.2252 234.732 72.3371 233.285 64.113C231.361 53.1792 223.489 44.845 214.44 39.0097C202.074 31.0357 187.795 26.0919 173.425 23.2596C150.646 18.77 126.093 18.0319 103.103 21.2735C81.8376 24.272 61.1597 33.3759 44.6062 47.1388C31.7621 57.8177 23.5224 72.0004 22.8517 88.8236C21.8776 113.256 41.999 131.636 63.5434 139.33C83.9189 146.607 106.746 149.924 128.322 148.014C146.946 146.365 165.703 141.588 183.171 134.989C196.087 130.108 208.966 124.496 220.906 117.529C231.822 111.161 242.219 103.38 249.104 92.5879C255.802 82.0892 258.551 69.9309 252.453 58.4549C246.31 46.8969 234.677 38.7529 223.308 32.9822C212.914 27.7064 201.845 24.451 190.561 21.7123C174.231 17.7493 157.681 17.9183 140.955 18.8717C126.525 19.6943 111.85 21.4638 98.092 26.1233C79.8914 32.2873 61.0995 42.2987 47.0311 55.522C35.275 66.5719 27.8809 83.3909 35.1839 98.9157C42.6938 114.88 59.44 122.276 76.1989 123.903C101.071 126.319 126.364 120.143 149.753 112.195C160.512 108.539 171.183 104.303 181.415 99.3545C191.286 94.5806 201.647 88.8967 209.452 81.0409C213.709 76.7555 217.262 71.1197 218.227 65.0598C219.417 57.5856 215.014 50.6261 209.313 46.192C201.22 39.8975 190.315 36.8287 180.261 35.8689C165.164 34.4279 149.637 36.3172 135.043 40.2337C122.673 43.5531 111.146 48.7202 100.956 56.5612C91.4384 63.8845 84.0695 73.3423 86.545 86.0292C87.9337 93.1463 93.8529 98.3994 99.8472 101.872C112.167 109.008 127.784 110.385 141.647 108.454C153.245 106.838 164.584 102.571 174.556 96.4677C180.636 92.7472 186.324 87.611 186.958 80.0248C187.58 72.5879 180.499 67.6303 174.395 65.2215C164.47 61.3051 152.817 61.6216 142.571 64.0437C129.558 67.12 110.801 76.7712 109.062 91.872C108.242 98.9941 111.51 106.298 117.075 110.74C128.004 119.463 142.473 118.627 155.342 115.428C169.153 111.994 189.605 104.21 192.5 87.8767C195.958 68.3685 169.285 63.389 155.596 63.6742C143.308 63.9302 131.644 68.7668 121.163 74.8286C111.936 80.1654 103.996 87.1503 99.1082 96.791C91.3849 112.025 98.742 129.359 113.103 137.275C121.637 141.979 131.26 143.283 140.862 143.834C154.936 144.641 168.611 143.201 181.785 137.991C192.134 133.897 201.934 128.296 209.775 120.301C217.648 112.272 224.782 102.321 226.264 90.9251C227.479 81.5792 223.128 72.5909 217.073 65.6141C205.824 52.6545 187.319 47.8478 170.861 46.5846C156.31 45.4677 142.091 48.4723 128.184 52.4736C112.56 56.9683 97.7485 62.9641 84.6051 72.6808C68.5783 84.5294 55.9374 103.124 59.1093 123.742C60.6889 134.009 65.1509 142.337 74.259 147.736C87.8076 155.769 105.252 157.708 120.539 154.618C134.358 151.826 147.83 145.005 157.952 135.173C165.963 127.392 173.055 116.457 171.346 104.735C168.149 82.806 142.025 78.767 124.35 83.4889C117.642 85.2808 110.53 88.2104 105.482 93.1422C101.5 97.0329 98.0099 103.572 100.401 109.216C102.303 113.702 107.451 116.343 111.902 117.483C120.123 119.589 129.443 117.585 137.19 114.62C143.098 112.358 150.952 108.548 153.656 102.334C155.438 98.2392 153.292 94.0075 149.038 92.865C144.427 91.627 139.473 93.8271 135.481 95.9135C129.657 98.9578 123.078 103.246 119.939 109.262C117.894 113.181 117.585 118.41 122.964 119.262C128.665 120.164 135.235 117.322 139.8 114.112C143.375 111.597 146.805 107.951 148.298 103.765C149.762 99.6652 148.329 96.0243 143.68 95.9365C138.286 95.8348 133.488 99.6317 129.962 103.35C128.197 105.21 125.984 109.464 130.632 108.731C138.852 107.433 145.517 92.5664 135.966 88.431C129.966 85.8329 122.32 88.132 117.075 91.387C111.4 94.9095 106.019 103.317 112.179 109.146C118.193 114.836 128.736 112.492 135.481 109.908C141.31 107.676 145.607 105.077 150.677 101.456C155.533 97.9875 160.987 93.7904 162.848 87.7844C169.222 67.2078 137.596 64.391 124.881 65.106C111.187 65.8761 97.5372 68.8685 84.7899 73.9279C72.6385 78.7508 58.7472 85.2218 51.5806 96.7679C47.7256 102.979 46.7774 109.715 49.0403 116.698C52.0607 126.018 60.3578 131.803 69.1783 135.22C77.8148 138.565 86.8501 138.145 95.7365 136.051C104.488 133.989 115.896 130.699 120.817 122.379C124.156 116.734 124.555 108.636 117.814 105.29C109.978 101.399 99.0826 103.821 91.3948 106.675C77.1817 111.953 53.6589 125.559 56.9847 144.041C60.0955 161.329 82.0322 160 94.651 156.189C101.097 154.242 107.064 151.19 111.648 146.166C113.793 143.816 118.516 137.385 113.426 135.081C109.116 133.13 103.904 137.639 101.649 140.785C98.9408 144.563 96.9856 150.962 100.171 155.127C102.701 158.436 108.974 157.572 112.41 157.066C119.932 155.96 126.273 151.912 131.925 147.021C134.337 144.933 140.717 139.989 138.599 135.866C136.878 132.515 133.808 135.839 132.849 137.737C129.054 145.241 129.487 156.533 140.262 156.143C147.699 155.874 155.483 151.767 161.693 147.991C166.76 144.909 172.746 140.596 174.857 134.758C175.521 132.919 176.067 129.27 174.164 127.829C171.93 126.138 169.08 131.52 168.506 132.772C164.709 141.055 171.437 148.011 179.845 147.182C191.32 146.051 204.808 139.342 211.899 130.116C213.876 127.544 218.123 120.424 213.562 117.945C209.076 115.506 205.35 119.688 204.094 123.534C202.457 128.544 202.271 134.906 205.572 139.33C212.426 148.516 225.897 142.021 232.73 136.698C240.272 130.822 259.549 112.981 250.282 101.456C247.785 98.3507 242.243 98.0958 238.966 99.4699C232.866 102.028 228.935 108.976 229.959 115.451C231.145 122.949 238.604 125.207 245.109 125.266C255.106 125.356 265.131 120.731 273.237 115.174C290.062 103.64 288.012 80.8615 273.514 68.2468C267.084 62.6516 259.305 59.6583 250.882 58.8244C240.842 57.8305 229.633 58.2971 220.213 62.2423C214.799 64.5099 209.461 68.0418 206.426 73.212C203.943 77.4433 203.909 83.3954 209.313 85.2902C220.684 89.2775 232.019 75.6092 228.158 64.9443C225.18 56.7194 215.597 50.761 207.465 48.8478C195.069 45.9309 180.663 47.5753 168.321 49.887C159.801 51.4828 151.637 54.4007 144.003 58.5011C140.005 60.6486 132.759 64.136 131.902 69.4015C131.456 72.1396 134.006 72.5604 135.435 70.5793C138.574 66.227 136.083 59.9281 132.779 56.4688C127.08 50.5018 118.025 46.9492 110.424 44.3214C97.4118 39.8227 83.732 39.793 70.2406 41.8965C59.5473 43.5637 48.5199 46.7756 40.8188 54.8522C36.5175 59.3634 32.521 66.3112 35.461 72.5654C37.2991 76.4755 41.1985 79.6188 45.6686 79.586C49.3727 79.5587 55.6183 76.3613 53.9362 71.7109C52.3883 67.4313 47.1184 64.5525 42.9435 63.7665C31.9791 61.7024 21.0539 67.644 13.3369 74.921C6.65395 81.2229 2.73574 88.7203 3.01388 98.0381C3.28934 107.266 7.77156 114.776 16.2468 118.684C21.2321 120.983 28.0131 121.48 32.4126 117.645C35.7148 114.766 32.9173 111.685 29.2256 111.756C17.9323 111.972 16.8069 130.602 19.0642 138.152C22.9796 151.248 35.178 159.437 48.8094 155.588C52.4888 154.55 56.1326 152.44 57.7237 148.799C58.7429 146.466 60.1345 139.973 56.3611 139.03C52.3363 138.024 49.3132 143.337 48.6708 146.443C47.3087 153.03 48.8344 159.971 53.7284 164.711C64.5154 175.158 82.6742 171.028 92.4109 161.362C95.3076 158.486 97.7842 154.888 98.2306 150.739C98.6016 147.291 97.5938 147.975 97.5609 151.201C97.439 163.141 108.808 170.743 120.262 169.953C124.127 169.686 128.792 168.113 132.225 166.627C140.277 163.144 148.227 158.563 154.903 152.84C161.563 147.132 165.701 139.348 166.035 130.508C166.091 129.008 165.845 123.604 162.802 124.365C159.123 125.285 161.61 132.038 162.478 133.788C165.735 140.35 171.55 143.498 178.829 143.164C190.007 142.65 202.584 138.301 211.692 131.802C219.056 126.546 226.234 119.083 231.114 111.456C235.48 104.632 238.415 94.1903 235.825 86.214C233.822 80.0457 228.04 77.2864 223.192 82.4496C217.609 88.3965 216.728 99.0791 224.416 103.765C232.782 108.864 243.688 108.183 252.637 105.428C264.291 101.841 277.029 95.8006 282.798 84.4357C286.704 76.7423 287.926 67.4523 283.791 59.5865C278.545 49.6059 267.309 40.6795 257.025 36.377C247.429 32.3623 236.699 32.0574 226.541 33.6057C215.936 35.2223 203.387 38.659 194.764 45.4299C190.948 48.4263 187.301 54.0782 190.191 58.963C192.829 63.4223 199.634 63.2954 203.632 61.0876C207.896 58.7327 212.086 53.4105 211.923 48.3166C211.65 39.8144 200.832 31.958 194.533 27.9708C185.757 22.4163 176.204 19.4022 165.804 19.195C152.323 18.9265 137.437 20.9487 125.066 26.562C121.4 28.2254 115.051 31.3841 114.35 36.0537C113.585 41.1549 121.836 39.3916 124.096 38.3169C130.452 35.2943 134.109 27.9407 131.763 21.1349C128.381 11.3223 115.775 6.30555 106.591 4.18392C96.1009 1.76066 84.2057 3.24869 74.1666 6.90902C66.5241 9.69555 59.4324 13.8099 53.5205 19.4722C50.2288 22.625 34.1491 39.2014 42.3199 45.6377C46.219 48.7091 53.5284 44.8379 56.2687 42.9819C60.5582 40.0766 63.0311 36.9171 63.5203 31.7582C64.4015 22.4652 54.1913 20.7568 47.3313 21.5506C30.3687 23.5136 12.7315 38.7542 14.0759 57.0231C14.7072 65.6015 20.6016 73.4917 28.9947 75.8678C35.0658 77.5866 47.9436 77.4115 50.2874 69.7017C51.8104 64.6916 45.9439 62.2181 42.0428 62.1269C33.8011 61.9341 27.4256 69.2496 24.9301 76.5145C21.1631 87.4812 24.5452 100.851 33.1285 108.661C41.0992 115.915 52.1867 116.401 61.973 113.188C70.1723 110.496 82.1857 106.03 86.4988 97.761C88.2358 94.431 88.3618 86.1778 83.4042 85.1978C77.9376 84.1172 75.2361 92.8735 75.0442 96.7448C74.5637 106.439 82.4463 114.792 90.7943 118.453C100.356 122.647 110.871 121.197 120.516 118.176C132.116 114.542 144.971 108.258 152.502 98.3152C157.082 92.268 159.014 83.9101 155.689 76.7916C151.771 68.4068 142.21 68.2755 134.765 71.48C127.77 74.4909 121.419 80.2379 120.309 88.1308C118.602 100.263 126.592 113.732 138.691 116.883C151.459 120.208 166.878 113.92 177.374 107.068C185.941 101.475 192.144 92.8914 190.607 82.1494C189.622 75.2721 184.687 68.1848 176.843 69.6324C167.163 71.4187 160.385 83.4987 161 92.6572C161.55 100.837 167.646 108.442 175.526 110.694C186.32 113.778 199.864 108.19 208.482 101.872C214.883 97.1786 218.536 90.1461 218.735 82.1956C218.93 74.4565 215.371 68.0157 207.004 70.8795C197.144 74.2538 190.733 83.4749 187.651 93.0498C184.159 103.894 183.602 115.819 193.817 123.049C201.505 128.491 211.785 129.943 220.029 124.781C229.431 118.894 229.442 105.253 222.615 97.2067C216.347 89.8188 206.853 93.5261 200.491 98.5C192.123 105.043 185.699 114.742 189.175 125.566C196.317 147.805 226.73 142.041 241.968 132.679C251.521 126.81 261.728 117.601 262.545 105.659C263.023 98.6631 260.272 88.3918 252.684 85.9368C245.522 83.6198 238.221 87.7499 233.793 93.1884C226.996 101.535 224.855 113.269 227.996 123.488C231.235 134.025 239.84 136.332 250.051 135.543C261.339 134.67 272.672 130.614 281.159 123.003C288.507 116.412 294.587 107.515 295.038 97.3453C295.557 85.621 287.956 74.4509 276.748 70.7871C266.498 67.4368 255.726 72.9165 247.695 78.8931C243.885 81.729 241.058 84.3023 238.157 87.9922C235.619 91.2206 235.953 92.7136 234.855 96.0982" stroke="#D8A1FF" stroke-width="6" stroke-linecap="round"/>
</svg>
