<svg width="297" height="89" viewBox="0 0 297 89" fill="none" xmlns="http://www.w3.org/2000/svg">
<path d="M7.20537 3.4054C6.53082 8.8018 1.24963 9.50633 5.0952 16.0664C12.8342 29.2682 30.9207 34.996 45.1884 37.5901C73.8258 42.7969 104.328 46.1191 132.971 37.1681C144.69 33.506 156.095 30.2432 167.789 26.1952C180.2 21.8993 191.343 14.1941 203.768 10.0524C225.186 2.91301 244.993 4.53863 264.54 15.8554C280.854 25.2999 278.201 50.7892 275.408 66.4994C274.987 68.8647 273.782 90.4513 277.729 84.6469C282.659 77.3974 288.169 70.8031 292.922 63.3342C294.859 60.2911 283.776 73.1862 281.633 77.4723C277.067 86.6035 278.271 85.8296 269.71 82.7477C264.235 80.7766 256.801 73.49 253.251 68.9261C249.21 63.7303 250.087 71.3546 248.398 67.9766" stroke="#FF7262" stroke-width="6" stroke-linecap="round"/>
</svg>
