<svg width="237" height="293" viewBox="0 0 237 293" fill="none" xmlns="http://www.w3.org/2000/svg">
<path d="M233.503 40.002C233.503 37.089 233.003 35.1275 230.443 33.355C219.303 25.6429 205.166 18.2215 192.46 13.4139C172.946 6.03006 153.911 3.48809 133.27 3.91811C125.413 4.0818 117.199 6.56873 109.741 8.87701C93.491 13.9069 87.0614 17.0469 79.988 33.355C70.8377 54.4516 77.6082 59.1483 87.2681 77.985C94.8924 92.8524 99.5755 108.313 106.365 123.459C114.488 141.578 123.375 159.191 130.949 177.585C138.77 196.579 145.2 210.243 144.137 231.5C143.355 247.152 134.888 262.008 124.829 273.598C107.378 293.704 70.8075 294.041 48.8631 280.772C37.8988 274.143 26.8966 263.431 19.9537 252.813C18.3496 250.359 7.47622 231.055 5.18256 237.936C2.14238 247.056 3.70544 276.354 3.70544 266.74C3.70544 258.195 7.50375 249.833 7.50375 241.312C7.50375 231.04 12.8712 234.943 20.7978 235.509C24.8941 235.802 45.5488 240.197 34.0919 235.615" stroke="#FF7262" stroke-width="6" stroke-linecap="round"/>
</svg>
