<svg width="380" height="129" viewBox="0 0 380 129" fill="none" xmlns="http://www.w3.org/2000/svg">
<path d="M369.048 125.046C385.054 123.045 370.614 94.7858 365.25 88.9623C355.49 78.3662 348.389 67.8995 335.602 60.475C315.9 49.0348 294.575 41.9498 273.88 33.0429C244.501 20.3987 214.389 17.9717 183.354 12.5742C154.75 7.59967 124.216 3.50049 95.1485 3.50049C72.7413 3.50049 38.9148 7.31191 27.201 30.0886C23.3945 37.4902 11.9316 72.2804 10.1087 46.7589C9.74778 41.7064 1.5718 28.387 3.56715 33.0429C6.13413 39.0325 6.61014 47.8802 7.78749 54.3556C9.48781 63.7073 12.7338 63.5193 21.6091 59.5255C26.8306 57.1758 32.5514 51.6735 30.9993 54.7776" stroke="#FF7262" stroke-width="6" stroke-linecap="round"/>
</svg>
