<svg width="394" height="144" viewBox="0 0 394 144" fill="none" xmlns="http://www.w3.org/2000/svg">
<path d="M3.33203 140.928C4.0554 135.142 17.3948 124.966 20.9519 121.409C28.626 113.735 38.7251 106.631 49.6502 104.95C65.4814 102.514 82.7941 108.643 98.9227 108.643C121.02 108.643 145.878 106.839 166.026 97.0369C183.407 88.5813 205.522 74.8496 202.637 51.7738C201.212 40.3688 193.379 36.2102 182.802 39.4293C171.826 42.7698 158.571 59.384 173.623 66.6505C193.578 76.284 224.333 62.5514 241.992 52.4068C279.139 31.0671 315.319 -9.668 361.85 7.56576C368.232 9.92951 373.667 16.5385 373.667 23.181C373.667 30.8436 368.736 36.7823 378.52 29.3005C382.151 26.5242 386.252 23.571 388.86 19.8047C389.218 19.2873 391.805 12.1446 389.282 14.1073C384.363 17.9329 380.108 22.676 375.566 26.9793C370.207 32.0565 366.552 36.5725 361.85 28.8785C356.803 20.6207 346.661 21.6997 341.381 26.9793" stroke="#FF7262" stroke-width="6" stroke-linecap="round"/>
</svg>
