<svg width="309" height="79" viewBox="0 0 309 79" fill="none" xmlns="http://www.w3.org/2000/svg">
<path d="M5.86523 74.3979C7.17563 63.9147 24.235 55.7245 31.5038 49.6034C42.6569 40.2113 53.4009 33.1457 66.7436 26.9191C86.5089 17.6953 108.792 14.3389 129.943 9.82672C146.534 6.28734 162.514 5.8838 179.11 3.70723C206.351 0.134693 233.005 15.0137 259.297 20.2721C274.336 23.28 282.766 25.086 297.913 21.6437C302.036 20.7065 311.152 19.3225 302.133 19.3225" stroke="#FF7262" stroke-width="6" stroke-linecap="round"/>
<path d="M3.96596 53.5072C4.23785 51.6039 5.24291 60.3259 4.38799 63.425C1.72032 73.0952 2.30477 78.5875 11.4571 73.5538C17.6571 70.1438 23.425 66.4215 29.499 63.1084C36.4804 59.3004 30.1651 61.8818 28.6549 64.9021" stroke="#FF7262" stroke-width="6" stroke-linecap="round"/>
</svg>
