<svg width="46" height="156" viewBox="0 0 46 156" fill="none" xmlns="http://www.w3.org/2000/svg">
<path d="M2.00305 2.22827C9.52388 2.22827 20.0391 8.96842 25.4706 13.9472C35.0946 22.7692 45.8053 35.4464 44.2031 49.6368C43.3256 57.4096 38.0013 64.1416 33.4904 70.2929C29.4776 75.7648 26.9643 82.3337 24.346 88.552C21.4567 95.4142 20.8136 102.338 20.1142 109.682C19.6085 114.991 19.4648 120.469 20.9724 125.662C22.8142 132.006 27.346 142.287 33.9639 145.401C34.9346 145.858 35.6812 137.465 35.8282 136.789C36.2044 135.059 37.0064 129.244 36.1242 134.096C35.6494 136.707 37.9248 144.169 35.3251 145.401C31.9859 146.983 27.8663 147.592 25.145 150.313C24.0584 151.4 23.0015 155.339 25.441 153.509" stroke="#F6F6F6" stroke-width="3" stroke-linecap="round"/>
</svg>
