<svg width="19" height="66" viewBox="0 0 19 66" fill="none" xmlns="http://www.w3.org/2000/svg">
<path d="M11.2846 64C11.1306 64 10.4718 62.5983 10.3037 62.3306C9.845 61.6 9.25362 60.469 9.3293 59.0226C9.50316 55.6998 10.5519 53.582 11.8615 52.6361C13.0434 51.7825 14.3683 50.7892 15.3618 48.9911C16.5897 46.7688 16.8974 44.649 16.9901 41.1037C17.2068 32.8221 13.812 26.7915 11.4513 22.1588C9.37912 18.0925 7.29598 14.2229 5.39952 9.69223C4.85386 8.38863 3.92971 6.41973 3.89941 4.39316C3.88607 3.50052 3.90137 2.47845 3.55323 3.35173C3.00483 4.72737 2.60292 6.28576 2.11723 7.76251C1.83052 8.63426 2.14948 7.32888 2.23262 7.05801C2.49268 6.21083 2.78131 5.47153 3.09166 4.7301C3.2805 4.27897 3.79102 2.26729 4.06609 2.24903C4.58226 2.21478 7.15918 1.55941 7.36121 2.52471" stroke="#F6F6F6" stroke-width="3" stroke-linecap="round"/>
</svg>
