<svg width="51" height="101" viewBox="0 0 51 101" fill="none" xmlns="http://www.w3.org/2000/svg">
<path d="M12.2855 97.9279C12.4024 98.8627 12.7712 98.9514 11.5079 97.846C5.56329 92.6445 2.93796 80.8671 2.05303 73.4927C1.19719 66.3607 14.1855 60.0895 19.7757 58.4713C27.5753 56.2136 44.0505 57.5256 47.4854 48.2388C51.9634 36.1316 40.9275 24.7955 33.651 16.6408C29.4495 11.9322 24.3092 9.60422 21.1264 4.03439C20.7925 3.45012 10.2151 12.0052 8.35625 12.3432C7.6606 12.4697 11.6847 8.53012 12.1218 8.04554C14.1074 5.84416 16.5317 4.36746 19.4892 3.78881C23.0964 3.08306 26.9087 4.36183 30.5403 4.36183C32.5203 4.36183 34.4868 4.13657 36.4342 3.78881C38.746 3.376 36.7898 2.89448 35.8612 2.15161" stroke="#F6F6F6" stroke-width="3" stroke-linecap="round"/>
</svg>
