<svg width="27" height="143" viewBox="0 0 27 143" fill="none" xmlns="http://www.w3.org/2000/svg">
<path d="M6.24155 1.56165C1.30089 2.11061 6.92748 22.2698 8.2539 25.4139C13.2816 37.3314 18.0232 49.9922 19.4994 62.9086C21.2242 78.0006 18.4949 94.0242 16.0961 108.897C15.3704 113.396 14.8236 118.298 14.8236 122.835C14.8236 126.79 15.3023 130.771 18.1973 133.666C19.5775 135.047 21.9913 135.123 23.1689 136.448C23.3131 136.61 22.7546 136.893 22.7546 135.767C22.7546 134.357 22.7336 132.945 22.7546 131.536C22.8037 128.245 24.8075 125.589 25.1813 122.598C25.5241 119.856 23.052 127.735 22.4883 130.441C21.8751 133.384 21.6893 136.268 21.6893 139.259C21.6893 140.575 18.9887 140.962 17.9309 141.094C13.832 141.607 9.60169 140.48 5.73846 139.23C5.60991 139.188 2.21686 137.817 2.21686 137.928C2.21686 138.068 3.04547 138.886 3.04547 139.526" stroke="#F6F6F6" stroke-width="3" stroke-linecap="round"/>
</svg>
