<svg width="39" height="102" viewBox="0 0 39 102" fill="none" xmlns="http://www.w3.org/2000/svg">
<path d="M29.5945 99.8818C29.78 98.3975 31.9413 96.8234 32.7906 95.6204C34.3495 93.4119 36.7639 90.9474 37.0224 88.1037C37.8456 79.0487 28.3668 75.7455 23.0839 70.7028C16.6674 64.5779 10.2339 59.6219 6.15656 51.4671C2.24863 43.6513 0.417274 36.3024 5.15038 28.4139C9.99002 20.3479 18.4918 15.8825 23.735 8.14249C24.1997 7.45653 27.4039 1.34977 24.5044 2.66773C21.4544 4.05409 19.5723 7.59569 16.8397 9.59257C15.7553 10.3851 11.0674 11.5772 11.069 11.5753C13.1004 9.29005 16.9795 7.93579 19.4736 6.01177C19.748 5.80007 21.5808 3.68002 22.0186 4.1178C23.1181 5.21732 23.7458 7.37961 24.8004 8.67517C25.7802 9.87897 32.5787 14.653 29.5945 14.653" stroke="#F6F6F6" stroke-width="3" stroke-linecap="round"/>
</svg>
