<svg width="73" height="124" viewBox="0 0 73 124" fill="none" xmlns="http://www.w3.org/2000/svg">
<path d="M44.6533 121.66C43.9425 121.66 40.9012 118.951 40.1255 118.434C38.008 117.022 35.278 114.837 35.6274 112.042C36.4299 105.621 41.2713 101.529 47.3167 99.7013C52.7724 98.0519 58.8885 96.1325 63.4747 92.6581C69.1429 88.364 70.5632 84.268 70.9914 77.4175C71.9915 61.415 56.3205 49.7623 45.4228 40.8106C35.8573 32.9532 26.2411 25.4761 17.4866 16.7216C14.9677 14.2027 10.7017 10.3982 10.5618 6.4823C10.5002 4.75746 10.5708 2.78254 8.96377 4.46995C6.43223 7.12807 4.57689 10.1393 2.33486 12.9928C1.01135 14.6773 2.48372 12.1549 2.86754 11.6315C4.06801 9.99454 5.4004 8.56601 6.83305 7.13335C7.70475 6.26165 10.0614 2.37451 11.3312 2.33923C13.714 2.27305 25.6096 1.00669 26.5422 2.87191" stroke="#F6F6F6" stroke-width="3" stroke-linecap="round"/>
</svg>
