<svg width="54" height="118" viewBox="0 0 54 118" fill="none" xmlns="http://www.w3.org/2000/svg">
<path d="M52.0977 1.87207C45.0079 1.87207 38.9626 12.4964 35.4959 16.8167C28.7624 25.2082 21.7072 34.3953 18.5389 44.9008C16.3972 52.0022 16.1167 59.3703 15.0765 66.6519C13.7882 75.6702 15.6364 84.9045 15.2245 93.9073C14.9344 100.246 13.7448 106.542 13.7448 112.877C13.7448 114.329 13.2346 109.7 12.9162 108.882C11.6773 105.696 9.55004 103.084 7.11589 100.714C5.61012 99.2477 3.4456 97.886 2.55851 95.8901C0.547891 91.3662 6.90664 104.787 8.95067 109.296C9.93656 111.471 10.9654 113.502 12.1468 115.57C13.3337 117.647 16.3703 113.608 16.9409 112.936C19.7277 109.651 22.6848 106.452 25.7005 103.377C26.8557 102.199 28.9688 100.801 27.5945 99.8852" stroke="#F6F6F6" stroke-width="3" stroke-linecap="round"/>
</svg>
