<svg width="261" height="100" viewBox="0 0 261 100" fill="none" xmlns="http://www.w3.org/2000/svg">
<path d="M55.1068 54.9154C55.3221 54.9154 52.2355 59.4773 52.0921 59.6886C49.3787 63.6865 46.7232 67.677 44.455 71.9483C44.193 72.4416 43.0829 75.16 43.8018 73.0034" stroke="url(#paint0_linear_2_127)" stroke-width="3" stroke-linecap="round"/>
<path d="M11.9669 62.2388C13.2576 59.6918 14.4272 52.9305 10.3931 52.0598C6.84336 51.2937 3.81842 58.0966 3.31098 60.5998C2.47119 64.7425 3.24807 68.7361 6.67715 71.5121C8.14551 72.7007 9.96806 73.6577 11.7046 74.4019C13.1978 75.0418 14.1532 75.2089 15.8139 74.7038C22.2288 72.7527 28.0107 68.9838 34 66.1206" stroke="url(#paint1_linear_2_127)" stroke-width="3" stroke-linecap="round"/>
<path d="M93.5437 50.3934C94.9686 48.9686 93.6215 51.0961 93.2423 51.6997C91.0746 55.1504 87.2335 59.3092 86.409 63.4318C85.9281 65.8364 91.7888 62.7745 92.2122 62.5023C96.2879 59.8822 99.6951 55.6068 102.588 51.75C102.941 51.2795 104.991 47.5641 104.296 48.2329C101.253 51.1628 99.0033 54.8897 97.4126 58.7842C95.5887 63.2495 93.7347 67.7368 91.5088 72.0236C90.8565 73.28 89.4739 76.9373 89.4739 73.9078" stroke="url(#paint2_linear_2_127)" stroke-width="3" stroke-linecap="round"/>
<path d="M182 40.4264C186.889 39.728 191.603 37.4807 196.47 36.5073C198.042 36.1931 200.497 36.4209 201.445 35" stroke="url(#paint3_linear_2_127)" stroke-width="3" stroke-linecap="round"/>
<path d="M137.859 61.2462C143.238 60.8216 149.369 56.4744 153.435 53.2573C154.957 52.0535 159.21 46.9146 154.767 46.198C152.048 45.7595 148.932 48.2826 147.004 49.8407C143.225 52.894 140.08 56.4656 137.307 60.4423C135.232 63.417 125.515 76.3314 134.166 77.651C139.547 78.4717 145.403 75.7645 150.37 74.1088C152.035 73.5538 157.871 72.8383 156.852 70.2902" stroke="url(#paint4_linear_2_127)" stroke-width="3" stroke-linecap="round"/>
<path d="M118.415 50.3933C122.655 49.1975 146.075 31.9902 140.673 28.9892C139.065 28.0959 134.992 30.8824 133.689 31.6019C129.216 34.0723 125.39 37.7167 122.083 41.5754C119.497 44.5918 99.5256 72.0029 106.859 74.3599C110.398 75.4975 116.369 72.4472 119.42 70.6419C122.531 68.8007 126.984 65.3167 128.765 62.1505C131.552 57.1958 125.014 56.3431 121.53 57.0507C118.385 57.6894 115.889 59.4098 113.692 61.6732C113.173 62.2073 109.656 64.9638 112.084 63.5071" stroke="url(#paint5_linear_2_127)" stroke-width="3" stroke-linecap="round"/>
<path d="M75.0035 53.1066C74.1309 56.3061 70.5411 60.2073 68.8485 62.9042C64.7342 69.46 60.9154 76.195 57.4179 83.1025C55.6075 86.6781 53.7201 90.2128 51.9413 93.8046C51.3458 95.0071 50.8633 96.2906 50.233 97.4724C49.6914 98.4878 51.0617 95.3252 51.4891 94.2568" stroke="url(#paint6_linear_2_127)" stroke-width="3" stroke-linecap="round"/>
<path d="M23.4526 56.272C25.3493 55.3931 27.2478 54.7212 29.2308 54.011C41.0224 49.7879 52.8133 45.5579 64.628 41.3996C67.9034 40.2468 68.1849 40.3956 65.9595 41.3494" stroke="url(#paint7_linear_2_127)" stroke-width="3" stroke-linecap="round"/>
<path d="M96.4216 2.88543C95.9628 -1.24427 81.3164 10.3508 79.9917 11.4521C76.3737 14.4598 73.5811 18.733 70.4704 22.2547C67.7532 25.3307 65.0834 28.403 62.5066 31.6001C57.4417 37.8844 52.5214 44.3318 47.584 50.7182C43.8542 55.5426 40.8648 61.2722 36.1785 65.2891C32.6399 68.3221 28.2406 69.0752 23.8435 70.0623C19.0315 71.1425 13.7009 72.651 8.71992 71.8208C4.42891 71.1057 1.36426 69.2596 2.11278 64.2842C2.5404 61.4417 4.20695 58.977 6.33331 57.0992C7.20568 56.3288 8.42107 56.0666 9.147 55.3407" stroke="url(#paint8_linear_2_127)" stroke-width="3" stroke-linecap="round"/>
<path d="M72.2904 57.1763C72.7934 57.1135 72.8707 56.6141 73.1948 56.2719C74.3232 55.0809 75.8535 54.8439 77.4656 55.0158C80.3281 55.3212 80.1264 60.2665 79.2744 62.1254C78.0168 64.8692 75.75 66.7325 72.9938 67.7779C71.3329 68.4079 66.383 68.5054 69.125 66.2203" stroke="url(#paint9_linear_2_127)" stroke-width="3" stroke-linecap="round"/>
<path d="M91 3C81.806 9.39944 72.919 15.333 65.937 24.6704C60.9659 31.3187 57.6629 39.1914 52.8643 45.9774C45.0591 57.0155 28.2122 75.6233 13.7295 72.6907C6.0383 71.1332 1.73638 60.2009 8.02577 53.9732C15.0738 46.9944 14.4203 61.3922 13.8127 65.1492" stroke="black" stroke-width="3" stroke-linecap="round"/>
<path d="M28 56C36.7896 50.924 48.0363 49.1794 57.4613 46.6181C63.5652 44.9592 71.6421 42 78 42" stroke="black" stroke-width="3" stroke-linecap="round"/>
<path d="M76 49C67.7435 62.8049 60.9336 77.3404 54 92" stroke="black" stroke-width="3" stroke-linecap="round"/>
<path d="M92.3893 52.0215C92.1379 51.4767 91.6068 52.9147 91.3359 53.4484C90.0158 56.0491 88 59.4006 88 62.4852C88 70.3686 101.326 55.5779 102.397 53.8289C106.754 46.7141 100.98 54.9897 99.7634 57.2533C97.7727 60.958 94.1758 66.7608 93.1794 70" stroke="black" stroke-width="3" stroke-linecap="round"/>
<path d="M109 57.1192C118.979 53.8517 130.964 44.3584 137.4 35.6527C138.464 34.2126 140.835 29.0252 136.443 30.1613C129.143 32.05 123.233 41.8786 119.229 47.9517C116.114 52.6769 111.206 59.3212 110.705 65.4698C110.126 72.5812 118.706 71.3968 122.431 69.7359C124.208 68.9432 129.197 66.0156 127.379 62.7468C125.191 58.8136 119.538 61.0705 116.485 61.2038" stroke="black" stroke-width="3" stroke-linecap="round"/>
<path d="M254 13C242.718 25.2096 230.285 40.5902 225 57" stroke="black" stroke-width="3" stroke-linecap="round"/>
<path d="M184.436 39.0884C188.566 37.3677 193.241 36.5947 197.55 35.4708" stroke="black" stroke-width="3" stroke-linecap="round"/>
<path d="M137.407 62.1506C143.623 61.5855 150.963 55.7615 154.566 51.0717C156.173 48.9788 154.004 48.4088 152.38 49.087C149.414 50.3252 147.133 52.8534 145.069 55.2168C143.412 57.1153 134.421 66.7958 136.905 69.7375C138.38 71.4848 143.584 69.129 145.145 68.7075C148.613 67.771 152.059 66.814 155.495 65.7682" stroke="black" stroke-width="3" stroke-linecap="round"/>
<path d="M176.749 45.4192C173.187 48.9808 170.261 53.2976 167.202 57.2769C163.84 61.651 160.395 66.144 157.681 70.9685C155.993 73.9683 162.115 65.698 164.489 63.2057C168.892 58.5831 173.572 54.1883 178.934 50.6949C181.697 48.8947 188.817 44.6149 185.692 51.5741C182.473 58.7442 176.546 63.258 171.197 68.607C169.877 69.9265 173.776 65.91 175.04 64.5372C178.87 60.3776 182.431 55.6662 186.697 51.951C188.729 50.1809 191.35 48.1543 194.058 47.5295C194.93 47.3283 192.936 51.3979 192.827 51.5993C191.896 53.3186 183.092 65.3154 186.396 65.6677C191.362 66.1975 197.141 64.0857 201.871 62.854C205.712 61.8537 207.542 61.4214 204.333 58.533" stroke="url(#paint10_linear_2_127)" stroke-width="3" stroke-linecap="round"/>
<path d="M259.049 9.69531C255.036 9.69531 250.844 15.231 248.422 17.8852C243.573 23.2005 239.48 29.3293 235.082 35.0185C228.805 43.1394 214.014 70.2387 219.708 61.6983" stroke="url(#paint11_linear_2_127)" stroke-width="3" stroke-linecap="round"/>
<path d="M54 57C50.0305 60.1945 47.0338 65.8531 44 70" stroke="black" stroke-width="3" stroke-linecap="round"/>
<path d="M219.708 65.316C218.478 65.4526 217.5 67.3775 216.844 68.18C215.04 70.3841 211.75 74.7219 217.396 74.3098C219.596 74.1493 229.332 69.352 224.029 66.6224C222.423 65.7962 218.561 68.4007 220.16 68.9336" stroke="url(#paint12_linear_2_127)" stroke-width="3" stroke-linecap="round"/>
<path d="M223.325 66.6726C223.077 64.6896 220.593 68.8774 221.768 68.1297C222.672 67.5539 223.042 66.3893 222.873 66.2204" stroke="black" stroke-width="3" stroke-linecap="round"/>
<path d="M174.94 45.4192C175.509 45.4192 175.754 45.3884 175.518 46.0724C172.981 53.4009 167.951 60.2407 163.986 66.8484C163.331 67.9411 162.791 68.8563 163.685 67.4263C166.082 63.5914 168.41 59.6722 171.222 56.1213C173.631 53.0779 176.421 50.2276 179.638 48.0319C180.701 47.3061 184.281 44.7077 185.742 45.5197C189.56 47.6405 180.499 59.5528 179.211 61.2964C178.871 61.7559 176.389 64.5607 176.447 64.4367C177.873 61.4068 180.015 58.3427 181.974 55.6439C184.033 52.808 186.373 50.3957 189.209 48.3334C189.764 47.9299 193.498 44.8272 194.384 45.6202C195.209 46.3579 194.099 48.697 193.857 49.3885C192.555 53.0975 190.965 56.6404 189.913 60.4423C189.772 60.9495 188.23 64.809 189.762 64.4618C193.73 63.5624 196.49 61.0831 199.359 58.533" stroke="black" stroke-width="3" stroke-linecap="round"/>
<path d="M71.2258 56.1745C71.8079 56.1099 72.6026 54.8704 73.0965 54.5411C74.2694 53.7592 75.464 52.8894 76.9383 52.8894C79.7537 52.8894 81.3517 55.7279 80.6706 58.3008C80.2754 59.7939 79.2169 61.0732 78.2524 62.2521C77.1875 63.5536 76.3532 64.2876 74.8395 65.0444C73.5328 65.6978 71.8343 66.0184 70.368 65.8292C69.8161 65.758 68.2054 65.3729 68.762 65.3729" stroke="black" stroke-width="3" stroke-linecap="round"/>
<defs>
<linearGradient id="paint0_linear_2_127" x1="49.3404" y1="54.9154" x2="49.3404" y2="73.8243" gradientUnits="userSpaceOnUse">
<stop stop-color="#FF7262"/>
<stop offset="1" stop-color="#FF7262" stop-opacity="0"/>
</linearGradient>
<linearGradient id="paint1_linear_2_127" x1="18.5" y1="52" x2="18.5" y2="75" gradientUnits="userSpaceOnUse">
<stop stop-color="#FF7262"/>
<stop offset="1" stop-color="#FF7262" stop-opacity="0"/>
</linearGradient>
<linearGradient id="paint2_linear_2_127" x1="95.4098" y1="48.1526" x2="95.4098" y2="75.0793" gradientUnits="userSpaceOnUse">
<stop stop-color="#FF7262"/>
<stop offset="1" stop-color="#FF7262" stop-opacity="0"/>
</linearGradient>
<linearGradient id="paint3_linear_2_127" x1="191.722" y1="35" x2="191.722" y2="40.4264" gradientUnits="userSpaceOnUse">
<stop stop-color="#FF7262"/>
<stop offset="1" stop-color="#FF7262" stop-opacity="0"/>
</linearGradient>
<linearGradient id="paint4_linear_2_127" x1="143.804" y1="46.1476" x2="143.804" y2="77.8024" gradientUnits="userSpaceOnUse">
<stop stop-color="#FF7262"/>
<stop offset="1" stop-color="#FF7262" stop-opacity="0"/>
</linearGradient>
<linearGradient id="paint5_linear_2_127" x1="123.364" y1="28.8145" x2="123.364" y2="74.6075" gradientUnits="userSpaceOnUse">
<stop stop-color="#FF7262"/>
<stop offset="1" stop-color="#FF7262" stop-opacity="0"/>
</linearGradient>
<linearGradient id="paint6_linear_2_127" x1="62.5558" y1="53.1066" x2="62.5558" y2="97.6707" gradientUnits="userSpaceOnUse">
<stop stop-color="#FF7262"/>
<stop offset="1" stop-color="#FF7262" stop-opacity="0"/>
</linearGradient>
<linearGradient id="paint7_linear_2_127" x1="45.4269" y1="40.5841" x2="45.4269" y2="56.272" gradientUnits="userSpaceOnUse">
<stop stop-color="#FF7262"/>
<stop offset="1" stop-color="#FF7262" stop-opacity="0"/>
</linearGradient>
<linearGradient id="paint8_linear_2_127" x1="49.2108" y1="2" x2="49.2108" y2="72.0604" gradientUnits="userSpaceOnUse">
<stop stop-color="#FF7262"/>
<stop offset="1" stop-color="#FF7262" stop-opacity="0"/>
</linearGradient>
<linearGradient id="paint9_linear_2_127" x1="74.0725" y1="54.9658" x2="74.0725" y2="68.165" gradientUnits="userSpaceOnUse">
<stop stop-color="#FF7262"/>
<stop offset="1" stop-color="#FF7262" stop-opacity="0"/>
</linearGradient>
<linearGradient id="paint10_linear_2_127" x1="181.686" y1="45.4192" x2="181.686" y2="71.6152" gradientUnits="userSpaceOnUse">
<stop stop-color="#FF7262"/>
<stop offset="1" stop-color="#FF7262" stop-opacity="0"/>
</linearGradient>
<linearGradient id="paint11_linear_2_127" x1="238.739" y1="9.69531" x2="238.739" y2="63.3432" gradientUnits="userSpaceOnUse">
<stop stop-color="#FF7262"/>
<stop offset="1" stop-color="#FF7262" stop-opacity="0"/>
</linearGradient>
<linearGradient id="paint12_linear_2_127" x1="219.914" y1="65.316" x2="219.914" y2="74.3372" gradientUnits="userSpaceOnUse">
<stop stop-color="#FF7262"/>
<stop offset="1" stop-color="#FF7262" stop-opacity="0"/>
</linearGradient>
</defs>
</svg>
