<svg width="735" height="351" viewBox="0 0 735 351" fill="none" xmlns="http://www.w3.org/2000/svg">
<path d="M4.6626 347.348C5.63768 338.572 18.2615 330.289 23.6017 324.478C33.7178 313.469 45.8696 304.589 58.4426 296.694C90.6577 276.466 122.238 259.821 158.409 247.56C241.978 219.231 328.676 211.727 415.785 201.731C461.86 196.443 508.435 192.406 553.005 178.503C594.201 165.653 637.342 152.186 670.391 122.758C692.643 102.945 705.884 73.1687 713.809 45.0361C716.893 34.0856 722.337 23.7312 726.673 13.2326C728.134 9.69599 735.509 -0.586022 728.281 4.83508" stroke="#D8A1FF" stroke-width="6" stroke-linecap="round"/>
<path d="M6.27063 315.187C6.98098 308.794 8.09794 313.39 7.07465 317.688C5.71315 323.407 -0.706837 342.278 7.87867 342.524C14.984 342.727 21.7191 342.31 28.6939 340.916C33.2674 340.001 40.683 337.217 33.6073 342.524" stroke="#D8A1FF" stroke-width="6" stroke-linecap="round"/>
</svg>
