<svg width="177" height="17" viewBox="0 0 177 17" fill="none" xmlns="http://www.w3.org/2000/svg">
<path d="M3.83081 13.6431C7.08199 13.2819 11.0219 6.17247 14.1374 7.82185C17.3924 9.54508 17.0834 10.3963 21.0084 8.48986C23.9492 7.06145 25.4397 6.18566 27.8794 8.48986C30.494 10.9591 35.3126 6.99825 37.9951 6.10409C40.6661 5.21378 42.7841 8.90797 45.9159 8.299C48.2775 7.8398 56.3323 3.50418 57.7494 5.91322C59.7983 9.39638 64.7654 8.01518 68.0559 6.7721C73.9769 4.5353 72.6708 6.05908 77.6945 8.01271C82.2301 9.77658 88.5512 3.74717 92.5817 5.57922C93.5638 6.02561 93.6951 7.74148 94.872 8.299C96.4121 9.02852 98.5545 7.93469 100.073 7.63098C105.223 6.60107 107.366 3.80637 111.191 7.63098C115.072 11.5127 119.044 8.52411 123.597 7.24926C128.284 5.93682 127.572 7.67407 130.611 9.77818C134.687 12.5999 143.838 6.98091 147.979 5.5315C151.357 4.34952 152.31 6.94422 156.377 6.72439C161.482 6.44845 169.324 1.91307 173.889 4.19546" stroke="#FF7262" stroke-width="6" stroke-linecap="round"/>
</svg>
