<svg width="139" height="62" viewBox="0 0 139 62" fill="none" xmlns="http://www.w3.org/2000/svg">
<g filter="url(#filter0_d_2_777)">
<path d="M118.222 17.9423C117.456 11.8189 99.5194 9.80204 96.6545 9.01948C83.1882 5.34119 70.901 2.27611 57.0983 4.24793C43.6191 6.17353 29.4781 11.0683 19.069 20.0895C13.7518 24.6977 3.45114 31.9897 10.0508 39.4143C19.6941 50.263 33.8102 50.5797 47.2689 50.5797C60.3271 50.5797 73.3852 50.5797 86.4434 50.5797C96.8161 50.5797 111.427 49.9855 120.799 45.4264C126.999 42.4098 133.687 37.0628 130.914 29.2986C129.687 25.8624 124.724 17.4926 120.799 18.8012" stroke="#D8A1FF" stroke-width="6" stroke-linecap="round"/>
</g>
<defs>
<filter id="filter0_d_2_777" x="0.912842" y="0.631592" width="137.648" height="60.9481" filterUnits="userSpaceOnUse" color-interpolation-filters="sRGB">
<feFlood flood-opacity="0" result="BackgroundImageFix"/>
<feColorMatrix in="SourceAlpha" type="matrix" values="0 0 0 0 0 0 0 0 0 0 0 0 0 0 0 0 0 0 127 0" result="hardAlpha"/>
<feOffset dy="4"/>
<feGaussianBlur stdDeviation="2"/>
<feComposite in2="hardAlpha" operator="out"/>
<feColorMatrix type="matrix" values="0 0 0 0 0 0 0 0 0 0 0 0 0 0 0 0 0 0 0.25 0"/>
<feBlend mode="normal" in2="BackgroundImageFix" result="effect1_dropShadow_2_777"/>
<feBlend mode="normal" in="SourceGraphic" in2="effect1_dropShadow_2_777" result="shape"/>
</filter>
</defs>
</svg>
