<svg width="609" height="169" viewBox="0 0 609 169" fill="none" xmlns="http://www.w3.org/2000/svg">
<path d="M4.40139 123.714C1.73805 124.047 3.99405 126.187 5.29474 126.931C14.7308 132.323 23.348 138.462 33.8821 142.475C45.9428 147.07 58.6907 149.833 70.6884 154.267C96.5223 163.815 129.142 168.573 156.451 163.111C174.221 159.557 192.941 158.883 210.588 154.267C230.155 149.15 248.234 143.333 266.869 134.971C303.861 118.372 343.65 100.965 376.573 77.26C396.044 63.2414 412.76 45.5466 435.714 36.8803C461.168 27.2699 486.195 16.306 513.168 11.9557C530.84 9.10522 550.995 10.6647 568.466 14.0104C580.646 16.3426 591.115 22.4113 602.593 26.8747C607.175 28.6566 599.405 10.2659 598.572 7.93555C594.34 -3.91442 600.307 11.8284 601.789 15.9758C604.879 24.6278 610.278 24.5303 599.376 30.4481C593.562 33.6046 588.698 39.9971 585.619 45.8138C583.575 49.6749 583.739 51.7953 580.08 48.1366" stroke="#FF7262" stroke-width="6" stroke-linecap="round"/>
</svg>
