<svg width="23" height="21" viewBox="0 0 23 21" fill="none" xmlns="http://www.w3.org/2000/svg">
<path d="M13.1399 11.6254C13.3644 9.60431 14.5348 8.85254 13.3695 6.68834C11.2092 2.67636 6.15694 5.63678 4.87312 8.52539C1.42871 16.2753 14.5919 17.9862 16.0103 10.3625C17.2165 3.87888 6.55942 -0.320482 6.36573 6.4587C6.17887 12.9988 16.2399 15.0583 16.2399 7.72168C16.2399 0.232874 5.74959 7.11075 4.29904 10.5921C1.70517 16.8174 16.774 20.9308 19.1103 13.9218C21.1082 7.92807 10.9906 4.80312 7.16944 7.49205C4.9322 9.06641 4.188 12.3919 6.13609 14.4958C9.36874 17.9871 7.97315 12.0596 7.97315 14.7255" stroke="#FF7262" stroke-width="6" stroke-linecap="round"/>
</svg>
