<svg width="24" height="23" viewBox="0 0 24 23" fill="none" xmlns="http://www.w3.org/2000/svg">
<path d="M10.7413 6.4392C13.5441 3.28611 9.74913 1.3965 8.10056 6.4392C4.9389 16.1102 21.3637 19.6515 18.7785 8.27626C17.2455 1.53109 10.207 2.48346 8.10056 8.27626C5.64834 15.0198 17.648 20.4989 19.4099 13.0985C21.1037 5.98469 9.21575 2.77131 9.88021 10.7448C10.8121 21.9279 23.1164 14.3752 16.1377 7.1281C11.7285 2.54929 7.55458 10.7477 7.64129 14.4763C7.78805 20.7871 15.6461 15.6561 13.2673 9.53923C11.6511 5.38345 4.01057 2.73439 3.04865 8.50589C2.23836 13.3676 11.7689 19.3211 15.334 15.1078C18.486 11.3827 13.4468 2.56053 8.67464 4.94659C1.66235 8.45273 6.56403 18.8393 13.3821 18.8393C20.2253 18.8393 18.1788 6.0291 13.8414 3.79843C6.78656 0.170245 1.42466 9.77322 5.68942 15.2226C11.0976 22.1331 21.936 19.2075 20.4433 9.65405C18.8903 -0.285291 12.8506 7.2595 11.7747 12.6393" stroke="#D8A1FF" stroke-width="6" stroke-linecap="round"/>
</svg>
