<svg width="125" height="54" viewBox="0 0 125 54" fill="none" xmlns="http://www.w3.org/2000/svg">
<path d="M2 21.6338C2.42361 21.6362 4.7331 25.2092 5.36183 25.8974C7.28142 27.9984 9.14373 29.9481 11.0766 32.0184C13.818 34.9547 17.6008 37.8952 20.6811 39.5071C32.7346 45.8148 43.6271 42.4567 55.5715 42.9274C63.4458 43.2377 71.3696 40.3074 78.9801 38.8365C85.5478 37.567 92.5757 36.9452 98.759 34.0983C104.937 31.254 124.665 27.4053 118.103 28.6735" stroke="#FF7262" stroke-width="3" stroke-linecap="round"/>
<path d="M107 16C107.676 22.0839 123.737 26.3474 123.017 26.9075C119.015 30.0203 115.416 34.3022 113.2 38.7336" stroke="#FF7262" stroke-width="3" stroke-linecap="round"/>
</svg>
