<svg width="161" height="146" viewBox="0 0 161 146" fill="none" xmlns="http://www.w3.org/2000/svg">
<path d="M159 2C154.653 6.31423 150.57 11.4122 146.366 16.1061C138.972 24.3609 131.387 30.809 122.501 36.7614C106.07 47.769 89.0288 56.8955 72.8672 68.444C65.3212 73.8361 57.2982 78.3137 49.6043 83.3897C42.463 88.1012 36.8695 94.2992 30.3523 99.9588C25.5601 104.12 23.0369 110.307 18.9214 115.072C13.8044 120.997 12.017 127.052 11 135" stroke="#FF7262" stroke-width="3" stroke-linecap="round"/>
<path d="M1.88257 122.995C2.34111 127.121 5.21509 132.977 6.59003 136.887C7.14694 138.471 8.26613 143.524 10.1493 144.465C10.7852 144.783 23.2268 129.978 25.6495 128.161" stroke="#FF7262" stroke-width="3" stroke-linecap="round"/>
</svg>
