<svg width="82" height="74" viewBox="0 0 82 74" fill="none" xmlns="http://www.w3.org/2000/svg">
<path d="M36.0234 28.4409C36.1164 29.3253 36.7763 28.5891 35.7155 27.9086C34.5069 27.1331 32.0044 27.788 30.7758 28.1747C29.7244 28.5057 28.8438 29.3735 28.0891 30.171C25.5995 32.8017 23.9398 38.5328 26.8576 41.6161C30.5578 45.5261 35.5106 47.6953 40.2914 44.2778C42.769 42.5067 45.207 40.6662 46.6025 37.7567C47.5715 35.7365 48.4637 32.4015 47.5961 30.1858C45.6725 25.2735 38.9104 22.9333 34.2602 24.3153C31.828 25.0382 30.5549 26.5363 29.6703 28.9732C28.4856 32.2371 27.0762 35.4993 27.8512 39.0728C30.4479 51.0466 45.7375 46.3567 50.4368 38.6439C53.7068 33.277 51.411 27.2183 45.9588 25.1582C40.2298 22.9935 28.0656 27.133 29.8942 35.3169C31.0724 40.5896 36.7265 42.2422 40.8932 39.5607C44.6937 37.1149 49.6287 30.514 47.0503 25.6609C45.6146 22.9586 42.7057 22.2378 39.9696 22.1121C35.3327 21.899 30.7263 22.8943 26.7317 25.4539C21.4803 28.8189 20.5561 34.8268 23.7091 40.2409C27.1173 46.0933 34.2373 47.3139 39.6897 44.056C46.0524 40.2542 54.0755 32.1157 51.0665 23.6056C48.3941 16.0475 37.6242 16.6449 31.7414 18.3266C24.8575 20.2945 18.1016 25.001 18.5455 33.3502C18.8858 39.752 24.6785 46.1221 30.9577 46.1557C35.051 46.1777 38.9783 44.5421 42.4465 42.3555C46.9206 39.5347 51.3434 35.9037 54.0611 31.1174C55.5931 28.4192 56.4315 25.3442 55.1106 22.3782C53.5302 18.8294 49.9813 16.8179 46.4906 15.9902C37.9332 13.9612 27.0584 16.9508 21.1902 23.9604C15.7292 30.4838 15.0325 38.9707 20.3226 45.9487C24.5708 51.5522 31.9768 57.0863 39.018 56.832C44.3976 56.6376 49.533 54.1541 54.1311 51.3903C59.9664 47.8829 65.4912 43.0402 69.0202 36.9286C71.4906 32.6504 73.1372 27.5381 71.0633 22.6888C68.8141 17.4296 62.3494 14.5846 57.4755 13.0772C45.7766 9.459 31.4363 12.4953 22.0019 20.6629C14.9323 26.7833 9.95345 37.3728 13.5498 46.9247C17.0775 56.2945 25.3297 63.0101 34.764 64.3142C50.5428 66.4953 65.8612 57.6897 74.7716 44.056C78.1347 38.91 81.0593 31.7373 79.6273 25.3652C77.9117 17.7304 71.7506 13.1585 65.158 10.6374C58.2103 7.98037 50.5742 7.00503 43.2161 7.33985C35.3593 7.69736 26.8417 9.07688 20.0847 13.58C14.917 17.024 9.74199 21.6362 7.28064 27.7311C4.46513 34.703 5.08796 43.6232 5.79732 50.9467C5.98557 52.8902 6.57729 57.1794 7.64447 59.257C8.3639 60.6577 10.8026 62.7479 11.8146 63.5452C17.3082 67.8739 23.9176 72.3851 31.0697 71.9738C41.6681 71.3644 51.8666 64.0941 58.9309 56.1813C62.109 52.6215 63.994 48.9111 65.3539 44.2039C66.2899 40.9639 67.5666 34.7175 68.0127 31.3096C68.2761 29.2971 68.57 26.4343 67.9287 24.3301C65.884 17.6208 56.8985 14.0032 51.1365 12.6484C38.2115 9.60934 21.0166 13.4907 13.4098 25.8828C10.8624 30.0327 8.88117 34.7666 9.7435 39.7973C10.7161 45.4712 15.3306 50.2416 20.1547 52.5437C32.3275 58.3528 50.8326 52.8964 56.6779 39.5755C59.4627 33.2293 59.8303 25.4543 55.6984 19.6574C50.5334 12.4114 40.4359 10.2401 32.3851 10.105C24.6825 9.97582 17.0091 12.2665 10.3732 16.3599C4.99099 19.68 0.856658 24.8946 2.28494 31.8567C5.49261 47.4924 24.0919 51.4016 36.5272 46.8359C43.1617 44.4 50.4011 38.8546 52.4658 31.4279C53.3826 28.1304 53.527 24.1359 51.7242 21.1213C49.7869 17.882 45.9929 15.8288 42.5724 14.9552C35.767 13.217 27.4313 14.6969 21.5261 18.6815C17.7646 21.2196 13.2445 26.5711 18.7554 29.89C22.4808 32.1337 27.7091 30.734 31.2936 28.8402C33.3816 27.7369 35.5174 24.4237 32.1892 23.2063C30.0293 22.4163 26.562 23.6376 25.1084 25.4244C23.1243 27.8633 24.1093 30.7677 26.9556 31.6053C29.9375 32.4828 33.4537 31.2253 35.7855 29.2394C37.012 28.1949 38.8051 25.1407 36.2193 24.3893C34.2007 23.8027 31.8899 25.4214 31.0137 27.2579C29.577 30.2693 32.6127 32.064 35.0998 31.7236C37.51 31.3937 41.3168 30.1576 42.2226 27.4058C43.2456 24.2979 37.8181 25.9219 36.7791 26.3855C34.6812 27.3215 30.6432 29.8187 30.9577 32.7587C31.2832 35.8011 35.0308 35.3799 36.947 34.6514C37.9998 34.2512 41.528 32.8429 40.2355 30.9991C38.7258 28.8454 35.3801 31.5539 34.1763 32.7143C27.2322 39.4084 47.4893 37.3951 42.7683 31.28C40.136 27.8704 31.5929 34.0129 34.75 38.1116C37.8968 42.1969 48.4031 35.6373 44.6155 31.6349C42.7188 29.6307 40.2945 29.7315 37.9265 30.6146C36.4639 31.1601 32.4873 33.1329 34.5401 35.3021C35.9705 36.8136 39.9049 34.5802 41.201 33.6459C43.1101 32.2698 44.6089 29.6163 43.5799 27.1396C42.742 25.1227 39.6117 26.8998 38.5702 27.7163C37.1833 28.8037 33.367 34.7271 37.0589 35.4056C40.1491 35.9735 43.7275 31.1068 42.4045 28.086C40.9328 24.7258 35.5947 26.4589 33.3926 27.672C30.1882 29.4373 27.6463 32.019 26.8156 35.8492C25.9808 39.6986 28.4948 44.0388 32.1612 44.8545C36.1285 45.7371 40.6502 44.5107 43.7199 41.6901C46.0268 39.5703 47.6529 35.6328 45.7349 32.7143C43.6185 29.4938 39.5413 29.0011 36.1354 29.5351C30.4111 30.4327 24.091 33.3674 20.5465 38.3778C15.8982 44.9486 20.5478 52.7496 26.9136 55.4272C36.837 59.6013 48.6678 52.5558 52.5078 42.5181C54.1792 38.1492 53.4225 33.4692 50.017 30.2745C45.631 26.1601 39.1996 26.3006 33.8404 27.7163C29.4724 28.8703 24.7874 31.2706 22.3097 35.4204C20.3405 38.7186 20.2821 43.3906 23.961 45.3572C27.0249 46.9951 31.1444 46.1578 33.7425 43.9081C36.0468 41.9128 39.0148 37.8236 36.4572 34.7993C32.6283 30.2716 17.9711 39.0072 22.2537 44.677C25.5206 49.0021 37.4104 44.0415 33.7984 39.8121C31.974 37.6758 28.8168 39.2008 26.8716 40.2705C24.6612 41.4861 21.6608 43.6 23.4292 46.5698C26.1723 51.1765 35.2208 45.7236 32.0912 40.4036C28.1914 33.7743 17.4249 36.5728 15.285 43.5532C14.3495 46.6045 16.4251 49.8846 18.9093 51.2277C22.5934 53.2194 28.1795 50.1034 30.356 46.7916C34.4685 40.5338 26.5798 34.3115 21.3302 38.6735C18.9409 40.6588 19.7765 44.1553 21.2462 46.4071C23.9936 50.6167 28.5857 52.5437 33.3506 52.5437C38.5049 52.5437 43.5854 49.1695 46.8544 45.1206C51.1215 39.8356 51.8652 33.1139 49.989 26.5777C48.7297 22.191 44.7843 19.0637 40.5573 18.4301C34.2125 17.4791 28.094 19.9014 22.9674 23.7386C18.6024 27.0058 14.8868 31.2547 13.3818 36.7808C12.0391 41.7115 12.4566 47.3214 14.4733 51.9818C16.3112 56.2289 20.5179 59.4223 24.6327 60.8836C31.0903 63.1768 38.4883 59.5297 43.426 55.3385C46.2133 52.9725 48.6568 50.3051 50.6607 47.1613C53.5158 42.6819 56.5452 37.0589 56.8178 31.5166C57.2906 21.9053 49.8855 14.8356 41.5369 13.3582C34.9506 12.1926 27.293 13.5386 21.2042 16.3599C15.2149 19.1352 9.06621 23.1024 6.63693 29.8161C3.05218 39.7232 11.316 52.4596 19.6789 56.5658C25.8038 59.573 33.1129 60.3473 39.7037 58.8134C48.1697 56.8432 55.9672 49.6858 60.6241 42.2076C64.3437 36.2344 66.2377 28.2821 64.5983 21.2248C62.8934 13.886 57.9801 7.56302 51.5003 4.36766C45.4773 1.39759 37.9941 1.44009 31.6854 3.28821C24.6524 5.3485 17.1868 9.19821 13.5358 16.2268C10.5129 22.0462 8.26563 29.7608 9.60357 36.4259C10.8696 42.733 14.0143 47.3917 19.2871 50.651C25.0005 54.1826 31.5355 53.9456 37.6467 51.9079C45.7584 49.203 51.9731 43.2012 55.0966 34.8289C57.164 29.2876 58.3865 23.2715 56.8178 17.3802C55.2283 11.4105 50.8768 7.07777 45.2871 5.37318C39.9388 3.74219 33.1999 5.11858 28.187 7.38421C22.8757 9.78471 17.6845 13.9308 15.4389 19.7314C11.6298 29.5703 17.4281 41.3528 26.2839 45.4755C39.046 51.4168 51.4616 41.2987 57.5175 29.9048C59.601 25.9849 61.8094 20.101 60.1763 15.6058C58.3795 10.6599 53.3559 9.30357 48.8415 9.72056C39.3718 10.5953 28.5726 17.938 27.7952 28.781C27.4573 33.4944 29.1001 38.2111 32.2451 41.6013C36.4038 46.0842 42.9969 46.5092 48.5057 45.4755C53.4378 44.5501 59.0549 42.207 62.6811 38.4517C66.0987 34.9126 66.8388 30.7609 64.9061 26.1193C61.2003 17.2195 50.4919 18.135 44.1677 23.1472C40.9092 25.7295 38.2403 29.514 37.6746 33.8973C37.1524 37.9445 40.5878 42.6236 43.7199 44.47C50.6308 48.5442 62.6493 44.1713 62.3033 34.7106C62.2121 32.2175 61.5635 28.4651 59.0568 27.3467C56.6428 26.2696 53.8279 28.85 52.2979 30.4667C50.1254 32.7624 48.5996 35.6582 47.4422 38.6439C46.0663 42.193 44.9428 46.032 42.1246 48.64C39.4168 51.1457 35.3068 52.0532 31.7834 51.6861C31.046 51.6093 27.4326 50.4368 30.286 50.8284C33.9667 51.3335 37.6084 51.4096 41.313 51.065C46.2883 50.6022 52.5425 48.9257 55.9782 44.7953C57.7526 42.6622 58.319 39.3787 57.0137 36.8103C55.7909 34.4043 52.5185 35.4312 51.0245 36.8991C45.6284 42.201 46.6351 51.6813 41.3969 56.9207C36.4771 61.8416 28.7185 59.572 22.6736 59.331C21.2962 59.276 20.7022 59.5305 22.0858 60.4991C24.6763 62.3126 27.9215 63.4719 31.0417 63.4565C35.7059 63.4336 40.2836 61.4002 44.3356 59.1387C49.2976 56.3693 53.9793 52.5388 57.3356 47.7379C59.6161 44.4759 60.6537 41.1196 60.4002 37.0765C60.267 34.9524 58.9912 32.8944 56.7619 33.7938C54.5818 34.6734 53.7675 36.7001 53.3055 38.9693C52.5427 42.715 52.4089 46.5567 51.8921 50.3405C51.4996 53.214 50.6382 55.9885 48.1418 57.5713C45.2739 59.3896 41.9325 59.8612 38.6822 60.3217C37.2721 60.5215 35.5709 60.739 34.1763 60.2477C33.245 59.9197 36.0475 59.9723 36.1074 59.9668C43.1961 59.3114 51.2602 57.8023 57.2376 53.4901C62.4539 49.7271 67.9796 42.0721 67.2011 34.9768C66.8744 31.9993 63.3628 27.3079 60.764 30.8955C57.0505 36.0221 57.6233 43.6186 55.3905 49.4385C53.2374 55.0505 48.1474 59.1137 42.5164 60.1147C41.1825 60.3518 39.7448 60.1557 38.5562 59.4493C38.3604 59.3328 37.5156 58.591 38.2064 58.9317C42.9868 61.289 48.8855 59.2105 53.4034 57.0981C61.3457 53.3846 69.9908 47.0324 70.7134 37.1061C71.0896 31.9391 66.3179 27.3982 61.5756 27.4945C55.1778 27.6245 57.8985 39.9675 57.6015 43.4793C57.1096 49.2953 55.0828 56.6228 49.2333 58.5768C45.6419 59.7766 42.3969 59.7004 39.2699 57.1868C37.8382 56.036 39.4321 56.4126 40.2355 56.5214C43.1541 56.9168 46.3086 56.3903 49.1074 55.5159C52.442 54.4741 55.9565 53.0853 58.581 50.5918C59.513 49.7064 61.4057 48.1109 59.7005 47.3387" stroke="url(#paint0_radial_2_174)" stroke-width="3" stroke-linecap="round"/>
<defs>
<radialGradient id="paint0_radial_2_174" cx="0" cy="0" r="1" gradientUnits="userSpaceOnUse" gradientTransform="translate(41 37) rotate(90) scale(35 39)">
<stop stop-color="#D8A1FF"/>
<stop offset="0.9999" stop-color="#FD756C" stop-opacity="0.0625"/>
<stop offset="1" stop-color="#FF7262" stop-opacity="0"/>
</radialGradient>
</defs>
</svg>
