<svg width="74" height="72" viewBox="0 0 74 72" fill="none" xmlns="http://www.w3.org/2000/svg">
<path d="M32.5338 27.6854C32.6173 28.5446 33.2095 27.8294 32.2575 27.1683C31.1728 26.415 28.927 27.0512 27.8245 27.4269C26.8809 27.7484 26.0906 28.5914 25.4133 29.3661C23.1791 31.9216 21.6895 37.489 24.3081 40.4842C27.6288 44.2825 32.0736 46.3897 36.3641 43.0698C38.5876 41.3494 40.7755 39.5614 42.0279 36.7351C42.8975 34.7726 43.6982 31.5329 42.9196 29.3805C41.1933 24.6086 35.1247 22.3352 30.9515 23.6777C28.7687 24.3799 27.6262 25.8353 26.8324 28.2026C25.7691 31.3732 24.5043 34.5421 25.1998 38.0135C27.5302 49.6453 41.2516 45.0893 45.4689 37.597C48.4035 32.3834 46.3432 26.4978 41.4502 24.4965C36.3088 22.3937 25.3922 26.4149 27.0333 34.3649C28.0906 39.487 33.1648 41.0924 36.9041 38.4876C40.3148 36.1116 44.7437 29.6993 42.4298 24.9849C41.1413 22.3598 38.5307 21.6595 36.0753 21.5374C31.914 21.3305 27.78 22.2973 24.1951 24.7838C19.4823 28.0526 18.6529 33.8888 21.4825 39.1483C24.5411 44.8335 30.9309 46.0192 35.8241 42.8544C41.5342 39.1612 48.7344 31.2552 46.034 22.9883C43.6358 15.6462 33.9704 16.2265 28.691 17.8601C22.5132 19.7718 16.4501 24.3438 16.8485 32.4545C17.1539 38.6734 22.3525 44.8614 27.9877 44.8941C31.6611 44.9155 35.1856 43.3266 38.2981 41.2025C42.3133 38.4623 46.2825 34.935 48.7215 30.2854C50.0964 27.6644 50.8488 24.6772 49.6634 21.796C48.2451 18.3486 45.0601 16.3946 41.9275 15.5905C34.2477 13.6194 24.4883 16.5236 19.222 23.333C14.3211 29.67 13.6958 37.9144 18.4434 44.693C22.2558 50.1365 28.9023 55.5124 35.2213 55.2653C40.0492 55.0765 44.6578 52.6639 48.7843 49.9792C54.0212 46.572 58.9793 41.8676 62.1464 35.9307C64.3634 31.7747 65.8411 26.8084 63.9799 22.0977C61.9613 16.9887 56.1597 14.225 51.7857 12.7607C41.2867 9.24588 28.4172 12.1954 19.9504 20.1297C13.6059 26.0752 9.13771 36.3621 12.3652 45.6411C15.5311 54.7432 22.9369 61.2669 31.4036 62.5338C45.564 64.6526 59.3114 56.0986 67.3078 42.8544C70.3261 37.8554 72.9506 30.8877 71.6656 24.6976C70.1259 17.2809 64.5967 12.8397 58.6803 10.3906C52.4451 7.8095 45.5922 6.86203 38.9888 7.18728C31.9379 7.53458 24.2938 8.87468 18.2299 13.2491C13.5922 16.5947 8.94794 21.0752 6.73903 26.996C4.2123 33.7686 4.77125 42.434 5.40785 49.5482C5.57679 51.4362 6.10782 55.6028 7.06555 57.6211C7.7112 58.9817 9.89976 61.0122 10.8079 61.7868C15.7382 65.9918 21.6697 70.3741 28.0882 69.9746C37.5996 69.3825 46.7521 62.3199 53.0918 54.6333C55.944 51.1751 57.6356 47.5708 58.8561 42.998C59.6961 39.8506 60.8418 33.7828 61.2422 30.4722C61.4786 28.5172 61.7423 25.7362 61.1668 23.6921C59.3318 17.1745 51.2679 13.6603 46.0968 12.3441C34.4975 9.39193 19.0662 13.1624 12.2396 25.2004C9.95342 29.2318 8.17541 33.8304 8.9493 38.7174C9.82212 44.2291 13.9634 48.8632 18.2927 51.0996C29.217 56.7427 45.8242 51.4422 51.0699 38.5019C53.5691 32.337 53.899 24.7842 50.1908 19.1529C45.5556 12.1139 36.4937 10.0046 29.2687 9.87345C22.356 9.74794 15.4697 11.9732 9.51442 15.9496C4.68422 19.1748 0.973924 24.2405 2.25571 31.0037C5.13439 46.1926 21.8261 49.9902 32.9859 45.5549C38.94 43.1886 45.4368 37.8016 47.2899 30.5871C48.1126 27.3838 48.2422 23.5034 46.6243 20.575C44.8857 17.4282 41.4808 15.4337 38.4111 14.585C32.3038 12.8965 24.823 14.3341 19.5234 18.2049C16.1477 20.6705 12.0912 25.869 17.0369 29.0932C20.3802 31.2728 25.0723 29.9131 28.2891 28.0733C30.163 27.0016 32.0797 23.783 29.0928 22.6004C27.1545 21.8329 24.0428 23.0194 22.7383 24.7551C20.9577 27.1243 21.8417 29.9458 24.396 30.7595C27.0721 31.6119 30.2277 30.3903 32.3203 28.4611C33.421 27.4464 35.0302 24.4795 32.7096 23.7496C30.8981 23.1797 28.8243 24.7522 28.0379 26.5363C26.7486 29.4616 29.473 31.2051 31.705 30.8744C33.8679 30.5539 37.2843 29.353 38.0972 26.6799C39.0152 23.6608 34.1445 25.2384 33.212 25.6888C31.3293 26.598 27.7055 29.0238 27.9877 31.8799C28.2798 34.8354 31.643 34.4262 33.3627 33.7185C34.3075 33.3297 37.4739 31.9617 36.3139 30.1705C34.959 28.0784 31.9565 30.7095 30.8761 31.8368C24.6443 38.3396 42.8237 36.3838 38.5869 30.4434C36.2246 27.1312 28.5577 33.0982 31.391 37.0798C34.2151 41.0484 43.6438 34.6762 40.2446 30.7882C38.5425 28.8413 36.3668 28.9391 34.2418 29.797C32.9292 30.3269 29.3604 32.2434 31.2026 34.3506C32.4864 35.819 36.0173 33.6493 37.1804 32.7418C38.8937 31.4049 40.2388 28.8273 39.3153 26.4214C38.5633 24.4621 35.7541 26.1884 34.8194 26.9816C33.5747 28.0379 30.1499 33.792 33.4631 34.4511C36.2364 35.0028 39.4477 30.2751 38.2604 27.3407C36.9397 24.0765 32.1491 25.76 30.1729 26.9385C27.2971 28.6534 25.0159 31.1613 24.2705 34.8821C23.5213 38.6215 25.7774 42.8377 29.0677 43.6301C32.6281 44.4874 36.6861 43.2961 39.4409 40.5561C41.5112 38.4968 42.9706 34.6719 41.2493 31.8368C39.3499 28.7083 35.6909 28.2296 32.6343 28.7484C27.4971 29.6203 21.8252 32.4712 18.6443 37.3384C14.4727 43.7215 18.6455 51.2996 24.3584 53.9007C33.264 57.9555 43.8814 51.1113 47.3275 41.3605C48.8275 37.1163 48.1484 32.5701 45.0922 29.4667C41.1561 25.4698 35.3842 25.6063 30.5747 26.9816C26.6547 28.1025 22.4502 30.4342 20.2267 34.4655C18.4594 37.6695 18.407 42.2081 21.7086 44.1185C24.4582 45.7095 28.1552 44.8961 30.4868 42.7107C32.5548 40.7724 35.2184 36.8001 32.9231 33.8622C29.4869 29.4638 16.333 37.9498 20.1764 43.4577C23.1083 47.6592 33.7786 42.8403 30.5371 38.7318C28.8997 36.6565 26.0664 38.1379 24.3207 39.1771C22.3369 40.3579 19.6443 42.4114 21.2313 45.2963C23.6931 49.7715 31.8136 44.4744 29.0049 39.3063C25.5051 32.8665 15.8428 35.585 13.9224 42.366C13.0829 45.3301 14.9456 48.5165 17.175 49.8212C20.4812 51.756 25.4945 48.729 27.4477 45.5118C31.1384 39.4328 24.0588 33.3884 19.3476 37.6257C17.2034 39.5542 17.9533 42.9508 19.2722 45.1383C21.7379 49.2277 25.8589 51.0996 30.1352 51.0996C34.7608 51.0996 39.3203 47.8218 42.254 43.8886C46.0834 38.7546 46.7509 32.2249 45.067 25.8755C43.9369 21.6141 40.3962 18.5761 36.6027 17.9607C30.9087 17.0368 25.4177 19.3899 20.8169 23.1175C16.8996 26.2914 13.565 30.4188 12.2145 35.787C11.0094 40.5769 11.3842 46.0265 13.194 50.5538C14.8434 54.6795 18.6186 57.7817 22.3114 59.2012C28.1067 61.4289 34.7459 57.886 39.1772 53.8145C41.6786 51.5161 43.8715 48.9249 45.6698 45.8709C48.2322 41.5196 50.9509 36.0572 51.1955 30.6733C51.6198 21.3366 44.9741 14.4689 37.4818 13.0336C31.5711 11.9014 24.6988 13.2089 19.2346 15.9496C13.8596 18.6456 8.34147 22.4994 6.16135 29.0214C2.94426 38.6454 10.3605 51.0179 17.8657 55.0068C23.3624 57.9281 29.9218 58.6802 35.8367 57.1902C43.4343 55.2762 50.4321 48.3233 54.6114 41.0588C57.9495 35.2563 59.6492 27.5312 58.1779 20.6756C56.6479 13.5464 52.2385 7.40407 46.4233 4.30002C41.0181 1.4148 34.3024 1.45609 28.6407 3.25141C22.3291 5.25283 15.6292 8.99254 12.3526 15.8204C9.63974 21.4734 7.623 28.9677 8.82372 35.4423C9.95994 41.5692 12.782 46.0947 17.5141 49.261C22.6414 52.6917 28.5062 52.4615 33.9906 50.4819C41.2704 47.8544 46.8477 42.0241 49.6508 33.8909C51.5061 28.508 52.6033 22.6638 51.1955 16.9408C49.769 11.1416 45.8638 6.93269 40.8474 5.2768C36.0477 3.69241 29.9999 5.02948 25.5012 7.23038C20.7346 9.56229 16.0758 13.5899 14.0605 19.2247C10.6422 28.7825 15.8457 40.2285 23.7932 44.2334C35.2464 50.0049 46.3886 40.1758 51.8234 29.1075C53.6932 25.2996 55.6751 19.5838 54.2095 15.217C52.597 10.4125 48.0886 9.0949 44.0373 9.49997C35.5388 10.3497 25.8472 17.4826 25.1495 28.0158C24.8463 32.5946 26.3206 37.1765 29.1431 40.4699C32.8752 44.8246 38.7921 45.2375 43.7359 44.2334C48.1621 43.3344 53.2031 41.0582 56.4574 37.4102C59.5245 33.9723 60.1887 29.9392 58.4542 25.4302C55.1285 16.7847 45.5184 17.674 39.8428 22.543C36.9185 25.0516 34.5233 28.7279 34.0157 32.986C33.547 36.9175 36.6301 41.4629 39.4409 43.2566C45.643 47.2144 56.4289 42.9664 56.1184 33.776C56.0365 31.3541 55.4544 27.7089 53.2048 26.6225C51.0384 25.5762 48.5122 28.0828 47.1392 29.6534C45.1895 31.8835 43.8202 34.6965 42.7814 37.597C41.5467 41.0447 40.5384 44.7739 38.0093 47.3074C35.5792 49.7415 31.8907 50.6231 28.7287 50.2665C28.0669 50.1918 24.8241 49.0529 27.3849 49.4333C30.6881 49.924 33.9563 49.9979 37.2809 49.6632C41.7459 49.2136 47.3587 47.585 50.442 43.5726C52.0344 41.5004 52.5427 38.3107 51.3713 35.8158C50.2739 33.4784 47.3371 34.476 45.9964 35.902C41.1537 41.0524 42.0571 50.2618 37.3562 55.3515C32.941 60.1319 25.9781 57.9271 20.5532 57.6929C19.3171 57.6396 18.784 57.8868 20.0257 58.8277C22.3505 60.5894 25.2629 61.7155 28.0631 61.7006C32.2489 61.6784 36.357 59.7031 39.9935 57.5062C44.4466 54.8159 48.6481 51.0949 51.6602 46.4311C53.7068 43.2623 54.638 40.0019 54.4104 36.0743C54.2909 34.0109 53.1459 32.0117 51.1453 32.8854C49.1888 33.7399 48.4581 35.7087 48.0434 37.913C47.3588 41.5517 47.2388 45.2836 46.775 48.9593C46.4227 51.7508 45.6497 54.446 43.4093 55.9835C40.8356 57.7499 37.8369 58.208 34.9199 58.6553C33.6544 58.8494 32.1278 59.0607 30.8761 58.5835C30.0403 58.2649 32.5555 58.316 32.6092 58.3106C38.9709 57.6739 46.2078 56.2079 51.5722 52.0189C56.2535 48.3635 61.2124 40.9272 60.5138 34.0346C60.2206 31.1421 57.0692 26.5848 54.7369 30.07C51.4043 35.0501 51.9183 42.4295 49.9145 48.0831C47.9823 53.5348 43.4144 57.4819 38.3609 58.4542C37.1638 58.6846 35.8736 58.4941 34.8069 57.8078C34.6311 57.6948 33.873 56.9742 34.4929 57.3051C38.783 59.5951 44.0767 57.576 48.1313 55.5239C55.259 51.9164 63.0174 45.7458 63.6659 36.1031C64.0035 31.0837 59.7212 26.6725 55.4653 26.7661C49.7236 26.8924 52.1653 38.8827 51.8988 42.2942C51.4574 47.9441 49.6384 55.0621 44.3889 56.9603C41.1658 58.1258 38.2537 58.0518 35.4474 55.6101C34.1625 54.4921 35.5929 54.8579 36.3139 54.9637C38.9332 55.3478 41.7642 54.8363 44.2759 53.9869C47.2684 52.9749 50.4225 51.6257 52.7778 49.2035C53.6142 48.3434 55.3128 46.7935 53.7825 46.0433" stroke="url(#paint0_radial_2_171)" stroke-width="3" stroke-linecap="round"/>
<defs>
<radialGradient id="paint0_radial_2_171" cx="0" cy="0" r="1" gradientUnits="userSpaceOnUse" gradientTransform="translate(37 36) rotate(90) scale(34 35)">
<stop stop-color="#FF7262"/>
<stop offset="1" stop-color="#FF7262" stop-opacity="0"/>
</radialGradient>
</defs>
</svg>
